<svg xmlns="http://www.w3.org/2000/svg" version="1.1" xmlns:xlink="http://www.w3.org/1999/xlink" width="512" height="512" x="0" y="0" viewBox="0 0 512 512" style="enable-background:new 0 0 512 512" xml:space="preserve" class=""><g><path fill="#ff3221" d="M423.563 270.2c-6.278-6.278-6.278-16.454 0-22.731l34.09-34.09c6.277-6.277 16.452-6.277 22.726 0 6.277 6.277 6.277 16.453 0 22.726l-34.09 34.094c-6.277 6.278-16.453 6.278-22.727 0zM440.605 332.7c-6.273-6.274-6.273-16.45 0-22.727l34.094-34.09c6.274-6.278 16.453-6.278 22.727 0 6.277 6.273 6.277 16.449 0 22.726l-34.09 34.09c-6.277 6.278-16.453 6.278-22.73 0zM241.738 88.375c6.278 6.277 16.453 6.277 22.73 0l34.09-34.09c6.278-6.277 6.278-16.453 0-22.726-6.277-6.278-16.453-6.278-22.726 0l-34.094 34.09c-6.277 6.277-6.277 16.453 0 22.726zM179.238 71.332c6.274 6.273 16.45 6.273 22.727 0l34.09-34.094c6.277-6.273 6.277-16.453 0-22.726-6.274-6.278-16.45-6.278-22.727 0l-34.09 34.09c-6.277 6.277-6.277 16.453 0 22.73zm0 0" opacity="1" data-original="#a89e9f" class=""></path><path fill="#15153e" d="m510.809 392.906-79.547-267.05a8.036 8.036 0 0 0-12.992-3.754l-90.91 79.546a8.036 8.036 0 0 0-1.196 10.793l151.281 206.684c2.868 3.914 8.735 4.367 12.168.934l19.176-19.176a8.034 8.034 0 0 0 2.02-7.977zM391.508 86.148a8.044 8.044 0 0 0-5.426-5.472L119.032 1.129a8.034 8.034 0 0 0-7.977 2.02L91.879 22.323c-3.434 3.434-2.98 9.301.934 12.164L299.496 185.77a7.977 7.977 0 0 0 4.742 1.55 8.034 8.034 0 0 0 6.051-2.742l79.547-90.91a8.04 8.04 0 0 0 1.672-7.52zM232.195 398l-28.41-73.867a8.041 8.041 0 0 0-5.832-4.977 8.051 8.051 0 0 0-7.351 2.18l-45.454 45.457a8.03 8.03 0 0 0 0 11.363l51.137 51.137c3.094 3.094 8.266 3.094 11.363 0l22.727-22.727a8.043 8.043 0 0 0 1.82-8.566zm0 0" opacity="1" data-original="#a7d9e9" class=""></path><path fill="#15153e" d="M190.602 321.336a8.045 8.045 0 0 0 2.18-7.352 8.028 8.028 0 0 0-4.977-5.828l-73.868-28.41a8.027 8.027 0 0 0-8.562 1.816l-22.73 22.727a8.037 8.037 0 0 0 0 11.363l51.14 51.141a8.013 8.013 0 0 0 5.68 2.352 8.022 8.022 0 0 0 5.683-2.352zm0 0" opacity="1" data-original="#a7d9e9" class=""></path><path fill="#15153e" d="M503.11 8.828c-8.387-8.387-24.813-15.062-55.45.762-18.004 9.305-38.672 25.176-58.191 44.695C288.094 155.66 129.172 348.383 127.579 350.32a8.036 8.036 0 0 0 .523 10.79l22.726 22.726a8.015 8.015 0 0 0 5.684 2.355 7.992 7.992 0 0 0 5.105-1.836c1.934-1.59 194.66-160.511 296.035-261.886 19.52-19.52 35.391-40.188 44.696-58.196 15.824-30.628 9.148-47.058.761-55.445zm0 0" opacity="1" data-original="#7bc5dd" class=""></path><path fill="#15153e" d="M503.11 8.828a29.253 29.253 0 0 0-9.372-6.308c4.051 9.632 4.207 24.246-7.07 46.078-9.3 18.004-25.176 38.672-44.695 58.191-101.375 101.375-294.098 260.297-296.035 261.89a8.034 8.034 0 0 1-10.79-.52l15.68 15.677a8.015 8.015 0 0 0 5.684 2.355 8.01 8.01 0 0 0 5.105-1.832c1.934-1.593 194.66-160.515 296.035-261.89 19.52-19.52 35.391-40.184 44.696-58.192 15.824-30.632 9.148-47.062.761-55.449zm0 0" opacity="1" data-original="#50b2d2" class=""></path><g fill="#ffdc75"><path d="M393.676 512c-7.028 0-10.63-8.77-5.684-13.719L452.277 434a8.03 8.03 0 0 1 11.364 0 8.037 8.037 0 0 1 0 11.363l-64.286 64.282a8 8 0 0 1-5.68 2.355zM385.64 455.754c-7.027 0-10.628-8.774-5.683-13.719l40.18-40.18a8.037 8.037 0 0 1 11.363 0 8.037 8.037 0 0 1 0 11.364l-40.18 40.18a8.007 8.007 0 0 1-5.68 2.355zM373.586 403.52c-7.027 0-10.629-8.77-5.68-13.715l28.121-28.125a8.037 8.037 0 0 1 11.364 0 8.03 8.03 0 0 1 0 11.363l-28.121 28.125a8.005 8.005 0 0 1-5.684 2.352zM7.973 130.316c-7.028 0-10.63-8.773-5.684-13.718l64.285-64.285a8.037 8.037 0 0 1 11.364 0 8.03 8.03 0 0 1 0 11.363L13.651 127.96a8 8 0 0 1-5.68 2.355zM64.223 138.352c-7.028 0-10.63-8.77-5.684-13.72l40.176-40.175a8.03 8.03 0 0 1 11.363 0 8.03 8.03 0 0 1 0 11.363l-40.176 40.176a8.007 8.007 0 0 1-5.68 2.356zM116.453 150.402c-7.027 0-10.629-8.77-5.683-13.714l28.125-28.125a8.037 8.037 0 0 1 11.363 0 8.037 8.037 0 0 1 0 11.363l-28.125 28.125a8.003 8.003 0 0 1-5.68 2.351zm0 0" fill="#ff3221" opacity="1" data-original="#ffdc75" class=""></path></g></g></svg>