<svg id="Layer_1" enable-background="new 0 0 100 100" height="512" viewBox="0 0 100 100" width="512" xmlns="http://www.w3.org/2000/svg"><path d="m6 92h84v4h-84z" fill="#e0e0e0"/><path d="m69 92h-36v-79h36v32.58" fill="#fcb316"/><path d="m86 92h-25v-46h25v16.96" fill="#f37021"/><path d="m73 46v16.96s0 29.105 0 29.04h13v-29.04-16.96z" fill="#231f20" opacity=".1"/><path d="m33 92h-23v-58h23s-.01 57.99 0 58z" fill="#85d5f7"/><path d="m33 34h-3s-.01 57.99 0 58h3c-.01-.01 0-58 0-58z" fill="#231f20" opacity=".1"/><path d="m40 74h13v18h-13z" fill="#e55325"/><g fill="#fff"><path d="m40 33h4v7h-4z"/><path d="m49 33h4v7h-4z"/><path d="m67 53h4v7h-4z"/><path d="m76 53h4v7h-4z"/><path d="m67 66h4v7h-4z"/><path d="m67 79h4v7h-4z"/><path d="m15 40h4v7h-4z"/><path d="m24 40h4v7h-4z"/><path d="m15 53h4v7h-4z"/><path d="m24 53h4v7h-4z"/><path d="m15 66h4v7h-4z"/><path d="m24 66h4v7h-4z"/><path d="m15 79h4v7h-4z"/><path d="m24 79h4v7h-4z"/><path d="m40 46h4v7h-4z"/><path d="m49 46h4v7h-4z"/><path d="m40 59h4v7h-4z"/><path d="m49 59h4v7h-4z"/><path d="m58 33h4v7h-4z"/><path d="m40 20h4v7h-4z"/><path d="m49 20h4v7h-4z"/><path d="m58 20h4v7h-4z"/></g><path d="m36 9h30v4h-30z" fill="#f9a01b"/><g><path d="m84.5 85.5h2v6.5h-2z" fill="#33691e"/></g><circle cx="85.5" cy="76.5" fill="#64dd17" r="9.26"/><path d="m87.919 67.57c.307.922.481 1.905.481 2.93 0 5.114-4.146 9.26-9.26 9.26-.839 0-1.647-.121-2.419-.33 1.227 3.677 4.69 6.33 8.779 6.33 5.114 0 9.26-4.146 9.26-9.26 0-4.276-2.902-7.865-6.841-8.93z" fill="#231f20" opacity=".1"/><path d="m36 11h30v2h-30z" fill="#231f20" opacity=".1"/></svg>