<svg xmlns="http://www.w3.org/2000/svg" version="1.1" xmlns:xlink="http://www.w3.org/1999/xlink" width="512" height="512" x="0" y="0" viewBox="0 0 64 64" style="enable-background:new 0 0 512 512" xml:space="preserve" class=""><g><path d="M61.342 22.075 42.223 2.985a1.002 1.002 0 0 0-.707-.292H22.998c-3.75 0-6.801 3.038-6.801 6.771v2.174h2V9.465c0-2.631 2.153-4.771 4.801-4.771h18.104l18.533 18.505v31.335c0 2.632-2.153 4.773-4.801 4.773H22.998c-2.647 0-4.801-2.142-4.801-4.773v-7.658h-2v7.658c0 3.735 3.051 6.773 6.801 6.773h31.836c3.75 0 6.801-3.038 6.801-6.773v-31.75c0-.266-.106-.521-.293-.709z" fill="#ffffff" opacity="1" data-original="#000000" class=""></path><path d="M40.516 7.693v9.316c0 3.735 3.052 6.773 6.803 6.773h9.316v-2h-9.316c-2.648 0-4.803-2.142-4.803-4.773V7.693zM44.174 36.957a4.09 4.09 0 0 0 4.086-4.086c0-2.27-1.833-4.115-4.086-4.115s-4.086 1.846-4.086 4.115a4.09 4.09 0 0 0 4.086 4.086zm0-6.201c1.131 0 2.086.969 2.086 2.115 0 1.15-.936 2.086-2.086 2.086a2.063 2.063 0 0 1-2.086-2.086c0-1.166.935-2.115 2.086-2.115z" fill="#ffffff" opacity="1" data-original="#000000" class=""></path><path d="m33.604 43.005 12.089 12.216H25.369c-1.238 0-2.285-1.048-2.285-2.287V47h-2v5.934a4.29 4.29 0 0 0 4.285 4.287h27.406a4.292 4.292 0 0 0 4.287-4.287V28.785a4.292 4.292 0 0 0-4.287-4.287H36.6v2h16.176a2.29 2.29 0 0 1 2.287 2.287v17.143l-5.818-5.885c-1.498-1.459-3.912-1.457-5.381.014l-3.486 3.525 1.422 1.406 3.482-3.521c.695-.694 1.848-.691 2.555-.004l7.227 7.31v4.161a2.29 2.29 0 0 1-2.287 2.287h-4.269l-14.003-14.15c.062-.304.095-.618.095-.94V24.756a4.748 4.748 0 0 0-4.742-4.744h-2.486v-.801c0-2.479-2.094-4.572-4.572-4.572h-8.631a4.577 4.577 0 0 0-4.572 4.572v.801H7.109a4.75 4.75 0 0 0-4.744 4.744v15.375a4.75 4.75 0 0 0 4.744 4.744h22.748c1.531 0 2.879-.741 3.747-1.87zM11.596 19.211c0-1.395 1.178-2.572 2.572-2.572h8.631c1.395 0 2.572 1.178 2.572 2.572v.801H11.596zm-7.231 20.92V25.842h2.771c.71 0 1.287.576 1.287 1.285v10.432c0 .693-.577 1.258-1.287 1.258h-.771v2h.771c1.813 0 3.287-1.462 3.287-3.258v-1.591c1.362 3.103 4.46 5.276 8.059 5.276 4.854 0 8.803-3.948 8.803-8.801 0-4.854-3.949-8.803-8.803-8.803-3.599 0-6.696 2.175-8.059 5.277v-1.791a3.29 3.29 0 0 0-3.287-3.285H4.533a2.741 2.741 0 0 1 2.576-1.83h22.748a2.746 2.746 0 0 1 2.742 2.744V40.13a2.746 2.746 0 0 1-2.742 2.744H7.109a2.746 2.746 0 0 1-2.744-2.743zm7.317-7.688c0-3.751 3.051-6.803 6.801-6.803a6.81 6.81 0 0 1 6.803 6.803c0 3.75-3.052 6.801-6.803 6.801s-6.801-3.051-6.801-6.801z" fill="#ffffff" opacity="1" data-original="#000000" class=""></path><path d="M21.74 32.443h2a5.264 5.264 0 0 0-5.258-5.258v2a3.263 3.263 0 0 1 3.258 3.258zM31.857 24.898c0-1.387-1.115-2.516-2.486-2.516a2.52 2.52 0 0 0-2.516 2.516c0 1.371 1.129 2.486 2.516 2.486a2.487 2.487 0 0 0 2.486-2.486zm-2.486.487c-.284 0-.516-.218-.516-.486a.53.53 0 0 1 .516-.516c.269 0 .486.231.486.516a.475.475 0 0 1-.486.486z" fill="#ffffff" opacity="1" data-original="#000000" class=""></path></g></svg>