<svg id="Layer_1" enable-background="new 0 0 512 512" height="512" viewBox="0 0 512 512" width="512" xmlns="http://www.w3.org/2000/svg"><g clip-rule="evenodd" fill-rule="evenodd"><g><path d="m291.285 429.723v8.149c0 9.783-8.004 17.788-17.787 17.788h-34.617c-9.783 0-17.787-8.004-17.787-17.788v-8.149h-195.094c-5.508 0-10-4.492-10-10v-325.29c0-5.508 4.492-10 10-10h460c5.508 0 10 4.492 10 10v325.29c0 5.508-4.492 10-10 10z" fill="#837683"/><path d="m291.285 429.723v8.149c0 9.783-8.004 17.788-17.787 17.788h-34.617c-9.783 0-17.787-8.004-17.787-17.788v-2.213h32.404c9.783 0 17.787-8.005 17.787-17.788v-8.149h194.715c5.508 0 10-4.492 10-10v-315.289h10c5.508 0 10 4.492 10 10v325.29c0 5.508-4.492 10-10 10zm-70.192 0c-2.827-3.152-4.553-7.31-4.553-11.851v-8.149h-200.54v10.001c0 5.508 4.492 10 10 10h195.093z" fill="#685e68"/><path d="m71.168 56.341c90.774.613 116.339 9.74 184.832 28.093 68.493-18.353 94.058-27.48 184.832-28.093 2.766-.02 5.153.955 7.116 2.904s2.954 4.33 2.954 7.096v314.103c0 5.47-4.423 9.941-9.893 9.999-66.477.708-132.95 8.804-180.283 34.194-3.042 1.632-6.411 1.632-9.453 0-47.333-25.39-113.807-33.485-180.283-34.194-5.47-.058-9.893-4.529-9.893-9.999v-314.104c0-2.766.991-5.147 2.954-7.096 1.964-1.948 4.351-2.923 7.117-2.903z" fill="#d1d1d6"/><path d="m450.903 360.443v20.001c0 5.47-4.423 9.941-9.893 9.999-66.477.708-132.95 8.804-180.283 34.194-3.042 1.632-6.411 1.632-9.453 0-47.333-25.39-113.807-33.485-180.283-34.194-5.47-.058-9.893-4.529-9.893-9.999v-20.001c0 5.47 4.424 9.941 9.893 9.999 66.476.708 132.95 8.804 180.283 34.194 3.042 1.632 6.411 1.632 9.453 0 47.333-25.39 113.806-33.485 180.283-34.194 5.469-.059 9.893-4.529 9.893-9.999z" fill="#b1b1b5"/><path d="m256 84.433c68.493-18.353 94.058-27.48 184.832-28.093 2.766-.02 5.153.955 7.116 2.904s2.954 4.33 2.954 7.096v314.103c0 5.47-4.423 9.941-9.893 9.999-66.477.708-132.95 8.804-180.283 34.194-1.521.816-3.124 1.224-4.727 1.224v-341.427z" fill="#eceff1"/><path d="m450.903 360.443v20.001c0 5.47-4.423 9.941-9.893 9.999-66.477.708-132.95 8.804-180.283 34.194-1.521.816-3.124 1.224-4.727 1.224v-20.001c1.603 0 3.205-.408 4.727-1.224 47.333-25.39 113.806-33.485 180.283-34.194 5.469-.059 9.893-4.529 9.893-9.999z" fill="#d1d1d6"/></g><g><path d="m161.656 161.465 64.901 37.47c1.976 1.141 3.107 3.1 3.107 5.382v74.941c0 2.282-1.131 4.241-3.107 5.382l-64.901 37.47c-1.976 1.141-4.238 1.141-6.214 0l-64.901-37.47c-1.976-1.141-3.107-3.1-3.107-5.382v-74.941c0-2.282 1.131-4.241 3.107-5.382l64.901-37.47c1.976-1.141 4.238-1.141 6.214 0z" fill="#f2d1a5"/><path d="m161.656 161.465 64.901 37.47c.988.57 1.765 1.345 2.295 2.263l-70.302 40.589-70.302-40.589c.53-.918 1.306-1.693 2.295-2.263l64.901-37.47c1.974-1.141 4.236-1.141 6.212 0z" fill="#e3a76f"/><path d="m228.851 201.198c.529.918.813 1.978.813 3.118v74.941c0 2.282-1.131 4.241-3.107 5.382l-64.901 37.47c-.988.57-2.048.855-3.107.855v-81.178z" fill="#ecba78"/><path d="m112.68 215.304 20.623 11.907 71.115-41.058-20.623-11.907z" fill="#c48958"/><path d="m128.643 256.856-12.855-7.422c-1.976-1.141-3.107-3.1-3.107-5.382v-28.748l20.623 11.907v26.954c0 1.141-.566 2.121-1.553 2.691-.989.571-2.12.57-3.108 0z" fill="#e3a76f"/></g><path d="m356.762 165.686c-4.418 0-8-3.582-8-8s3.582-8 8-8h60.768c4.418 0 8 3.582 8 8s-3.582 8-8 8zm0 142.339c-4.418 0-8-3.582-8-8s3.582-8 8-8h60.768c4.418 0 8 3.582 8 8s-3.582 8-8 8zm0 25.862c-4.418 0-8-3.582-8-8s3.582-8 8-8h60.768c4.418 0 8 3.582 8 8s-3.582 8-8 8zm0-97.031c-4.418 0-8-3.582-8-8s3.582-8 8-8h60.768c4.418 0 8 3.582 8 8s-3.582 8-8 8zm0 25.862c-4.418 0-8-3.582-8-8s3.582-8 8-8h60.768c4.418 0 8 3.582 8 8s-3.582 8-8 8zm0-71.17c-4.418 0-8-3.582-8-8s3.582-8 8-8h60.768c4.418 0 8 3.582 8 8s-3.582 8-8 8z" fill="#a79ba7"/><path d="m296.569 294.855h21.809c3.958 0 7.197 3.238 7.197 7.197v21.809c0 3.958-3.238 7.197-7.197 7.197h-21.809c-3.958 0-7.197-3.238-7.197-7.197v-21.809c0-3.958 3.239-7.197 7.197-7.197z" fill="#fe646f"/><path d="m308.378 294.855h10c3.958 0 7.197 3.238 7.197 7.197v21.809c0 3.958-3.238 7.197-7.197 7.197h-10c3.958 0 7.197-3.238 7.197-7.197v-21.809c-.001-3.958-3.239-7.197-7.197-7.197z" fill="#fd4755"/><path d="m296.569 223.686h21.809c3.958 0 7.197 3.239 7.197 7.197v21.809c0 3.958-3.238 7.197-7.197 7.197h-21.809c-3.958 0-7.197-3.239-7.197-7.197v-21.809c0-3.959 3.239-7.197 7.197-7.197z" fill="#ffe177"/><path d="m308.378 223.686h10c3.958 0 7.197 3.238 7.197 7.197v21.809c0 3.958-3.238 7.197-7.197 7.197h-10c3.958 0 7.197-3.238 7.197-7.197v-21.809c-.001-3.959-3.239-7.197-7.197-7.197z" fill="#ffd064"/><path d="m296.569 152.516h21.809c3.958 0 7.197 3.238 7.197 7.197v21.809c0 3.958-3.238 7.197-7.197 7.197h-21.809c-3.958 0-7.197-3.238-7.197-7.197v-21.809c0-3.958 3.239-7.197 7.197-7.197z" fill="#6cf5c2"/><path d="m308.378 152.516h10c3.958 0 7.197 3.238 7.197 7.197v21.809c0 3.958-3.238 7.197-7.197 7.197h-10c3.958 0 7.197-3.238 7.197-7.197v-21.809c-.001-3.958-3.239-7.197-7.197-7.197z" fill="#00e499"/></g></svg>