<svg id="Checkout" viewBox="0 0 64 64" xmlns="http://www.w3.org/2000/svg"><path d="m61.76 23.35c-.19-.22-.47-.35-.76-.35h-44.08c-.29 0-.57.13-.76.35s-.27.51-.23.8l4 26c.08.49.49.85.99.85h36.08c.49 0 .91-.36.99-.85l4-26c.04-.29-.04-.58-.23-.8z" fill="#f2d9bb"/><g fill="#28345a"><path d="m29 58h-7c-.49 0-.91-.36-.99-.85l-5.87-38.15h-4.14c-.55 0-1-.45-1-1s.45-1 1-1h5c.49 0 .91.36.99.85l5.87 38.15h6.14c.55 0 1 .45 1 1s-.45 1-1 1z"/><path d="m49 58h-14c-.55 0-1-.45-1-1s.45-1 1-1h14c.55 0 1 .45 1 1s-.45 1-1 1z"/><path d="m27 44c-.55 0-1-.45-1-1v-12c0-.55.45-1 1-1s1 .45 1 1v12c0 .55-.45 1-1 1z"/><path d="m35 44c-.55 0-1-.45-1-1v-12c0-.55.45-1 1-1s1 .45 1 1v12c0 .55-.45 1-1 1z"/><path d="m43 44c-.55 0-1-.45-1-1v-12c0-.55.45-1 1-1s1 .45 1 1v12c0 .55-.45 1-1 1z"/><path d="m51 44c-.55 0-1-.45-1-1v-12c0-.55.45-1 1-1s1 .45 1 1v12c0 .55-.45 1-1 1z"/></g><circle cx="39" cy="15" fill="#f2b05c" r="12"/><path d="m36.8 19.85c-.26 0-.51-.1-.71-.29l-3.3-3.3c-.39-.39-.39-1.02 0-1.41s1.02-.39 1.41 0l2.59 2.59 6.99-6.99c.39-.39 1.02-.39 1.41 0s.39 1.02 0 1.41l-7.7 7.7c-.2.2-.45.29-.71.29z" fill="#fff"/><circle cx="52" cy="57" fill="#da4956" r="4"/><circle cx="32" cy="57" fill="#da4956" r="4"/><rect fill="#da4956" height="6" rx="1" width="10" x="2" y="15"/></svg>