<svg xmlns="http://www.w3.org/2000/svg" version="1.1" xmlns:xlink="http://www.w3.org/1999/xlink" width="512" height="512" x="0" y="0" viewBox="0 0 64 64" style="enable-background:new 0 0 512 512" xml:space="preserve" class=""><g><path d="M50.65 36.18H15.48c-5.79 0-10.5-4.71-10.5-10.5 0-5.66 4.5-10.29 10.11-10.49 1.83-7.55 8.64-12.94 16.48-12.94 9.35 0 16.96 7.61 16.96 16.96 0 .17 0 .34-.01.5.68-.18 1.39-.27 2.12-.27 4.61 0 8.36 3.75 8.36 8.36s-3.73 8.38-8.35 8.38zm-35.1-18.99h-.07c-4.68 0-8.5 3.81-8.5 8.5s3.81 8.5 8.5 8.5h35.18c3.51 0 6.36-2.86 6.36-6.36s-2.86-6.36-6.36-6.36c-1 0-1.93.22-2.79.65-.33.17-.73.14-1.03-.08-.3-.21-.46-.58-.42-.94.08-.61.12-1.24.12-1.87 0-8.25-6.71-14.96-14.96-14.96-7.17 0-13.35 5.1-14.7 12.13-.1.5-.56.84-1.06.81-.09-.02-.18-.02-.27-.02zM55.16 61.74H8.84c-.55 0-1-.45-1-1V40.96c0-.55.45-1 1-1h46.31c.55 0 1 .45 1 1v19.78c.01.56-.44 1-.99 1zm-45.32-2h44.31V41.96H9.84z" fill="#ff3221" opacity="1" data-original="#000000" class=""></path><path d="M44.57 57.72H19.68c-.55 0-1-.45-1-1v-3.78c0-.55.45-1 1-1h24.89c.55 0 1 .45 1 1v3.78c0 .55-.45 1-1 1zm-23.89-2h22.89v-1.78H20.68zM16.38 49.3H12.7c-.55 0-1-.45-1-1v-3.68c0-.55.45-1 1-1h3.68c.55 0 1 .45 1 1v3.68c0 .56-.45 1-1 1zm-2.68-2h1.68v-1.68H13.7zM23.35 49.3h-3.68c-.55 0-1-.45-1-1v-3.68c0-.55.45-1 1-1h3.68c.55 0 1 .45 1 1v3.68c0 .56-.44 1-1 1zm-2.67-2h1.68v-1.68h-1.68zM30.49 49.3h-3.67c-.55 0-1-.45-1-1v-3.68c0-.55.45-1 1-1h3.67c.55 0 1 .45 1 1v3.68c0 .56-.45 1-1 1zm-2.68-2h1.67v-1.68h-1.67zM37.46 49.3h-3.68c-.55 0-1-.45-1-1v-3.68c0-.55.45-1 1-1h3.68c.55 0 1 .45 1 1v3.68c0 .56-.44 1-1 1zm-2.67-2h1.68v-1.68h-1.68zM44.57 49.3h-3.68c-.55 0-1-.45-1-1v-3.68c0-.55.45-1 1-1h3.68c.55 0 1 .45 1 1v3.68c0 .56-.45 1-1 1zm-2.68-2h1.68v-1.68h-1.68zM51.54 49.3h-3.67c-.55 0-1-.45-1-1v-3.68c0-.55.45-1 1-1h3.67c.55 0 1 .45 1 1v3.68c0 .56-.44 1-1 1zm-2.67-2h1.67v-1.68h-1.67zM16.38 57.67H12.7c-.55 0-1-.45-1-1v-3.68c0-.55.45-1 1-1h3.68c.55 0 1 .45 1 1v3.68c0 .55-.45 1-1 1zm-2.68-2h1.68v-1.68H13.7zM51.54 57.67h-3.67c-.55 0-1-.45-1-1v-3.68c0-.55.45-1 1-1h3.67c.55 0 1 .45 1 1v3.68c0 .55-.44 1-1 1zm-2.67-2h1.67v-1.68h-1.67zM32 41.96c-.55 0-1-.45-1-1v-5.78c0-.55.45-1 1-1s1 .45 1 1v5.78c0 .55-.45 1-1 1z" fill="#ff3221" opacity="1" data-original="#000000" class=""></path></g></svg>