<svg id="Layer_1" enable-background="new 0 0 512 512" viewBox="0 0 512 512" xmlns="http://www.w3.org/2000/svg"><g><circle cx="250.5" cy="267" fill="#49b6fc" r="245"/><circle cx="239.147" cy="283.673" fill="#65befc" r="200"/><path d="m145.839 389.048h-86.183c-5.523 0-10-4.477-10-10v-369.048c0-5.523 4.477-10 10-10h86.183c5.523 0 10 4.477 10 10v369.048c0 5.522-4.477 10-10 10z" fill="#ffb509"/><path d="m382.371 389.048h-235.85c-5.523 0-10-4.477-10-10v-369.048c0-5.523 4.477-10 10-10h235.849c5.523 0 10 4.477 10 10v369.048c.001 5.522-4.477 10-9.999 10z" fill="#ffc143"/><path d="m461.874 420.187h-332.715c-2.761 0-5-2.239-5-5v-379.048c0-2.761 2.239-5 5-5h332.715c2.761 0 5 2.239 5 5v379.048c0 2.761-2.238 5-5 5z" fill="#d9e7ec"/><path d="m125.893 445.549h-24.881c-2.761 0-5-2.239-5-5v-379.047c0-2.761 2.239-5 5-5h24.881c2.761 0 5 2.239 5 5v379.048c0 2.761-2.238 4.999-5 4.999z" fill="#d9e7ec"/><path d="m433.727 445.549h-307.392c-2.761 0-5-2.239-5-5v-379.047c0-2.761 2.239-5 5-5h307.392c2.761 0 5 2.239 5 5v379.048c0 2.761-2.239 4.999-5 4.999z" fill="#fff"/><path d="m260.946 113.049h-105c-4.142 0-7.5-3.358-7.5-7.5 0-4.142 3.358-7.5 7.5-7.5h105c4.142 0 7.5 3.358 7.5 7.5 0 4.143-3.358 7.5-7.5 7.5z" fill="#9facba"/><path d="m220.946 143.049h-65c-4.142 0-7.5-3.358-7.5-7.5 0-4.142 3.358-7.5 7.5-7.5h65c4.142 0 7.5 3.358 7.5 7.5 0 4.143-3.358 7.5-7.5 7.5z" fill="#9facba"/><g fill="#c5d3dd"><path d="m260.946 188.049h-105c-4.142 0-7.5-3.358-7.5-7.5 0-4.142 3.358-7.5 7.5-7.5h105c4.142 0 7.5 3.358 7.5 7.5 0 4.143-3.358 7.5-7.5 7.5z"/><path d="m260.946 218.049h-105c-4.142 0-7.5-3.358-7.5-7.5 0-4.142 3.358-7.5 7.5-7.5h105c4.142 0 7.5 3.358 7.5 7.5 0 4.143-3.358 7.5-7.5 7.5z"/><path d="m332.946 248.049h-177c-4.142 0-7.5-3.358-7.5-7.5 0-4.142 3.358-7.5 7.5-7.5h177c4.142 0 7.5 3.358 7.5 7.5 0 4.143-3.358 7.5-7.5 7.5z"/></g><path d="m252.946 308.049h-97c-4.142 0-7.5-3.358-7.5-7.5 0-4.142 3.358-7.5 7.5-7.5h97c4.142 0 7.5 3.358 7.5 7.5 0 4.143-3.358 7.5-7.5 7.5z" fill="#9facba"/><path d="m190.063 402.5h-34.117c-4.142 0-7.5-3.358-7.5-7.5 0-4.142 3.358-7.5 7.5-7.5h34.117c4.142 0 7.5 3.358 7.5 7.5 0 4.142-3.358 7.5-7.5 7.5z" fill="#9facba"/><path d="m190.063 370h-34.117c-4.142 0-7.5-3.358-7.5-7.5 0-4.142 3.358-7.5 7.5-7.5h34.117c4.142 0 7.5 3.358 7.5 7.5 0 4.142-3.358 7.5-7.5 7.5z" fill="#0055ca"/><path d="m212 370c-4.142 0-7.5-3.358-7.5-7.5 0-4.142 3.358-7.5 7.5-7.5 4.142 0 7.5 3.358 7.5 7.5 0 4.142-3.358 7.5-7.5 7.5z" fill="#0055ca"/><path d="m372.946 278.049h-217c-4.142 0-7.5-3.358-7.5-7.5 0-4.142 3.358-7.5 7.5-7.5h217c4.142 0 7.5 3.358 7.5 7.5 0 4.143-3.358 7.5-7.5 7.5z" fill="#c5d3dd"/><path d="m459.01 414.114c0 13.097-3.673 25.337-10.044 35.745-.93 1.519-2.21 2.799-3.728 3.728-10.408 6.371-22.648 10.044-35.745 10.044-37.741 0-68.565-30.823-68.564-68.564 0-13.092 3.67-25.327 10.036-35.733.934-1.527 2.222-2.814 3.749-3.749 10.406-6.367 22.641-10.036 35.733-10.036 37.74 0 68.563 30.824 68.563 68.565z" fill="#00c53b"/><path d="m449.608 448.788c-11.91 20.277-33.946 33.889-59.162 33.889-37.867 0-68.564-30.697-68.564-68.564 0-25.216 13.612-47.252 33.889-59.162-5.975 10.173-9.402 22.024-9.402 34.675 0 37.867 30.697 68.564 68.564 68.564 12.652 0 24.502-3.427 34.675-9.402z" fill="#00b327"/><path d="m213.655 400.955c-3.905-3.905-3.905-10.237 0-14.142l42.427-42.426c3.905-3.905 10.237-3.905 14.142 0 3.905 3.905 3.905 10.237 0 14.142l-42.427 42.426c-3.906 3.906-10.237 3.906-14.142 0z" fill="#003278"/><path d="m447.002 181.755-14.142-14.142c-3.905-3.905-3.905-10.237 0-14.142l42.427-42.426c3.905-3.905 10.237-3.905 14.142 0l14.142 14.142c3.905 3.905 3.905 10.237 0 14.142l-42.427 42.426c-3.905 3.905-10.237 3.905-14.142 0z" fill="#00429c"/><path d="m234.868 379.742c-7.81-7.811-7.81-20.474 0-28.284l28.285-28.284c7.811-7.81 20.474-7.81 28.284 0 7.81 7.811 7.81 20.474 0 28.284l-28.285 28.284c-7.81 7.811-20.474 7.811-28.284 0z" fill="#00429c"/><path d="m255.374 357.822-14.142-14.142c-1.953-1.953-1.953-5.118 0-7.071l197.992-197.988c1.953-1.953 5.118-1.953 7.071 0l14.142 14.142c1.953 1.953 1.953 5.118 0 7.071l-197.992 197.988c-1.952 1.953-5.118 1.953-7.071 0z" fill="#0055ca"/><path d="m270.93 373.379-15.556-15.557c-1.953-1.953-1.953-5.118 0-7.071l197.992-197.988c1.953-1.953 5.118-1.953 7.071 0l15.556 15.557c1.953 1.953 1.953 5.118 0 7.071l-197.991 197.988c-1.953 1.953-5.119 1.953-7.072 0z" fill="#0066ed"/><path d="m361.441 294.184-21.213-21.213c-1.953-1.953-1.953-5.118 0-7.071l91.925-91.923c1.953-1.953 5.118-1.953 7.071 0l21.213 21.213c1.953 1.953 1.953 5.118 0 7.071l-91.925 91.923c-1.953 1.953-5.118 1.953-7.071 0z" fill="#00429c"/><circle cx="390.446" cy="414.113" fill="#4bcd5c" r="45.666"/><path d="m419.978 406.613h-22.032v-22.032c0-4.142-3.357-7.5-7.5-7.5-4.142 0-7.5 3.358-7.5 7.5v22.032h-22.032c-4.143 0-7.5 3.358-7.5 7.5s3.357 7.5 7.5 7.5h22.032v22.031c0 4.142 3.357 7.5 7.5 7.5 4.142 0 7.5-3.358 7.5-7.5v-22.031h22.032c4.143 0 7.5-3.358 7.5-7.5s-3.357-7.5-7.5-7.5z" fill="#fff"/></g><g/><g/><g/><g/><g/><g/><g/><g/><g/><g/><g/><g/><g/><g/><g/></svg>