<svg id="Layer_1" enable-background="new 0 0 68 68" height="512" viewBox="0 0 68 68" width="512" xmlns="http://www.w3.org/2000/svg"><g id="_x37_1"><g><g><g><path d="m52.2 9.3v49.3c0 3.3-2.7 6-6 6h-38.2c-3.3 0-6-2.7-6-6v-49.3c0-3.3 2.7-6 6-6h38.2c3.3 0 6 2.7 6 6z" fill="#e9e7fc"/></g></g><g><g><path d="m27.1 10.7v15c0 1.4-1.1 2.5-2.5 2.5h-15c-1.4 0-2.5-1.1-2.5-2.5v-15c0-1.4 1.1-2.5 2.5-2.5h15c1.4 0 2.5 1.1 2.5 2.5z" fill="#57b3fe"/></g><g><g><path d="m21.4 15.4v6c0 2.7-2.2 4.9-4.9 4.9s-4.9-2.2-4.9-4.9v-6z" fill="#fabdab"/></g><g><path d="m23 19.8c0 .9-.7 1.6-1.6 1.6v-3.2c.9 0 1.6.7 1.6 1.6z" fill="#fabdab"/></g><g><path d="m21.8 18.2v3.1c-.1 0-.2 0-.3 0v-3.2c.1.1.2.1.3.1z" fill="#ea8b82"/></g><g><path d="m10.1 19.8c0 .9.7 1.6 1.6 1.6v-3.2c-.9 0-1.6.7-1.6 1.6z" fill="#fabdab"/></g><g><path d="m11.3 18.2v3.1h.3v-3.2c0 .1-.2.1-.3.1z" fill="#ea8b82"/></g><g><path d="m15.1 23.2c-.2 0-.3.2-.2.3.3.6.9 1 1.6 1s1.3-.4 1.6-1c.1-.2 0-.3-.2-.3z" fill="#fff"/></g><g><path d="m17.1 21.6c-.1.3-.3.5-.6.5s-.6-.2-.6-.5z" fill="#ea8b82"/></g><g><g><path d="m14.8 19.9c0 .3-.2.5-.5.5s-.5-.2-.5-.5.2-.5.5-.5c.2-.1.5.2.5.5z" fill="#1d2943"/></g><g><path d="m19.3 19.9c0 .3-.2.5-.5.5s-.5-.2-.5-.5.2-.5.5-.5c.3-.1.5.2.5.5z" fill="#1d2943"/></g></g><g><path d="m15.4 18.6c0 .1-.1.2-.2.2h-2c-.1 0-.2-.1-.2-.2s.1-.2.2-.2h2c.1 0 .2.1.2.2z" fill="#1d2943"/></g><g><path d="m20 18.6c0 .1-.1.2-.2.2h-2c-.1 0-.2-.1-.2-.2s.1-.2.2-.2h2c.1 0 .2.1.2.2z" fill="#1d2943"/></g><g><path d="m11.7 20.4s.4-4.1 2.2-5c0 0 2.4 3 4.7 0 0 0 .7 1.4 2.2 1 0 0 .3 3.2.7 4 1-1 1.3-2.7 1.2-5 .9 0 1.5-.4 1.5-1.4 0-1.1-.8-1.4-1.9-1.4 2.2-1.5.1-3.5-2.4-2.1-3-.2-5.3.2-6.4 1.7-3.9-.9-3.6 4.1-1.8 8.2z" fill="#1d2943"/></g></g></g><g><g><g><g><g><path d="m47.1 14.9h-3.5c-.5 0-.8-.4-.8-.8s.4-.8.8-.8h3.5c.5 0 .8.4.8.8s-.4.8-.8.8z" fill="#cccff2"/></g></g><g><g><path d="m39.9 14.9h-8.3c-.5 0-.8-.4-.8-.8s.4-.8.8-.8h8.3c.5 0 .8.4.8.8s-.4.8-.8.8z" fill="#cccff2"/></g></g></g><g><g><g><path d="m47.3 19.5h-15.7c-.5 0-.8-.4-.8-.8s.4-.8.8-.8h15.7c.5 0 .8.4.8.8s-.3.8-.8.8z" fill="#cccff2"/></g></g></g></g><g><g><g><g><path d="m31.6 23h3.5c.5 0 .8.4.8.8s-.4.8-.8.8h-3.5c-.5 0-.8-.4-.8-.8s.3-.8.8-.8z" fill="#cccff2"/></g></g><g><g><path d="m38.8 23h8.3c.5 0 .8.4.8.8s-.4.8-.8.8h-8.3c-.5 0-.8-.4-.8-.8s.4-.8.8-.8z" fill="#cccff2"/></g></g></g></g></g><g><g><g><path d="m27 58.1v-24.7c0-.5.4-.8.8-.8s.8.4.8.8v24.7c0 .5-.4.8-.8.8s-.8-.4-.8-.8z" fill="#cccff2"/></g></g></g><g><g><g><path d="m48.4 53.2v2.7c0 .6-.5 1.1-1.1 1.1h-14.2c-.6 0-1.1-.5-1.1-1.1v-2.7c0-.6.5-1.1 1.1-1.1h14.1c.7-.1 1.2.4 1.2 1.1z" fill="#cccff2"/></g><g><path d="m41.6 54.5c0 1.4-1.1 2.5-2.5 2.5h-6c-.6 0-1.1-.5-1.1-1.1v-2.7c0-.6.5-1.1 1.1-1.1h6c1.4-.1 2.5 1 2.5 2.4z" fill="#57b3fe"/></g><g><path d="m48.4 44.6v2.7c0 .6-.5 1.1-1.1 1.1h-14.2c-.6 0-1.1-.5-1.1-1.1v-2.7c0-.6.5-1.1 1.1-1.1h14.1c.7 0 1.2.5 1.2 1.1z" fill="#cccff2"/></g><g><path d="m44.9 46c0 1.4-1.1 2.5-2.5 2.5h-9.2c-.6 0-1.1-.5-1.1-1.1v-2.7c0-.6.5-1.1 1.1-1.1h9.2c1.4-.1 2.5 1 2.5 2.4z" fill="#ffd06c"/></g></g><g><path d="m40.4 44.6c-1.1.2-2.3.3-3.4.3-.6 0-1.1 0-1.7-.1-.6 0-1.1-.1-1.7-.2.6-.1 1.1-.2 1.7-.2s1.1-.1 1.7-.1c1.1 0 2.2.1 3.4.3z" fill="#fff"/></g><g><path d="m48.4 35.6v2.7c0 .6-.5 1.1-1.1 1.1h-14.2c-.6 0-1.1-.5-1.1-1.1v-2.7c0-.6.5-1.1 1.1-1.1h14.1c.7 0 1.2.5 1.2 1.1z" fill="#cccff2"/></g><g><path d="m40 37c0 1.4-1.1 2.5-2.5 2.5h-4.4c-.6 0-1.1-.5-1.1-1.1v-2.7c0-.6.5-1.1 1.1-1.1h4.4c1.4-.1 2.5 1 2.5 2.4z" fill="#f34b58"/></g><g><path d="m38.3 35.6c-.9.2-1.7.2-2.6.2-.4 0-.9 0-1.3 0s-.9-.1-1.3-.2c.4-.1.9-.1 1.3-.2h1.3c.9 0 1.7.1 2.6.2z" fill="#fff"/></g></g><g><g><g><g><g><g><path d="m8.1 37.3h3.4c.4 0 .8-.3.8-.8 0-.4-.3-.8-.8-.8h-3.4c-.4 0-.8.3-.8.8s.3.8.8.8z" fill="#cccff2"/></g></g><g><g><path d="m14.9 37.3h7.9c.4 0 .8-.3.8-.8 0-.4-.3-.8-.8-.8h-7.9c-.4 0-.8.3-.8.8.1.5.4.8.8.8z" fill="#cccff2"/></g></g></g><g><g><g><path d="m7.9 41.7h15c.4 0 .8-.3.8-.8 0-.4-.3-.8-.8-.8h-15c-.4 0-.8.3-.8.8s.3.8.8.8z" fill="#cccff2"/></g></g></g></g><g><g><g><g><path d="m22.8 45h-6.4c-.4 0-.8.3-.8.8 0 .4.3.8.8.8h6.4c.4 0 .8-.3.8-.8 0-.4-.3-.8-.8-.8z" fill="#cccff2"/></g></g><g><g><path d="m12.9 45h-4.8c-.4 0-.8.3-.8.8 0 .4.3.8.8.8h4.8c.4 0 .8-.3.8-.8 0-.4-.4-.8-.8-.8z" fill="#cccff2"/></g></g></g><g><g><g><path d="m7.9 51h15c.4 0 .8-.3.8-.8 0-.4-.3-.8-.8-.8h-15c-.4 0-.8.3-.8.8s.3.8.8.8z" fill="#cccff2"/></g></g></g></g></g><g><g><g><path d="m22.8 55.7h-3.4c-.4 0-.8-.3-.8-.8 0-.4.3-.8.8-.8h3.4c.4 0 .8.3.8.8s-.3.8-.8.8z" fill="#423d9b"/></g></g><g><g><path d="m16 55.7h-7.9c-.4 0-.8-.3-.8-.8 0-.4.3-.8.8-.8h7.9c.4 0 .8.3.8.8-.1.5-.4.8-.8.8z" fill="#423d9b"/></g></g></g></g><g><path d="m45.3 5.7c-3.2.5-6.4.6-9.6.6-3 0-6.5-.1-9.6-.6 3-.5 6.6-.6 9.6-.6 3.2.1 6.4.2 9.6.6z" fill="#fff"/></g><g><g><path d="m10.2 63.1c-.3-.1-2 .3-4.1-1.5-2-1.6-2.1-3.5-2.2-3.6.7.8 1.5 1.9 2.8 2.9 1.1.9 2.3 1.6 3.5 2.2z" fill="#fff"/></g></g></g><g><g><g><path d="m62.2 36.4 2 16.7c.4 3.5-.8 5.5-1.7 9.3l-1.5.2c-1.8-3.5-3.4-5.2-3.8-8.7l-2-16.7z" fill="#ffd06c"/></g><g><path d="m57.7 56.2c.6 1.7 1.2 2.4 3.3 6.4l1.5-.2c1.2-4.3 1.6-5.1 1.7-7z" fill="#febc1f"/></g><g><path d="m62.5 62.4.2 1.4c.1.7-.7 1.1-1.3.7-.2-.1-.3-.3-.3-.5l-.1-1.4z" fill="#1d2943"/></g></g><g><path d="m60.1 15.2 2.5 21.2c0 .3-.2.7-.6.7l-6.6.8c-.3 0-.7-.2-.7-.6l-2.5-21.2c-.3-2.2 1.3-4.1 3.4-4.4 2.2-.2 4.2 1.3 4.5 3.5z" fill="#f34b58"/></g><g><path d="m60.9 17.7h1.6v8.2h-1.6z" fill="#497bfe" transform="matrix(.993 -.119 .119 .993 -2.15 7.491)"/></g><g><path d="m64.2 17.1 1.8 14.8c.1.9-.5 1.7-1.4 1.8-.2 0-.3 0-.5-.1-.1-.1-.2-.3-.2-.4l-2-16.7c0-.4.2-.7.6-.7.8-.2 1.6.4 1.7 1.3z" fill="#57b3fe"/></g><g><path d="m59.1 18.7c.6 2.3 1 4.6 1.3 6.8.1 1.2.2 2.3.3 3.5s.1 2.3.1 3.5c-.3-1.1-.5-2.3-.7-3.4s-.4-2.3-.5-3.4c-.4-2.4-.6-4.7-.5-7z" fill="#fff"/></g></g></g></svg>