<svg id="Icons" height="512" viewBox="0 0 60 60" width="512" xmlns="http://www.w3.org/2000/svg"><path d="m1 7v41c0 3.31 8.06 6 18 6a49.477 49.477 0 0 0 7.58-.56l10.42-32.2v-14.24z" fill="#2d629b"/><path d="m1 35c0 3.314 8.059 6 18 6s18-2.686 18-6v-14c0 3.314-8.059 6-18 6s-18-2.686-18-6z" fill="#3778c6"/><ellipse cx="19" cy="7" fill="#3778c6" rx="18" ry="6"/><circle cx="40" cy="40" fill="#e1efff" r="19"/><path d="m40.94 42.04 6.66-11.54a2.976 2.976 0 0 0 .4-1.49 3 3 0 0 0 -5.6-1.51l-7.25 12.56z" fill="#925c4c"/><path d="m31.214 30.423.721 1.319a.822.822 0 0 0 .323.323l1.319.721a.814.814 0 0 1 0 1.428l-1.319.721a.822.822 0 0 0 -.323.323l-.721 1.319a.814.814 0 0 1 -1.428 0l-.721-1.319a.822.822 0 0 0 -.323-.323l-1.319-.721a.814.814 0 0 1 0-1.428l1.319-.721a.822.822 0 0 0 .323-.323l.721-1.319a.814.814 0 0 1 1.428 0z" fill="#e3c84c"/><path d="m51.214 38.423.721 1.319a.822.822 0 0 0 .323.323l1.319.721a.814.814 0 0 1 0 1.428l-1.319.721a.822.822 0 0 0 -.323.323l-.721 1.319a.814.814 0 0 1 -1.428 0l-.721-1.319a.822.822 0 0 0 -.323-.323l-1.319-.721a.814.814 0 0 1 0-1.428l1.319-.721a.822.822 0 0 0 .323-.323l.721-1.319a.814.814 0 0 1 1.428 0z" fill="#e3c84c"/><path d="m45.23 54h-9.23a6.759 6.759 0 0 1 -1.64-.2 7 7 0 1 1 8.64-6.8 7.068 7.068 0 0 0 2.72 5.65.762.762 0 0 1 -.49 1.35z" fill="#e3c84c"/><g fill="#4b95ff"><path d="m12 20.58a1.063 1.063 0 0 1 -.125-.008 41.016 41.016 0 0 1 -5.125-.951 1 1 0 1 1 .5-1.937 39.344 39.344 0 0 0 4.875.9 1 1 0 0 1 -.125 1.996z"/><path d="m19 21c-1.021 0-2.048-.025-3.05-.075a1 1 0 1 1 .1-2c1.939.1 3.961.1 5.9 0a1 1 0 1 1 .1 2c-1.002.05-2.029.075-3.05.075z"/><path d="m26 20.58a1 1 0 0 1 -.123-1.992 39.344 39.344 0 0 0 4.875-.9 1 1 0 1 1 .5 1.937 41.016 41.016 0 0 1 -5.125.951 1.063 1.063 0 0 1 -.127.004z"/><path d="m12 34.58a1.063 1.063 0 0 1 -.125-.008 41.016 41.016 0 0 1 -5.125-.951 1 1 0 1 1 .5-1.937 39.344 39.344 0 0 0 4.875.9 1 1 0 0 1 -.125 1.996z"/><path d="m18 34.992h-.018q-1.03-.018-2.031-.067a1 1 0 0 1 .1-2q.969.048 1.969.065a1 1 0 0 1 -.018 2z"/><path d="m18 48h-.016q-1.032-.017-2.035-.067a1 1 0 0 1 .1-2q.966.05 1.965.065a1 1 0 0 1 -.014 2.002z"/><path d="m12 47.58a1.063 1.063 0 0 1 -.125-.008 41.016 41.016 0 0 1 -5.125-.951 1 1 0 1 1 .5-1.937 39.344 39.344 0 0 0 4.875.9 1 1 0 0 1 -.125 1.996z"/></g><path d="m39 54h-3a6.759 6.759 0 0 1 -1.64-.2 5.96 5.96 0 0 1 -1.36-3.8v-1a1 1 0 0 1 2 0v1a4 4 0 0 0 3.51 3.97 3.908 3.908 0 0 0 .49.03z" fill="#c7af3e"/><path d="m43 54h-4.46q-.03-.015-.03-.03a5.926 5.926 0 0 1 -1.51-3.97v-1a1 1 0 0 1 2 0v1a4 4 0 0 0 4 4z" fill="#c7af3e"/></svg>