<svg xmlns="http://www.w3.org/2000/svg" version="1.1" xmlns:xlink="http://www.w3.org/1999/xlink" width="512" height="512" x="0" y="0" viewBox="0 0 512 512" style="enable-background:new 0 0 512 512" xml:space="preserve" class=""><g><path fill-rule="evenodd" d="M382.545 455.041a13.55 13.55 0 0 0-13.561-13.561H347.79V330.733a13.557 13.557 0 1 0-27.114 0V441.48h-26.521v-58.7a13.557 13.557 0 1 0-27.113 0v58.7h-24.31v-89.72a13.557 13.557 0 1 0-27.113 0v89.72h-24.293V403.8a13.557 13.557 0 1 0-27.113 0v37.68h-21.195a13.557 13.557 0 1 0 0 27.114h225.966a13.554 13.554 0 0 0 13.561-13.553zM162.511 340.849a13.549 13.549 0 0 1 .3-19.164l57.428-55.709a13.554 13.554 0 0 1 16.664-1.737l43.637 27.505 49.784-48.287a13.555 13.555 0 1 1 18.873 19.462l-57.428 55.717a13.548 13.548 0 0 1-16.664 1.729l-43.637-27.506-49.776 48.288a13.561 13.561 0 0 1-19.178-.3zM12.237 185.79a23.779 23.779 0 0 1 9.54-15.612L256 0l234.233 170.178a23.979 23.979 0 0 1 5.283 33.4l-.993 1.372a23.924 23.924 0 0 1-33.4 5.293L263.967 67.009a13.541 13.541 0 0 0-15.932 0L50.876 210.244a23.972 23.972 0 0 1-33.387-5.279l-1-1.372a23.73 23.73 0 0 1-4.251-17.8zM412.578 512H99.432a19.976 19.976 0 0 1-19.959-19.952V222.986L256 94.742l176.53 128.244v269.062A19.97 19.97 0 0 1 412.578 512z" fill="#ff3221" opacity="1" data-original="#000000" class=""></path></g></svg>