<svg height="512" viewBox="0 0 96 96" width="512" xmlns="http://www.w3.org/2000/svg"><g id="Discount"><path d="m13 79.85a6.31 6.31 0 0 0 -6.21 5.15 3.94 3.94 0 1 0 -1.64 7.52h7.85a6.32 6.32 0 0 0 0-12.63z" fill="#2ac58f"/><path d="m12.93 12.67h14.1v22.82h-14.1z" fill="#ffab8a"/><path d="m12.93 12.67v3.33h6.44a2.32 2.32 0 0 1 1.64 4l-8.08 8v7.49h4.48l9.59-9.62v-13.2z" fill="#ff8867"/><path d="m83.72 46.63v45.85h-70.79v-45.03l35.8-35.79z" fill="#ffb080"/><path d="m79.79 51.87v34.7a2 2 0 0 1 -2 2h-59a2 2 0 0 1 -2-2v-33.89a8.7 8.7 0 0 1 2.55-6.15l27.32-27.25a2.92 2.92 0 0 1 4.13 0l26.45 26.43a8.74 8.74 0 0 1 2.55 6.16z" fill="#ffd894"/><path d="m16.86 49.08q63.71-63.69 0 0z" fill="#ffb080"/><path d="m79.79 48.26c0 .1.84.86-31.06-31z" fill="#ffb080"/><path d="m64.93 42.24h-32.4a1.58 1.58 0 0 1 -1.12-2.69l16.21-16.19a1.56 1.56 0 0 1 2.22 0l16.21 16.19a1.58 1.58 0 0 1 -1.12 2.69z" fill="#fff1ad"/><path d="m51.75 30.81-2.42-2.41a.83.83 0 0 0 -1.2 0l-2.42 2.41a.85.85 0 0 0 .6 1.45h4.84a.85.85 0 0 0 .6-1.45z" fill="#fff"/><path d="m93 48.15-1.79 1.85a3 3 0 0 1 -4.21 0l-38.27-38.34-38.31 38.34a3 3 0 0 1 -4.17 0l-1.82-1.85a2.94 2.94 0 0 1 0-4.16l42.06-42.06a3.16 3.16 0 0 1 4.48 0l42.03 42.07a2.94 2.94 0 0 1 0 4.15z" fill="#e66f49"/><path d="m93.83 45.49a1.15 1.15 0 0 1 -2 1c-7.41-7.49-42.12-42.23-42.31-42.41a1.13 1.13 0 0 0 -1.58 0c-.19.19-34.94 34.92-42.36 42.39a1.14 1.14 0 0 1 -1.95-1 2.85 2.85 0 0 1 .8-1.47l42.07-42.07a3.14 3.14 0 0 1 4.46 0l42.04 42.07a2.91 2.91 0 0 1 .83 1.49z" fill="#ff974e"/><path d="m51.66 58.01h24.57v34.47h-24.57z" fill="#f02f62"/><rect fill="#ff4d6c" height="18.68" rx="1.02" transform="matrix(0 -1 1 0 -12.25 140.15)" width="26.66" x="50.62" y="66.86"/><rect fill="#fff" height="3.98" rx=".57" width="12.8" x="57.55" y="65.82"/><path d="m51.66 58.01h24.57v2.64h-24.57z" fill="#b92053"/><path d="m45 58v16.68a1.38 1.38 0 0 1 -1.38 1.37h-21.83a1.37 1.37 0 0 1 -1.37-1.37v-16.68z" fill="#cef0fc"/><rect fill="#fffffc" height="14.96" rx="1.05" width="20.64" x="22.38" y="59.55"/><path d="m53.81 52.75h20.28a2.15 2.15 0 0 1 2.15 2.15v3.1a0 0 0 0 1 0 0h-24.58a0 0 0 0 1 0 0v-3.1a2.15 2.15 0 0 1 2.15-2.15z" fill="#e16a3f"/><path d="m55.59 54.43h16.72a1 1 0 0 1 1 1v2.57a0 0 0 0 1 0 0h-18.7a0 0 0 0 1 0 0v-2.59a1 1 0 0 1 .98-.98z" fill="#f5923f"/><path d="m22.56 52.75h20.28a2.15 2.15 0 0 1 2.16 2.15v3.1a0 0 0 0 1 0 0h-24.58a0 0 0 0 1 0 0v-3.1a2.15 2.15 0 0 1 2.14-2.15z" fill="#e16a3f"/><path d="m24.34 54.43h16.71a1 1 0 0 1 1 1v2.57a0 0 0 0 1 0 0h-18.69a0 0 0 0 1 0 0v-2.59a1 1 0 0 1 .98-.98z" fill="#f5923f"/><circle cx="58.01" cy="75.24" fill="#405075" r="2.04"/><rect fill="#ff5b49" height="19.83" rx="1.82" transform="matrix(0 1 -1 0 29.27 -10.7)" width="6.77" x="16.6" y="-.63"/><rect fill="#ff7449" height="10.46" rx="1.82" transform="matrix(0 1 -1 0 29.27 -10.7)" width="6.77" x="16.6" y="4.06"/><path d="m36.74 82.08h-8.08a1 1 0 0 1 0-2h8.08a1 1 0 1 1 0 2z" fill="#fffbc6"/><circle cx="79.34" cy="79.55" fill="#2a938f" r="15.45"/><path d="m79.34 91.08a11.53 11.53 0 1 1 11.53-11.53 11.54 11.54 0 0 1 -11.53 11.53z" fill="#2ab18f"/><g fill="#302d3d"><path d="m46 54.89a3.15 3.15 0 0 0 -3.14-3.14h-20.33a3.15 3.15 0 0 0 -3.14 3.14v21.11a1 1 0 0 0 1 1h24.61a1 1 0 0 0 1-1zm-24.61 4.11h10.29v7h-10.29zm12.29 0h10.32v7h-10.32zm-12.29-4.11a1.14 1.14 0 0 1 1.14-1.14h20.29a1.14 1.14 0 0 1 1.18 1.14v2.11h-22.61zm0 13.13h10.29v7h-10.29zm12.29 7v-7.02h10.32v7z"/><path d="m58 72.2a3 3 0 1 0 3 3 3 3 0 0 0 -3-3zm0 4.08a1 1 0 1 1 1-1 1 1 0 0 1 -1 1z"/><path d="m36.72 80.07h-8.09a1 1 0 1 0 0 2h8.09a1 1 0 0 0 0-2z"/><path d="m84.69 64v-14.95l1.62 1.62a3.93 3.93 0 0 0 5.58 0l1.82-1.82a3.94 3.94 0 0 0 0-5.57l-42.06-42.07a4.18 4.18 0 0 0 -5.89 0l-17.76 17.79v-5.3a2.81 2.81 0 0 0 2.86-2.82v-3.17a2.82 2.82 0 0 0 -2.81-2.82h-16.19a2.83 2.83 0 0 0 -2.86 2.82v3.13a2.82 2.82 0 0 0 2.82 2.82c.1 0 .05-1.19.05 21.41l-8.17 8.21a3.94 3.94 0 0 0 0 5.57l1.82 1.82a4 4 0 0 0 5.58 0l.81-.81v29.07a7.33 7.33 0 0 0 -5.83 4.76 4.94 4.94 0 1 0 -1 9.78h65.54a16.44 16.44 0 1 0 14.07-29.47zm-73.69-53.16v-3.13a.82.82 0 0 1 .82-.82h16.2a.82.82 0 0 1 .81.82v3.13a.81.81 0 0 1 -.81.82h-16.16a.82.82 0 0 1 -.86-.82zm2.87 2.82h12.13v7.34l-12.09 12.07zm-4.19 35.6a1.94 1.94 0 0 1 -2.75 0l-1.82-1.82a2 2 0 0 1 0-2.75c66-66 31.91-31.9 42.07-42.06a2.16 2.16 0 0 1 3 0l42.11 42.06a1.94 1.94 0 0 1 0 2.75l-1.82 1.82a1.93 1.93 0 0 1 -2.74 0c-40-40-38.46-38.47-38.65-38.53a1 1 0 0 0 -1.08.21c0 .1-35.82 35.74-35.86 35.87zm-7.49 39.27a2.93 2.93 0 0 1 4.16-2.66 1 1 0 0 0 1.4-.72 5.27 5.27 0 0 1 4.16-4.15v10.47h-6.78a2.94 2.94 0 0 1 -2.94-2.94zm11.72 2.94v-43.61l34.79-34.79c21.15 21.13 12.6 12.59 34 34v16.37a16.17 16.17 0 0 0 -5.48-.19v-8.36a3.15 3.15 0 0 0 -3.14-3.14h-20.3a3.15 3.15 0 0 0 -3.14 3.14v36.58zm61.3-34.47h-22.57v-2.11a1.14 1.14 0 0 1 1.14-1.14h20.29a1.14 1.14 0 0 1 1.14 1.14zm-22.57 34.47v-32.47h22.57v4.63a16.46 16.46 0 0 0 -7.16 27.84zm18.58 0a14.45 14.45 0 1 1 22.6-11.92 14.45 14.45 0 0 1 -22.6 11.92z"/><path d="m75.76 79.77a4 4 0 1 0 -4-4 4 4 0 0 0 4 4zm-2-4a2 2 0 1 1 2 2 2 2 0 0 1 -2.01-2.01z"/><path d="m82.69 80.31a4 4 0 1 0 5.4 3.76 4 4 0 0 0 -5.4-3.76zm2 5.67a2 2 0 1 1 0-3.82 2 2 0 0 1 0 3.84z"/><path d="m85.46 73.76a1 1 0 1 0 -1.64-1.15c-8.32 11.85-7.82 11.11-9.44 13.46a1 1 0 0 0 .82 1.57.93.93 0 0 0 .81-.42z"/></g></g></svg>