<svg xmlns="http://www.w3.org/2000/svg" version="1.1" xmlns:xlink="http://www.w3.org/1999/xlink" width="512" height="512" x="0" y="0" viewBox="0 0 512 512" style="enable-background:new 0 0 512 512" xml:space="preserve" class=""><g><path d="M497 431.667H310.413L298.74 443.34a14.998 14.998 0 0 1-10.606 4.394h-64.268a14.996 14.996 0 0 1-10.606-4.394l-11.673-11.673H15c-8.284 0-15 6.716-15 15v18.2C0 491.204 21.39 512 47.134 512h417.732C491.204 512 512 490.61 512 464.867v-18.2c0-8.285-6.716-15-15-15zM303.134 21.213V66.4h45.186zM218.406 406.06l11.673 11.673h51.842l11.673-11.673a14.998 14.998 0 0 1 10.606-4.394h159.6V191.733c0-25.989-21.144-47.133-47.133-47.133h-17.134v177.8c0 24.813-20.187 45-45 45H157.467c-24.813 0-45-20.187-45-45V144.6H95.333c-25.989 0-47.133 21.144-47.133 47.133v209.933h159.6a15.002 15.002 0 0 1 10.606 4.394z" fill="#ff3221" opacity="1" data-original="#000000" class=""></path><path d="M157.467 337.4h197.066c8.284 0 15-6.716 15-15v-226h-81.399c-8.284 0-15-6.716-15-15V0H157.467c-8.284 0-15 6.716-15 15v307.4c0 8.284 6.715 15 15 15zm34.266-273.133h32.133c19.867.731 19.878 29.265 0 30h-32.133c-19.867-.732-19.878-29.265 0-30zm0 64.266h32.133c19.867.731 19.878 29.265 0 30h-32.133c-19.867-.731-19.878-29.264 0-30zm0 64.267h128.533c8.284 0 15 6.716 15 15s-6.716 15-15 15H191.733c-19.84-.719-19.903-29.256 0-30zm0 64.267h128.533c8.284 0 15 6.716 15 15s-6.716 15-15 15H191.733c-19.84-.719-19.903-29.256 0-30z" fill="#ff3221" opacity="1" data-original="#000000" class=""></path></g></svg>