<svg id="Icons" height="512" viewBox="0 0 60 60" width="512" xmlns="http://www.w3.org/2000/svg"><circle cx="30" cy="22.64" fill="#d1d4d1" r="3"/><path d="m59 53.64a2.005 2.005 0 0 1 -2 2h-54a2 2 0 0 1 0-4h1a26 26 0 0 1 52 0h1a2.006 2.006 0 0 1 2 2z" fill="#67b9cc"/><path d="m57 55.64h-54a2 2 0 0 1 0-4h54a2 2 0 0 1 0 4z" fill="#3b97d3"/><path d="m10.79 45.782a1 1 0 0 1 -.96-1.282 20.984 20.984 0 0 1 13.833-14.169 1 1 0 1 1 .606 1.906 18.989 18.989 0 0 0 -12.519 12.825 1 1 0 0 1 -.96.72z" fill="#ecf0f1"/><circle cx="30" cy="22.64" fill="#2980ba" r="3"/><g fill="#d1d4d1"><path d="m48.7 26.28a1 1 0 0 1 -.852-1.52 1 1 0 0 0 -.144-1.233l-.191-.2a2.972 2.972 0 0 1 .026-4.217l.144-.154a1.01 1.01 0 0 0 .317-.726c0-.391-.163-.577-.483-.905a2.99 2.99 0 0 1 .026-4.217l.144-.154a1 1 0 0 1 1.457 1.371l-.17.181a.975.975 0 0 0 -.027 1.422l.2.207a2.992 2.992 0 0 1 -.022 4.213l-.148.158a.975.975 0 0 0 -.027 1.422l.2.207a2.988 2.988 0 0 1 .415 3.666 1 1 0 0 1 -.865.479z"/><path d="m12.052 25.64a1 1 0 0 1 -.853-1.522 1 1 0 0 0 -.143-1.231l-.19-.2a2.975 2.975 0 0 1 .024-4.22l.146-.156a1 1 0 0 0 .02-1.425l-.19-.2a2.975 2.975 0 0 1 .024-4.22l.146-.156a1 1 0 1 1 1.453 1.376c-.318.336-.489.513-.489.9s.148.551.489.9a3.005 3.005 0 0 1 -.019 4.215l-.151.16a.974.974 0 0 0 -.023 1.421l.193.2a2.987 2.987 0 0 1 .417 3.669 1 1 0 0 1 -.854.489z"/><path d="m23.289 16.64a1 1 0 0 1 -.852-1.522 1 1 0 0 0 -.144-1.231l-.189-.2a2.974 2.974 0 0 1 .023-4.22l.146-.156a1 1 0 0 0 .02-1.425l-.189-.2a2.974 2.974 0 0 1 .023-4.22l.146-.156a1 1 0 1 1 1.454 1.376c-.319.336-.49.513-.49.9s.148.551.49.9a3.006 3.006 0 0 1 -.02 4.215l-.15.16a.975.975 0 0 0 -.024 1.421l.194.2a2.99 2.99 0 0 1 .417 3.669 1 1 0 0 1 -.855.489z"/><path d="m37.7 16.64a1 1 0 0 1 -.852-1.522 1 1 0 0 0 -.144-1.231l-.189-.2a2.974 2.974 0 0 1 .023-4.22l.146-.156a1 1 0 0 0 .02-1.425l-.189-.2a2.974 2.974 0 0 1 .023-4.22l.146-.156a1 1 0 1 1 1.454 1.376c-.319.336-.49.513-.49.9s.148.551.49.9a3.006 3.006 0 0 1 -.02 4.215l-.15.16a.975.975 0 0 0 -.024 1.421l.194.2a2.99 2.99 0 0 1 .417 3.669 1 1 0 0 1 -.855.489z"/></g></svg>