<svg xmlns="http://www.w3.org/2000/svg" version="1.1" xmlns:xlink="http://www.w3.org/1999/xlink" width="512" height="512" x="0" y="0" viewBox="0 0 64 64" style="enable-background:new 0 0 512 512" xml:space="preserve" class=""><g><path d="M57.576 52.132a1.89 1.89 0 0 0 .269-1.226L53.88 16.853a1.939 1.939 0 0 0-1.934-1.702h-4.02c-.017 0-.034-.008-.051 0h-.202v-2.285C47.91 6.26 40.51 1.136 35.108 5.8c-5.208-4.5-12.676.112-12.543 7.069v2.281h-3.23a1.933 1.933 0 0 0-1.926 1.789l-1.204 15.936H12a1 1 0 0 0-.695.281L6.45 37.851a1.756 1.756 0 0 0-.198.282 1.705 1.705 0 0 0-.113.44V59a1 1 0 0 0 1 1h29.195a1 1 0 0 0 1-1V55.43c.56-.012 8.452.942 8.739.654.134-.026.264-.058.401-.096l10-2.989a1.814 1.814 0 0 0 1.102-.866zm-10.9-34.981.381-.005 2.639 30.626-3.27 4.606-3.034-35.227zm4.347 32.203 3.49 2.144-6.358 1.9zm4.741.565-4.094-2.515-2.609-30.283 2.834-.036zM43.915 7.974c1.748 1.83 1.865 4.716 1.758 7.177H38.25c.134-2.71-.119-5.814-1.778-7.885a5.22 5.22 0 0 1 7.443.708zm-8.802.85c1.189 1.65 1.202 4.277 1.137 6.327h-2.265c-.051-2.065-.081-4.625 1.128-6.327zm-10.55 4.046c-.12-5.222 5.252-8.896 9.194-5.606a9.477 9.477 0 0 0-1.772 5.602v2.285h-7.421zm-12.16 22.005h5.822v2.695H9.617zm18.666 0 2.786 2.695h-8.608v-2.695zm-10.845 4.698h3.024v2.591h-3.024zm3.024-2.003h-3.024v-2.695h3.024zM35.334 58H8.139V39.574h10.086v3.59a1 1 0 0 0 1 1h5.022a1 1 0 0 0 1-1v-3.59h10.087zm1.977-19.537a1.067 1.067 0 0 0-.29-.612l-4.853-4.694a1 1 0 0 0-.695-.281c-3.473-.007-9.83.004-13.267 0l1.13-15.725h3.228v2.661a1 1 0 0 0 2 0v-2.661H36.25v2.661a1 1 0 0 0 1.999 0v-2.661h3.135l3.185 36.935-7.237-.666c-.021-.11.042-14.862-.022-14.957z" fill="#ffffff" opacity="1" data-original="#000000"></path><path d="M15.353 48.149h-4.805a1 1 0 0 0 0 2h4.805a1 1 0 0 0 0-2zM15.353 51.471h-4.805a1 1 0 0 0 0 2h4.805a1 1 0 0 0 0-2z" fill="#ffffff" opacity="1" data-original="#000000"></path></g></svg>