<svg height="512" viewBox="0 0 64 64" width="512" xmlns="http://www.w3.org/2000/svg"><g id="_22-Investment" data-name="22-Investment"><path d="m6 45h42v4h-42z" fill="#ef5350"/><path d="m48 45v4h-42v-2h34a2 2 0 0 0 2-2z" fill="#e53935"/><path d="m27 3a2.90031 2.90031 0 0 0 -1.7875.61631l-22.2125 17.38369 2.81 3.58 21.19-16.58 21.19 16.58 2.81-3.58-22.2125-17.38369a2.90031 2.90031 0 0 0 -1.7875-.61631z" fill="#ef5350"/><path d="m45 16.304v-13.304h-8v7.043z" fill="#757575"/><path d="m45 22.08v22.92h-36v-22.92l18-14.08z" fill="#eee"/><path d="m44.946 22.038-17.946-14.038-18 14.08v3.813l18-14.084 15 11.736v21.455h3v-22.92z" fill="#e0e0e0"/><path d="m29 27h11v9h-11z" fill="#64b5f6" transform="matrix(-1 0 0 -1 69 63)"/><path d="m40 27v9h-11v-3h4a4 4 0 0 0 4-4v-2z" fill="#42a5f5"/><path d="m14 27h10v18h-10z" fill="#757575"/><path d="m24 27v18h-10v-3h3a4 4 0 0 0 4-4v-11z" fill="#616161"/><circle cx="45" cy="45" fill="#ffd54f" r="16"/><path d="m61 45a16.00835 16.00835 0 0 1 -21.84 14.9c.61.06 1.22.1 1.84.1a16.00233 16.00233 0 0 0 5.84-30.9 16.00841 16.00841 0 0 1 14.16 15.9z" fill="#ffca28"/><circle cx="45" cy="45" fill="#ffb74d" r="12"/><path d="m48 56a11.99222 11.99222 0 0 1 -5.23822-22.78369 11.99485 11.99485 0 1 0 7.4765 22.56738 12.03524 12.03524 0 0 1 -2.23828.21631z" fill="#ffa726"/><path d="m45 44a2 2 0 1 1 2-2 1 1 0 0 0 2 0 3.99624 3.99624 0 0 0 -3-3.858v-1.142a1 1 0 0 0 -2 0v1.142a3.99155 3.99155 0 0 0 1 7.858 2 2 0 1 1 -2 2 1 1 0 0 0 -2 0 3.99624 3.99624 0 0 0 3 3.858v1.142a1 1 0 0 0 2 0v-1.142a3.99155 3.99155 0 0 0 -1-7.858z" fill="#eee"/><path d="m37 6.234v3.809l8 6.261v-3.809z" fill="#616161"/></g></svg>