<svg id="Layer_1" enable-background="new 0 0 100 100" viewBox="0 0 100 100" xmlns="http://www.w3.org/2000/svg"><g fill="#187498"><path d="m87.2997055 34.0969086h-74.5997419c-5.5998974 0-10.1999645 4.5998993-10.1999645 10.1999626v39.4998283c0 5.5998993 4.5999012 10.1999664 10.1999645 10.1999664h74.5997391c5.5998993 0 10.1999664-4.5998993 10.1999664-10.1999664l.0003309-39.5998306c0-5.5998955-4.5998993-10.0999641-10.1999664-10.0999641zm-37.2998657 12.8999405c1.9000778 0 3.400074 1.4999924 3.400074 3.4000702s-1.4999962 3.4000702-3.400074 3.4000702c-1.9000816 0-3.400074-1.4999924-3.400074-3.4000702s1.4999923-3.4000702 3.400074-3.4000702zm0 13.5999527c1.9000778 0 3.400074 1.4999962 3.400074 3.400074 0 1.9000816-1.4999962 3.400074-3.400074 3.400074-1.9000816 0-3.400074-1.4999924-3.400074-3.400074 0-1.9000779 1.4999923-3.400074 3.400074-3.400074zm-13.5999565-13.5999527c1.9000778 0 3.400074 1.4999924 3.400074 3.4000702s-1.4999962 3.4000702-3.400074 3.4000702c-1.900074 0-3.4000702-1.4999924-3.4000702-3.4000702s1.4999962-3.4000702 3.4000702-3.4000702zm0 13.5999527c1.9000778 0 3.400074 1.4999962 3.400074 3.400074 0 1.9000816-1.4999962 3.400074-3.400074 3.400074-1.900074 0-3.4000702-1.4999924-3.4000702-3.400074 0-1.9000779 1.4999962-3.400074 3.4000702-3.400074zm-13.4999523 20.3999252c-1.9000759 0-3.4000702-1.4999924-3.4000702-3.4000702s1.4999943-3.4000778 3.4000702-3.4000778 3.4000721 1.5 3.4000721 3.4000778c-.1002579 1.9000778-1.6002446 3.4000702-3.4000721 3.4000702zm0-13.5999527c-1.9000759 0-3.4000702-1.4999924-3.4000702-3.4000702 0-1.9000816 1.4999943-3.400074 3.4000702-3.400074s3.4000721 1.4999924 3.4000721 3.400074c0 1.9000778-1.6002446 3.4000702-3.4000721 3.4000702zm0-13.5999527c-1.9000759 0-3.4000702-1.4999924-3.4000702-3.4000702s1.4999943-3.4000702 3.4000702-3.4000702 3.4000721 1.4999924 3.4000721 3.4000702c-.1002579 1.9000778-1.6002446 3.4000702-3.4000721 3.4000702zm40.6998577 27.1999054h-27.1999054c-1.9000778 0-3.400074-1.4999924-3.400074-3.4000702s1.4999962-3.4000778 3.400074-3.4000778h27.0999107c1.9000778 0 3.4000702 1.5 3.4000702 3.4000778.0999374 1.9000778-1.4000778 3.4000702-3.3001518 3.4000702zm0-13.5999527c-1.9000778 0-3.400074-1.4999924-3.400074-3.4000702 0-1.9000816 1.4999962-3.400074 3.400074-3.400074 1.9000816 0 3.400074 1.4999924 3.400074 3.400074 0 1.9000778-1.4999924 3.4000702-3.400074 3.4000702zm0-13.5999527c-1.9000778 0-3.400074-1.4999924-3.400074-3.4000702s1.4999962-3.4000702 3.400074-3.4000702c1.9000816 0 3.400074 1.4999924 3.400074 3.4000702s-1.4999924 3.4000702-3.400074 3.4000702zm13.4999504 27.1999054c-1.9000778 0-3.4000702-1.4999924-3.4000702-3.4000702s1.4999924-3.4000778 3.4000702-3.4000778 3.4000778 1.5 3.4000778 3.4000778-1.5 3.4000702-3.4000778 3.4000702zm0-13.5999527c-1.9000778 0-3.4000702-1.4999924-3.4000702-3.4000702 0-1.9000816 1.4999924-3.400074 3.4000702-3.400074s3.4000778 1.4999924 3.4000778 3.400074c0 1.9000778-1.5 3.4000702-3.4000778 3.4000702zm0-13.5999527c-1.9000778 0-3.4000702-1.4999924-3.4000702-3.4000702s1.4999924-3.4000702 3.4000702-3.4000702 3.4000778 1.4999924 3.4000778 3.4000702-1.5 3.4000702-3.4000778 3.4000702z"/><path d="m80.3916016 39.3470802h-4v-8.9526367c0-3.6201172 2.9443359-6.5649414 6.5644531-6.5649414h6.5224609c1.4150391 0 2.5654297-1.1508789 2.5654297-2.5654297s-1.1503906-2.5649414-2.5654297-2.5649414h-24.7138672c-3.6201172 0-6.5644531-2.9453125-6.5644531-6.5654287v-6.1303716h4v6.1303716c0 1.4145508 1.1503906 2.5654287 2.5644531 2.5654287h24.7138672c3.6201172 0 6.5654297 2.9448242 6.5654297 6.5649414s-2.9453125 6.5654297-6.5654297 6.5654297h-6.5224609c-1.4140625 0-2.5644531 1.1503906-2.5644531 2.5649414z"/></g></svg>