<svg xmlns="http://www.w3.org/2000/svg" version="1.1" xmlns:xlink="http://www.w3.org/1999/xlink" width="512" height="512" x="0" y="0" viewBox="0 0 512 512" style="enable-background:new 0 0 512 512" xml:space="preserve" class=""><g><path fill-rule="evenodd" d="M341.87 380.047c3.612 17.486 10.762 33.113 20.709 47.794H149.421c9.947-14.681 17.097-30.308 20.709-47.794zM176.722 194.081c-6.749 4.891-16.185 3.384-21.075-3.365-4.891-6.749-3.384-16.185 3.365-21.076l88.133-64.033c5.512-3.994 12.815-3.72 17.972.19l87.871 63.843c6.749 4.891 8.256 14.327 3.365 21.076s-14.326 8.256-21.076 3.365l-9.145-6.644v83.026c0 11.869-9.711 21.58-21.579 21.58h-27.636v-71.829c0-5.583-4.568-10.151-10.151-10.151h-21.533c-5.583 0-10.151 4.568-10.151 10.151v71.829h-27.636c-11.869 0-21.58-9.711-21.58-21.58v-83.026zm-61.361 249.76H396.64c10.293 0 18.712 8.42 18.712 18.712v18.714H96.648v-18.714c0-10.292 8.42-18.712 18.713-18.712zM0 46.217v302.346c0 8.528 6.956 15.484 15.484 15.484h481.033c8.528 0 15.484-6.956 15.484-15.484V46.217c0-8.528-6.955-15.484-15.484-15.484H15.484C6.956 30.733 0 37.689 0 46.217zm479.512 17.004H32.489v268.337h447.023z" clip-rule="evenodd" fill="#ff3221" opacity="1" data-original="#000000" class=""></path></g></svg>