<svg enable-background="new 0 0 492 492" height="512" viewBox="0 0 492 492" width="512" xmlns="http://www.w3.org/2000/svg"><g id="Layer_1"><path clip-rule="evenodd" d="m61.94.98h368.64c33.792 0 61.44 27.648 61.44 61.44v368.64c0 33.792-27.648 61.44-61.44 61.44h-368.64c-33.792 0-61.44-27.648-61.44-61.44v-368.64c0-33.792 27.648-61.44 61.44-61.44z" fill="#00acc1" fill-rule="evenodd"/><g><g fill="#fffffe"><path d="m331.867 239.711-85.607-38.087-85.607 38.087v21.751c0 51.128 30.372 100.892 85.607 140.384 55.235-39.492 85.607-89.256 85.607-140.384zm-44.596 34.838-48.374 48.374c-.793.79-1.828 1.187-2.864 1.187-1.038 0-2.074-.397-2.866-1.187l-22.796-22.797c-1.582-1.582-1.582-4.147 0-5.727 1.582-1.582 4.147-1.582 5.729 0l19.934 19.931 45.508-45.508c1.582-1.582 4.147-1.582 5.729 0 1.582 1.58 1.582 4.145 0 5.727z"/><path d="m152.551 237.079c0-1.6.942-3.051 2.405-3.702l89.658-39.887c1.048-.466 2.243-.466 3.291 0l89.658 39.887c1.464.651 2.405 2.101 2.405 3.702v24.384c0 26.544-7.682 52.67-22.356 77.26h112.968v-201.995l-368.639-.149v202.144h112.966c-14.675-24.59-22.357-50.716-22.357-77.26z"/><path d="m430.58 101.234h-368.64v27.243l368.639.149zm-353.658 18.948c-2.798 0-5.064-2.268-5.064-5.064 0-2.798 2.266-5.064 5.064-5.064s5.064 2.266 5.064 5.064c-.001 2.796-2.267 5.064-5.064 5.064zm16.457.122c-2.798 0-5.064-2.269-5.064-5.064 0-2.798 2.266-5.064 5.064-5.064s5.064 2.266 5.064 5.064c-.001 2.795-2.267 5.064-5.064 5.064zm16.457-.122c-2.798 0-5.064-2.268-5.064-5.064 0-2.798 2.266-5.064 5.064-5.064s5.064 2.266 5.064 5.064c-.001 2.796-2.267 5.064-5.064 5.064z"/></g></g></g></svg>