<svg xmlns="http://www.w3.org/2000/svg" version="1.1" xmlns:xlink="http://www.w3.org/1999/xlink" width="512" height="512" x="0" y="0" viewBox="0 0 512 512" style="enable-background:new 0 0 512 512" xml:space="preserve" class=""><g><path d="M506.568 478.57v-21.483a8 8 0 0 0-8-8h-20.712V197.376a33.468 33.468 0 0 0-33.43-33.43H384.9V8a8 8 0 0 0-8-8H218.941a8 8 0 0 0-5.841 2.532L119.693 102.3a8 8 0 0 0-2.16 5.468v56.179H67.574a33.468 33.468 0 0 0-33.43 33.43v251.71H13.432a8 8 0 0 0-8 8v21.483A33.468 33.468 0 0 0 38.862 512h434.276a33.468 33.468 0 0 0 33.43-33.43zm-69.64-126.794a68.806 68.806 0 1 1-68.806-68.806 68.884 68.884 0 0 1 68.806 68.806zM368.9 266.99c-.261 0-.52-.02-.782-.02a84.891 84.891 0 0 0-84.74 82.211H133.533V115.766h83.941a8 8 0 0 0 8-8V16H368.9zM143.983 99.766l65.491-69.949v69.949zm-93.839 97.61a17.45 17.45 0 0 1 17.43-17.43h49.959v177.235a8 8 0 0 0 8 8h158.853A84.8 84.8 0 1 0 384.9 268.645v-88.7h59.522a17.45 17.45 0 0 1 17.43 17.43v251.712H50.144zm163.062 267.711h85.588v9.29h-85.588zM21.432 478.57v-13.483h175.774v11.25a14.056 14.056 0 0 0 14.04 14.04h89.508a14.056 14.056 0 0 0 14.04-14.04v-11.25h175.774v13.483a17.45 17.45 0 0 1-17.43 17.43H38.862a17.45 17.45 0 0 1-17.43-17.43zm294.1-341.392a8 8 0 0 1 0 16H186.908a8 8 0 0 1 0-16zm8 59.839a8 8 0 0 1-8 8h-58.3a7.278 7.278 0 0 1-2.452 0h-67.872a8 8 0 1 1 0-16h128.62a8 8 0 0 1 8 8zm0 51.839a8 8 0 0 1-8 8H186.908a8 8 0 0 1 0-16h128.62a8 8 0 0 1 8 8zm28.506 111.532 46.61-32.666a8 8 0 0 1 9.183 13.1l-54.36 38.1a8 8 0 0 1-11.817-3.115l-15.866-33.361a8 8 0 1 1 14.449-6.872z" fill="#ffffff" opacity="1" data-original="#000000"></path></g></svg>