<svg height="512" viewBox="0 0 64 64" width="512" xmlns="http://www.w3.org/2000/svg"><g id="security"><path d="m56 9.8-24-5.8-24 5.8v28c0 7.722 24 22.2 24 22.2s24-14.478 24-22.2z" fill="#a9dbf5" fill-rule="evenodd"/><path d="m56 16v-6.205l-24-5.795-24 5.795v6.205l24-6z" fill="#43809f" fill-rule="evenodd"/><circle cx="32" cy="32" fill="#ffc328" r="14"/><path d="m35.791 19.562c.135.209.266.429.393.662a15.786 15.786 0 0 1 1.153 2.776h4.04a13.006 13.006 0 0 0 -5.586-3.438zm-3.791-.562a1.78 1.78 0 0 1 1.129.483 5.826 5.826 0 0 1 1.3 1.7 12.958 12.958 0 0 1 .8 1.818h-6.461a12.958 12.958 0 0 1 .8-1.818 5.826 5.826 0 0 1 1.3-1.7 1.78 1.78 0 0 1 1.132-.483zm-3.791.562a13.009 13.009 0 0 0 -5.586 3.438h4.04a15.786 15.786 0 0 1 1.153-2.776c.127-.233.258-.453.393-.662zm14.745 5.438h-5.082a31.951 31.951 0 0 1 .714 6h6.376a12.922 12.922 0 0 0 -2.008-6zm-7.128 0a29.371 29.371 0 0 1 .76 6h-9.172a29.371 29.371 0 0 1 .76-6zm-9.7 0h-5.08a12.911 12.911 0 0 0 -2.008 6h6.376a31.951 31.951 0 0 1 .714-6zm18.834 8h-6.374a31.951 31.951 0 0 1 -.714 6h5.082a12.911 12.911 0 0 0 2.008-6zm-8.376 0a29.371 29.371 0 0 1 -.76 6h-7.65a29.371 29.371 0 0 1 -.76-6zm-11.17 0h-6.376a12.922 12.922 0 0 0 2.008 6h5.082a31.951 31.951 0 0 1 -.714-6zm1.249 8h-4.04a13.006 13.006 0 0 0 5.586 3.438c-.135-.209-.266-.429-.393-.662a15.786 15.786 0 0 1 -1.153-2.776zm14.714 0h-4.04a15.786 15.786 0 0 1 -1.153 2.776c-.127.233-.258.453-.393.662a13.009 13.009 0 0 0 5.586-3.438zm-6.145 0a12.958 12.958 0 0 1 -.8 1.818 5.826 5.826 0 0 1 -1.3 1.7 1.561 1.561 0 0 1 -2.258 0 5.826 5.826 0 0 1 -1.3-1.7 12.958 12.958 0 0 1 -.8-1.818zm-3.232 6a15 15 0 1 0 -15-15 15.007 15.007 0 0 0 15 15z" fill="#f78e36" fill-rule="evenodd"/></g></svg>