<svg xmlns="http://www.w3.org/2000/svg" version="1.1" xmlns:xlink="http://www.w3.org/1999/xlink" width="512" height="512" x="0" y="0" viewBox="0 0 512 512" style="enable-background:new 0 0 512 512" xml:space="preserve" class=""><g><path fill-rule="evenodd" d="M161.834 369.087c-12.89-12.89-33.793-12.89-46.683 0s-12.89 33.793 0 46.683 33.793 12.89 46.683 0 12.89-33.793 0-46.683zm-23.342-22.444c25.285 0 45.785 20.5 45.785 45.785s-20.5 45.785-45.785 45.785-45.785-20.501-45.785-45.785 20.501-45.785 45.785-45.785zm13.071 27.769a6.361 6.361 0 0 1 9.782 8.134l-23.251 27.899c-2.6 3.123-7.331 2.997-9.856-.089l-12.599-15.117a6.361 6.361 0 0 1 9.782-8.134l7.783 9.338 18.36-22.03zm10.271-141.753c-12.89-12.89-33.793-12.89-46.683 0s-12.89 33.793 0 46.683 33.793 12.89 46.683 0 12.89-33.793 0-46.683zm-23.342-22.444c25.285 0 45.785 20.5 45.785 45.785s-20.5 45.785-45.785 45.785S92.707 281.284 92.707 256s20.5-45.785 45.785-45.785zm13.071 27.769a6.361 6.361 0 0 1 9.782 8.134l-23.251 27.899c-2.6 3.123-7.331 2.997-9.856-.089l-12.599-15.117a6.361 6.361 0 0 1 9.782-8.134l7.783 9.338 18.36-22.03zM161.834 96.23c-12.89-12.89-33.793-12.89-46.683 0s-12.89 33.793 0 46.683 33.793 12.89 46.683 0 12.89-33.793 0-46.683zm-23.342-22.444c25.285 0 45.785 20.5 45.785 45.785s-20.5 45.785-45.785 45.785-45.785-20.501-45.785-45.785 20.501-45.785 45.785-45.785zm13.071 27.769a6.361 6.361 0 0 1 9.782 8.134l-23.251 27.899c-2.6 3.123-7.331 2.997-9.856-.089l-12.599-15.117a6.361 6.361 0 0 1 9.782-8.134l7.783 9.338 18.36-22.03zm202.6 252.475 1.298 41.431 23.534-34.085-24.831-7.346zM419.7 123.934l29.485 8.723 9.256-31.284c.521-1.762-.348-3.713-1.998-4.202l-23.501-6.953c-1.709-.506-3.47.689-3.978 2.408l-9.263 31.307zm-5.58 18.86 29.485 8.723 1.965-6.64-29.485-8.724-1.965 6.64zm-58.678 198.325 29.485 8.724 55.062-186.105-29.485-8.724c-18.355 62.034-36.708 124.071-55.062 186.106zm30.888-252.97L335.991 37.81v41.438c0 4.882 4.018 8.901 8.901 8.901zm-52.167-70.233c7.023 7.023 71.909 71.664 72.818 72.953a6.373 6.373 0 0 1 1.158 3.667v23.555l8.603-29.078c2.53-8.532 11.568-13.568 19.8-11.019l23.493 6.951c8.52 2.521 13.121 11.605 10.632 20.021l-62.528 211.337v155.056c0 13.578-11.06 24.639-24.639 24.639H65.298c-13.578 0-24.639-11.06-24.639-24.639V40.64c0-13.578 11.06-24.639 24.639-24.639h264.306c1.73.011 3.35.677 4.56 1.915zm-129.905 85.465h95.101a6.388 6.388 0 1 0 0-12.776h-95.101a6.388 6.388 0 1 0 0 12.776zm0 45.157h145.445a6.388 6.388 0 1 0 0-12.776H204.258a6.388 6.388 0 1 0 0 12.776zm0 91.272h123.071a6.388 6.388 0 1 0 0-12.776H204.258a6.388 6.388 0 1 0 0 12.776zm55.789 45.157a6.388 6.388 0 1 1 0-12.776h89.656a6.388 6.388 0 1 1 0 12.776zm-55.789 0h29.108a6.388 6.388 0 1 0 0-12.776h-29.108a6.388 6.388 0 1 0 0 12.776zm93.892 91.272h16.53a6.388 6.388 0 1 0 0-12.776h-16.53a6.388 6.388 0 1 0 0 12.776zm-93.892 0h66.525a6.388 6.388 0 1 0 0-12.776h-66.525a6.388 6.388 0 1 0 0 12.776zm0 45.157h145.445a6.384 6.384 0 0 0 5.535-3.198l39.082-56.605 1.042-2.107V471.36c0 6.526-5.337 11.863-11.863 11.863H65.298c-6.526 0-11.863-5.337-11.863-11.863V40.64c0-6.525 5.337-11.863 11.863-11.863h257.918v50.471c0 11.935 9.741 21.677 21.676 21.677h50.471v60.348l-53.952 182.352a6.361 6.361 0 0 0-.24 2.293l1.964 62.7H204.26a6.388 6.388 0 1 0 0 12.776z" fill="#ffffff" opacity="1" data-original="#000000"></path></g></svg>