<svg id="Layer_1" enable-background="new 0 0 512 512" viewBox="0 0 512 512" xmlns="http://www.w3.org/2000/svg"><g clip-rule="evenodd" fill-rule="evenodd"><path d="m64.05 244.45c0 4.418-3.582 8-8 8s-8-3.582-8-8c0-57.351 23.247-109.275 60.832-146.86s89.508-60.832 146.86-60.832c4.418 0 8 3.582 8 8s-3.582 8-8 8c-52.935 0-100.858 21.456-135.547 56.145s-56.145 82.612-56.145 135.547z" fill="#ffda2d"/><g><circle cx="255.742" cy="244.45" fill="#64b5f6" r="149.465"/><path d="m354.988 132.704c30.804 27.378 50.219 67.292 50.219 111.746 0 82.547-66.918 149.465-149.465 149.465-44.454 0-84.368-19.414-111.746-50.219 26.396 23.461 61.154 37.719 99.246 37.719 82.548 0 149.465-66.917 149.465-149.465 0-38.093-14.258-72.85-37.719-99.246z" fill="#42a5f5"/><path d="m377.94 158.361c-83.549-9.482-91.176 16.164-73.711 40.474 16.449 22.894 32.459 17.345 41.163 37.864 11.739 27.673-55.934 36.082 20.767 108.49 24.255-26.57 39.048-61.927 39.048-100.738 0-32.055-10.09-61.752-27.267-86.09zm-139.018 10.437c-24.82 26.193-52.057 19.182-54.451 18.878-15.796-2.004-30.559 7.001-21.07 22.259 10.193 16.393 16.37 18.488 29.018 13.593 23.3-9.018 20.524 6.96 46.154 9.418 12.156 1.165 16.589 14.146 25.248 25.945 28.805 39.25-19.402 9.288-19.211 51.153-5.402 24.42-12.317 14.968-16.187 34.406-1.584 6.329-10.037 11.694-15.19 6.005-11.323-11.037-.463-26.36-20.026-49.804-13.568-17.566 2.229-30.243-16.691-41.18-36.86-21.307-30.579-42.151-68.614-37.139 7.651-51.582 41.656-94.57 87.886-114.837 27.699 1.224 66.525 32.734 43.134 61.303z" fill="#30aa44"/><path d="m377.94 158.361c-1.657-.188-3.274-.358-4.872-.518 12.495 21.843 19.64 47.14 19.64 74.107 0 38.79-14.778 74.127-39.01 100.692 3.654 3.958 7.785 8.131 12.462 12.546 24.255-26.57 39.048-61.927 39.048-100.738-.001-32.054-10.091-61.751-27.268-86.089z" fill="#239b31"/></g><g><path d="m71.861 298.913c0-4.418 3.582-8 8-8s8 3.582 8 8v65.395c0 4.418-3.582 8-8 8s-8-3.582-8-8z" fill="#b4d2d7"/><path d="m66.454 323.3h26.814c1.646 0 2.993 1.347 2.993 2.993v42.055c0 1.646-1.347 2.993-2.993 2.993h-26.814c-1.646 0-2.993-1.347-2.993-2.993v-42.055c-.001-1.645 1.346-2.993 2.993-2.993z" fill="#b4d2d7"/><path d="m66.454 323.3h26.814c1.646 0 2.993 1.347 2.993 2.993v42.055c0 1.646-1.347 2.993-2.993 2.993h-3.878v-38.871c0-1.646-1.347-2.993-2.993-2.993h-22.937v-3.183c0-1.646 1.347-2.994 2.994-2.994z" fill="#9bb9c3"/><path d="m56.278 348.232h47.164c2.411 0 4.384 1.973 4.384 4.384v39.272c0 2.412-1.973 4.384-4.384 4.384h-47.164c-2.411 0-4.384-1.973-4.384-4.384v-39.272c0-2.411 1.973-4.384 4.384-4.384z" fill="#465759"/><path d="m56.278 348.232h47.164c2.411 0 4.384 1.973 4.384 4.384v39.272c0 2.412-1.973 4.384-4.384 4.384h-5.616v-33.657c0-2.411-1.973-4.384-4.384-4.384h-41.548v-5.616c0-2.41 1.973-4.383 4.384-4.383z" fill="#3a484a"/><path d="m33.129 378.291h140.593l16.676-21.445h49.342l-29.605 95.446h-154.06z" fill="#8d9ca8"/><path d="m33.129 378.291h140.593l-5.708 7.341h-132.609zm151.561-14.104 5.708-7.341h49.342l-29.605 95.446h-10.506l27.328-88.105z" fill="#7a8c98"/><path d="m263.87 437.598v37.643c-16.79 0-15.069-16.369-31.859-16.369s-15.069 16.369-31.859 16.369-15.069-16.369-31.859-16.369-15.069 16.369-31.859 16.369-15.069-16.369-31.859-16.369-15.069 16.369-31.859 16.369-15.069-16.369-31.859-16.369c-16.789 0-15.069 16.369-31.859 16.369 0 0 0-12.548 0-37.643 16.79 0 15.069-16.369 31.859-16.369s15.069 16.369 31.859 16.369 15.069-16.369 31.859-16.369 15.069 16.369 31.859 16.369 15.069-16.369 31.859-16.369 15.069 16.369 31.859 16.369 15.069-16.369 31.859-16.369 15.069 16.369 31.859 16.369z" fill="#64b5f6"/><path d="m263.87 437.598v20c-16.79 0-15.069-16.369-31.859-16.369s-15.069 16.369-31.859 16.369-15.069-16.369-31.859-16.369-15.069 16.369-31.859 16.369-15.069-16.369-31.859-16.369-15.069 16.369-31.859 16.369-15.069-16.369-31.859-16.369c-16.789 0-15.069 16.369-31.859 16.369v-20c16.79 0 15.069-16.369 31.859-16.369s15.069 16.369 31.859 16.369 15.069-16.369 31.859-16.369 15.069 16.369 31.859 16.369 15.069-16.369 31.859-16.369 15.069 16.369 31.859 16.369 15.069-16.369 31.859-16.369 15.069 16.369 31.859 16.369z" fill="#42a5f5"/></g><g><path d="m462.232 458.771-152.931.001c-4.439 0-8.07-3.631-8.07-8.07v-106.459c0-4.439 3.631-8.07 8.07-8.07h117.428c4.439 0 8.07 3.631 8.07 8.07v11.87h26.872c3.595 0 6.691 1.364 9.117 4.018l28.976 31.693c2.165 2.368 3.236 5.128 3.236 8.336v50.54c0 4.445-3.626 8.07-8.071 8.07h-32.697z" fill="#8d9ca8"/><path d="m425.008 426.609h9.792v32.162h-9.792z" fill="#7a8c98"/><path d="m434.799 431.906h-133.568v-87.662c0-4.439 3.631-8.07 8.07-8.07h117.428c4.439 0 8.07 3.631 8.07 8.07z" fill="#da8c36"/><path d="m434.799 431.906h-9.791v-87.662c0-4.439-3.631-8.07-8.07-8.07h9.792c4.439 0 8.07 3.631 8.07 8.07v87.662z" fill="#c97629"/><path d="m434.799 356.114v75.792 26.865h27.432 32.698c4.445 0 8.071-3.626 8.071-8.07v-50.54c0-3.208-1.072-5.968-3.236-8.336l-28.976-31.693c-2.426-2.654-5.522-4.018-9.117-4.018z" fill="#ffda2d"/><path d="m434.799 356.114v75.792 26.865h27.432 32.698c3.778 0 6.963-2.619 7.835-6.134-.561.124-1.144.19-1.741.19h-32.698-27.433v-26.865-69.848z" fill="#ffc700"/><path d="m493.72 405.353v-5.192c0-.887-.206-1.419-.805-2.073l-28.976-31.694c-.666-.728-1.281-.999-2.268-.999h-16.363v39.959z" fill="#e6f8ff"/><path d="m493.72 405.353v-5.192c0-.887-.206-1.419-.805-2.073l-28.976-31.694c-.666-.728-1.28-.999-2.268-.999h-16.363v4.896h11.467c.987 0 1.602.27 2.268.999l28.976 31.693c.599.654.805 1.187.805 2.073v.297z" fill="#d0f1ff"/><path d="m503.001 431.3v12.505h-7.682c-1.572 0-2.853-1.282-2.853-2.853v-6.799c0-1.571 1.281-2.853 2.853-2.853z" fill="#fdb800"/><path d="m503.001 431.3v1.87h-5.615c-1.572 0-2.853 1.282-2.853 2.853v6.799c0 .318.053.625.15.911-1.267-.291-2.216-1.428-2.216-2.781v-6.799c0-1.571 1.281-2.853 2.853-2.853z" fill="#f4a40e"/><path d="m456.265 414.144c2.163 0 3.916 1.753 3.916 3.917 0 2.163-1.753 3.916-3.916 3.916h-7.04c-2.163 0-3.917-1.754-3.917-3.916 0-2.163 1.754-3.917 3.917-3.917z" fill="#fdb800"/><path d="m465.867 442.299c9.097 0 16.471 7.375 16.471 16.471 0 9.097-7.374 16.471-16.471 16.471s-16.471-7.374-16.471-16.471c0-9.096 7.375-16.471 16.471-16.471zm-89.733 0c9.097 0 16.471 7.374 16.471 16.471s-7.374 16.471-16.471 16.471-16.471-7.374-16.471-16.471c0-9.096 7.374-16.471 16.471-16.471zm-42.37 0c9.097 0 16.471 7.374 16.471 16.471s-7.374 16.471-16.471 16.471-16.471-7.374-16.471-16.471c0-9.096 7.374-16.471 16.471-16.471z" fill="#465759"/><path d="m475.488 445.401c4.149 2.991 6.85 7.864 6.85 13.369 0 9.097-7.374 16.471-16.471 16.471-5.424 0-10.236-2.623-13.237-6.669 2.707 1.951 6.029 3.101 9.621 3.101 9.097 0 16.471-7.374 16.471-16.471 0-3.67-1.202-7.061-3.234-9.801zm-89.733 0c4.149 2.991 6.85 7.864 6.85 13.37 0 9.097-7.374 16.471-16.471 16.471-5.424 0-10.236-2.623-13.237-6.669 2.707 1.951 6.029 3.101 9.621 3.101 9.097 0 16.471-7.374 16.471-16.471 0-3.672-1.202-7.063-3.234-9.802zm-42.37 0c4.149 2.991 6.85 7.864 6.85 13.37 0 9.097-7.374 16.471-16.471 16.471-5.424 0-10.236-2.623-13.237-6.669 2.707 1.951 6.029 3.101 9.621 3.101 9.097 0 16.471-7.374 16.471-16.471 0-3.672-1.202-7.063-3.234-9.802z" fill="#3a484a"/><path d="m376.134 452.388c-3.528 0-6.383 2.855-6.383 6.383s2.854 6.383 6.383 6.383 6.383-2.854 6.383-6.383-2.854-6.383-6.383-6.383zm89.733 0c-3.528 0-6.383 2.855-6.383 6.383s2.855 6.383 6.383 6.383c3.529 0 6.383-2.854 6.383-6.383s-2.854-6.383-6.383-6.383zm-132.103 0c-3.529 0-6.383 2.855-6.383 6.383s2.854 6.383 6.383 6.383 6.383-2.854 6.383-6.383-2.855-6.383-6.383-6.383z" fill="#b4d2d7"/><path d="m376.134 452.388c-3.528 0-6.383 2.855-6.383 6.383 0 2.195 1.105 4.13 2.79 5.278-.781-1.059-1.243-2.368-1.243-3.787 0-3.528 2.854-6.383 6.383-6.383 1.333 0 2.57.408 3.593 1.105-1.162-1.575-3.03-2.596-5.14-2.596zm89.733 0c-3.528 0-6.383 2.855-6.383 6.383 0 2.195 1.105 4.13 2.79 5.278-.781-1.059-1.243-2.368-1.243-3.787 0-3.528 2.854-6.383 6.383-6.383 1.333 0 2.569.408 3.592 1.105-1.16-1.575-3.029-2.596-5.139-2.596zm-132.103 0c-3.529 0-6.383 2.855-6.383 6.383 0 2.195 1.105 4.13 2.79 5.278-.781-1.059-1.243-2.368-1.243-3.787 0-3.528 2.854-6.383 6.383-6.383 1.333 0 2.57.408 3.593 1.105-1.162-1.575-3.03-2.596-5.14-2.596z" fill="#9bb9c3"/></g><g><path d="m310.126 165.577-12.033-20.842c-3.237-5.607-10.474-7.546-16.081-4.309-5.607 3.238-7.546 10.474-4.309 16.081l16.171 28.009zm105.757-61.059-12.033-20.842c-3.238-5.607-1.298-12.843 4.309-16.081s12.844-1.299 16.081 4.309l16.171 28.009z" fill="#b4d2d7"/><path d="m310.126 165.577-12.033-20.842c-3.237-5.607-10.474-7.546-16.081-4.309-3.027 1.748-4.984 4.66-5.636 7.853.561-.489 1.176-.931 1.843-1.317 5.608-3.238 12.844-1.299 16.081 4.309l11.303 19.577zm92.397-90.13c.652-3.192 2.609-6.105 5.636-7.852 5.607-3.238 12.844-1.299 16.081 4.309l16.171 28.009-6.826 1.282-13.137-22.755c-3.237-5.607-10.474-7.546-16.081-4.309-.669.385-1.283.827-1.844 1.316z" fill="#9bb9c3"/><path d="m317.348 55.966c-9.81 5.664-13.202 18.323-7.538 28.132l16.812 29.12-55.846 86.484 79.333-45.803 39.404 68.249-19.592 33.934 13.374 23.165 33.968-50.223 60.478-4.305-13.374-23.165h-39.184l-39.404-68.249 79.333-45.803-102.82 5.122-16.813-29.12c-5.664-9.809-18.323-13.201-28.131-7.538z" fill="#ffda2d"/><path d="m317.347 55.966c-9.809 5.663-13.201 18.323-7.538 28.132l16.812 29.12-55.846 86.484 11.067-6.39 55.846-86.484-16.812-29.12c-4.549-7.879-3.254-17.597 2.515-24.052-2.074.434-4.115 1.196-6.044 2.31zm32.762 97.933 39.404 68.249-19.592 33.934 13.374 23.165 7.96-11.77-10.268-17.784 19.592-33.934-39.404-68.249zm67.153 75.125 60.478-4.305-3.106-5.381-53.391 3.801z" fill="#ffc700"/></g></g></svg>