<svg id="Capa_1" enable-background="new 0 0 512 512" viewBox="0 0 512 512" xmlns="http://www.w3.org/2000/svg"><g><g><g><g><path d="m83.852 348.96c0-36.169 29.426-65.595 65.595-65.595h213.105c36.169 0 65.595 29.426 65.595 65.595v59.57c35.84-40.524 57.606-93.785 57.606-152.138 0-126.89-102.865-229.754-229.754-229.754s-229.753 102.865-229.753 229.754c0 58.353 21.766 111.614 57.606 152.138z" fill="#d8ecfe"/></g><g><path d="m415.546 310.366c7.915 10.838 12.602 24.176 12.602 38.594v59.57c35.84-40.524 57.606-93.785 57.606-152.138 0-82.17-43.146-154.252-108.008-194.863 36.423 40.657 58.583 94.357 58.583 153.239 0 34.116-7.445 66.488-20.783 95.598z" fill="#c4e2ff"/></g><g><g><path d="m289.6 277.214c0 3.408 2.773 6.181 6.181 6.181h45.462v-91.6h-2.094c-4.58 28.693-23.704 52.593-49.549 63.887z" fill="#c57a44"/></g><g><path d="m222.4 277.214v-21.531c-25.845-11.294-44.969-35.194-49.548-63.887h-2.094v91.6h45.461c3.409-.001 6.181-2.774 6.181-6.182z" fill="#d88a55"/></g></g><path d="m362.553 282.365h-22.643l-1 1v2.996c0 45.717-37.193 82.91-82.91 82.91v1l-.978-1.025c-45.266-.529-81.932-37.497-81.932-82.885v-2.948l-1-1.048h-22.642c-36.78 0-66.595 29.816-66.595 66.595v58.443c8.587 9.837 18.003 18.931 28.132 27.182 3.842 3.129 6.016 7.861 5.776 12.81l-2.602 53.586c-.414 8.524 8.982 13.949 16.157 9.328l48.811-31.433c3.782-2.435 8.428-3.075 12.748-1.821 20.353 5.91 41.867 9.091 64.127 9.091 69.079 0 131.031-30.492 173.148-78.744v-58.442c-.002-36.78-29.818-66.595-66.597-66.595z" fill="#fe5694"/><g><path d="m290.63 277.214v-22.006c-10.571 4.79-22.289 7.48-34.63 7.48s-24.058-2.69-34.63-7.481v22.006c0 2.845-2.306 5.151-5.151 5.151h-44.13v3.996c0 46.342 37.568 83.91 83.91 83.91 46.342 0 83.91-37.568 83.91-83.91v-3.996h-44.13c-2.843.001-5.149-2.305-5.149-5.15z" fill="#ffb09e"/></g><g><path d="m139.419 118.238h32.37v-14.35c0-36.152 29.412-65.565 65.565-65.565h37.294c36.153 0 65.565 29.412 65.565 65.565v14.35h32.369c2.045 0 4.035.231 5.954.655v-15.005c0-57.284-46.605-103.888-103.889-103.888h-37.293c-57.284 0-103.889 46.604-103.889 103.889v15.005c1.918-.425 3.909-.656 5.954-.656z" fill="#685e68"/></g><g><g><path d="m293.544 1.728c5.912 9.947 9.318 21.559 9.318 33.971v9.018c22.069 10.566 37.35 33.117 37.35 59.173v14.35h32.369c2.045 0 4.035.231 5.954.655v-15.005c.001-50.833-36.698-93.251-84.991-102.162z" fill="#554e56"/></g></g><path d="m372.582 117.208h-32.369v61.268c0 4.532-.371 8.979-1.064 13.319h30.555l1.266 1h1.612c3.855 0 7.589-.728 11.122-2.167l1-1.529s0 0-.001 0c9.732-4.562 16.475-14.442 16.475-25.901v-17.394c0-15.793-12.803-28.596-28.596-28.596z" fill="#433f43"/><g><g><path d="m171.788 178.476v-61.268h-32.37c-15.793 0-28.596 12.803-28.596 28.596v17.394c0 15.793 12.803 28.596 28.596 28.596h33.434c-.693-4.34-1.064-8.786-1.064-13.318z" fill="#7a6d79"/></g><g><path d="m339.255 112.182h-36.041c-5.136 0-9.922-2.763-12.49-7.211l-8.996-15.582c-.908-1.573-2.536-2.513-4.353-2.513s-3.444.94-4.353 2.513l-8.996 15.582c-2.567 4.448-7.354 7.211-12.49 7.211h-77.384l-3.394 1.03v65.264c0 47.078 38.164 85.242 85.242 85.242 47.078 0 85.242-38.164 85.242-85.242v-65.264z" fill="#ffdfcf"/></g><g><path d="m339.255 112.182h-36.041c-.118 0-.234-.009-.351-.012v58.588c0 46.143-36.669 83.697-82.453 85.172 10.834 4.987 22.882 7.788 35.591 7.788 47.078 0 85.242-38.164 85.242-85.242v-65.264z" fill="#ffcebf"/></g></g><g><path d="m206.575 444.523c-44.71 0-86.428-12.785-121.724-34.878 8.045 8.977 16.78 17.321 26.133 24.939 3.842 3.13 6.016 7.861 5.776 12.81l-2.602 53.586c-.414 8.524 8.982 13.949 16.157 9.328l48.811-31.433c3.782-2.435 8.428-3.075 12.748-1.821 20.354 5.909 41.867 9.091 64.127 9.091 69.079 0 131.03-30.492 173.148-78.744v-58.441c0-14.863-4.873-28.585-13.103-39.666-36.041 79.741-116.276 135.229-209.471 135.229z" fill="#fd3581"/></g><g><g><path d="m274.647 37.293h-37.293c-36.78 0-66.595 29.816-66.595 66.595v9.323h80.778c5.521 0 10.622-2.945 13.382-7.726l8.996-15.582c1.538-2.664 5.383-2.664 6.921 0l8.996 15.582c2.76 4.781 7.862 7.726 13.382 7.726h38.028v-9.323c0-36.779-29.816-66.595-66.595-66.595z" fill="#d88a55"/></g><g><path d="m302.863 43.564v69.637c.117.003.234.012.351.012h38.028v-9.323c0-26.692-15.709-49.704-38.379-60.326z" fill="#c57a44"/></g></g></g></g><g><g><g><path d="m256 414.897c-4.142 0-7.5-3.358-7.5-7.5v-3.091c0-4.142 3.358-7.5 7.5-7.5s7.5 3.358 7.5 7.5v3.091c0 4.142-3.358 7.5-7.5 7.5z" fill="#fff"/></g><g><path d="m256 456.144c-4.142 0-7.5-3.358-7.5-7.5v-3.091c0-4.142 3.358-7.5 7.5-7.5s7.5 3.358 7.5 7.5v3.091c0 4.142-3.358 7.5-7.5 7.5z" fill="#fff"/></g></g><g><g><path d="m222.702 158.006c-4.142 0-7.5-3.358-7.5-7.5v-6.66c0-4.142 3.358-7.5 7.5-7.5s7.5 3.358 7.5 7.5v6.66c0 4.142-3.358 7.5-7.5 7.5z" fill="#ffb09e"/></g><g><path d="m289.298 158.006c-4.142 0-7.5-3.358-7.5-7.5v-6.66c0-4.142 3.358-7.5 7.5-7.5s7.5 3.358 7.5 7.5v6.66c0 4.142-3.358 7.5-7.5 7.5z" fill="#ffb09e"/></g></g><path d="m372.582 191.795h-2.878v16.038c0 6.881-5.598 12.479-12.479 12.479h-78.917v12.948l1 2.052h77.917c15.152 0 27.479-12.327 27.479-27.479v-18.733c-3.681 1.726-7.788 2.695-12.122 2.695z" fill="#685e68"/></g><g><path d="m279.308 235.312h-36.05c-5.836 0-10.567-4.731-10.567-10.567v-12.163c0-5.836 4.731-10.567 10.567-10.567h25.482c5.836 0 10.567 4.731 10.567 10.567v22.73z" fill="#7a6d79"/></g></g><g/><g/><g/><g/><g/><g/><g/><g/><g/><g/><g/><g/><g/><g/><g/></svg>