<svg xmlns="http://www.w3.org/2000/svg" version="1.1" xmlns:xlink="http://www.w3.org/1999/xlink" width="512" height="512" x="0" y="0" viewBox="0 0 60 60" style="enable-background:new 0 0 512 512" xml:space="preserve" class=""><g><path d="M32.636 41.955a16.015 16.015 0 0 0 6.264-4.3 38.12 38.12 0 0 0-3.482-.835 17.016 17.016 0 0 1-2.782 5.135zM20.619 17.511a45.626 45.626 0 0 0 5.381.431v-6.8c-2.173.575-4.1 2.968-5.381 6.369zM36.008 34.9a39.277 39.277 0 0 1 4.226 1.08A15.893 15.893 0 0 0 42.949 28h-5.976a30.5 30.5 0 0 1-.965 6.9zM26 42.854v-6.8a45.626 45.626 0 0 0-5.381.431C21.9 39.89 23.827 42.283 26 42.854zM19.026 26H26v-6.019a46.372 46.372 0 0 1-6.023-.516A28.428 28.428 0 0 0 19.026 26zM19.983 34.557A47.325 47.325 0 0 1 26 34.06V28h-6.974a28.374 28.374 0 0 0 .957 6.557zM36.973 26h5.976a15.9 15.9 0 0 0-2.714-7.978 40.286 40.286 0 0 1-4.224 1.093A30.44 30.44 0 0 1 36.973 26zM38.9 16.343a16.015 16.015 0 0 0-6.264-4.3 17.016 17.016 0 0 1 2.782 5.133 37.47 37.47 0 0 0 3.482-.833zM33.381 36.489A45.626 45.626 0 0 0 28 36.058v6.8c2.173-.575 4.1-2.968 5.381-6.369z" fill="#ffffff" opacity="1" data-original="#000000"></path><path d="M27 52A25 25 0 1 0 2 27a25.028 25.028 0 0 0 25 25zm0-48a1 1 0 0 1 0 2 20.976 20.976 0 1 0 5 .6 1 1 0 0 1 .475-1.944A23.023 23.023 0 1 1 27 4zm18 23A18 18 0 1 1 27 9a18.021 18.021 0 0 1 18 18z" fill="#ffffff" opacity="1" data-original="#000000"></path><path d="M34.974 28H28v6.06a47.325 47.325 0 0 1 6.017.5 28.374 28.374 0 0 0 .957-6.56zM28 11.146v6.8a45.626 45.626 0 0 0 5.381-.431C32.1 14.11 30.173 11.717 28 11.146zM34.023 19.465a46.372 46.372 0 0 1-6.023.516V26h6.974a28.428 28.428 0 0 0-.951-6.535zM15.1 37.657a16.026 16.026 0 0 0 6.264 4.3 17.016 17.016 0 0 1-2.782-5.133 37.47 37.47 0 0 0-3.482.833zM47.764 44.237a27.206 27.206 0 0 1-3.527 3.527l9.5 9.509a2.575 2.575 0 0 0 3.536 0 2.52 2.52 0 0 0 0-3.538zM17.027 28h-5.976a15.893 15.893 0 0 0 2.715 7.979 39.277 39.277 0 0 1 4.226-1.08A30.5 30.5 0 0 1 17.027 28zM21.364 12.045a16.015 16.015 0 0 0-6.264 4.3 38.12 38.12 0 0 0 3.482.835 17.016 17.016 0 0 1 2.782-5.135zM17.989 19.115a40.286 40.286 0 0 1-4.224-1.093A15.9 15.9 0 0 0 11.051 26h5.976a30.44 30.44 0 0 1 .962-6.885z" fill="#ffffff" opacity="1" data-original="#000000"></path></g></svg>