<svg id="Layer_1" enable-background="new 0 0 512 512" height="512" viewBox="0 0 512 512" width="512" xmlns="http://www.w3.org/2000/svg"><g clip-rule="evenodd" fill-rule="evenodd"><circle cx="256" cy="256" fill="#8ee26b" r="256"/><path d="m511.574 270.613c-7.328 129.551-111.422 233.642-240.976 240.962l-132.91-132.91c-18.096-18.077-30.845-36.664-40.387-60.978-7.593-19.068-11.783-39.853-11.783-61.687 0-94.004 76.478-170.483 170.482-170.483 21.158 0 42.03 3.955 61.69 11.783 21.802 8.433 41.445 21.225 57.867 37.3z" fill="#00da80"/><path d="m303.063 392.094c3.471-5.971 6.71-12.669 9.674-20.079 6.288-15.721 11.155-33.949 14.443-53.716h58.634c-16.557 34.362-46.366 61.177-82.751 73.795zm-176.876-73.793h58.633c3.288 19.767 8.154 37.995 14.443 53.716 2.964 7.408 6.203 14.106 9.674 20.078-36.385-12.619-66.193-39.435-82.75-73.794zm82.75-198.394c-3.471 5.971-6.71 12.669-9.674 20.078-6.289 15.721-11.155 33.949-14.443 53.716h-58.633c16.557-34.361 46.365-61.177 82.75-73.794zm47.063-7.907c10.498 0 22.817 14.493 32.149 37.82 5.149 12.871 9.229 27.727 12.16 43.88h-88.617c2.931-16.153 7.012-31.009 12.16-43.88 9.331-23.327 21.65-37.82 32.148-37.82zm-144 144c0-12.361 1.567-24.362 4.51-35.818h64.957c-1.051 11.65-1.61 23.636-1.61 35.818s.558 24.168 1.61 35.818h-64.957c-2.943-11.456-4.51-23.457-4.51-35.818zm96.042 35.818c-1.119-11.576-1.702-23.577-1.702-35.818s.584-24.242 1.702-35.818h95.917c1.119 11.576 1.702 23.577 1.702 35.818s-.584 24.242-1.702 35.818zm47.958 108.182c-10.498 0-22.817-14.493-32.149-37.819-5.149-12.871-9.229-27.727-12.16-43.88h88.617c-2.931 16.154-7.012 31.009-12.16 43.88-9.331 23.326-21.65 37.819-32.148 37.819zm144-144c0 12.361-1.567 24.362-4.51 35.818h-64.958c1.052-11.65 1.61-23.636 1.61-35.818s-.558-24.168-1.61-35.818h64.958c2.943 11.456 4.51 23.457 4.51 35.818zm-14.187-62.301h-58.634c-3.289-19.767-8.154-37.995-14.443-53.716-2.964-7.409-6.202-14.107-9.674-20.079 36.386 12.619 66.195 39.435 82.751 73.795zm-129.813-108.182c-94.005 0-170.483 76.479-170.483 170.483s76.478 170.483 170.483 170.483c94.004 0 170.483-76.479 170.483-170.483s-76.478-170.483-170.483-170.483z" fill="#fff"/></g></svg>