<?xml version="1.0" encoding="UTF-8"?>
<svg id="Layer_2" data-name="Layer 2" xmlns="http://www.w3.org/2000/svg" viewBox="0 0 491.51 93.66">
  <defs>
    <style>
      .cls-1 {
        fill: #000;
      }

      .cls-1, .cls-2 {
        stroke-width: 0px;
      }

      .cls-2 {
        fill: #ff3221;
      }
    </style>
  </defs>
  <g id="Layer_1-2" data-name="Layer 1">
    <g>
      <g>
        <path class="cls-1" d="M98.96,92.57c-1.3-.73-2.34-1.74-3.1-3.05s-1.14-2.77-1.14-4.4.38-3.1,1.14-4.39c.76-1.3,1.79-2.31,3.1-3.04,1.3-.73,2.73-1.09,4.28-1.09s3,.36,4.31,1.09c1.3.73,2.33,1.74,3.08,3.04.75,1.3,1.13,2.76,1.13,4.39s-.38,3.1-1.13,4.4-1.78,2.32-3.08,3.05-2.74,1.09-4.31,1.09-2.98-.36-4.28-1.09ZM106.2,90.53c.86-.5,1.54-1.22,2.03-2.16s.73-2.02.73-3.25-.24-2.31-.73-3.24c-.49-.93-1.16-1.64-2.03-2.14-.86-.5-1.85-.74-2.95-.74s-2.09.25-2.95.74c-.86.5-1.54,1.21-2.03,2.14-.49.93-.73,2.01-.73,3.24s.24,2.32.73,3.25c.49.94,1.16,1.66,2.03,2.16.86.5,1.85.76,2.95.76s2.09-.25,2.95-.76Z"/>
        <path class="cls-1" d="M117.17,76.82v10.63c0,1.26.33,2.22,1,2.86.66.64,1.59.96,2.77.96s2.13-.32,2.8-.96c.66-.64,1-1.59,1-2.86v-10.63h2.74v10.58c0,1.36-.3,2.51-.89,3.46s-1.38,1.65-2.38,2.11c-.99.46-2.09.7-3.29.7s-2.29-.23-3.28-.7c-.98-.46-1.76-1.17-2.34-2.11s-.86-2.1-.86-3.46v-10.58h2.74Z"/>
        <path class="cls-1" d="M141.79,76.82v2.23h-4.44v14.45h-2.74v-14.45h-4.46v-2.23h11.64Z"/>
        <path class="cls-1" d="M147.02,93.08c-.9-.39-1.6-.95-2.11-1.67s-.77-1.56-.77-2.52h2.93c.06.72.35,1.31.85,1.78s1.21.7,2.12.7,1.68-.23,2.21-.68c.53-.46.79-1.04.79-1.76,0-.56-.16-1.02-.49-1.37-.33-.35-.74-.62-1.22-.82-.49-.19-1.16-.4-2.03-.62-1.09-.29-1.97-.58-2.65-.88-.68-.3-1.26-.76-1.74-1.38s-.72-1.46-.72-2.5c0-.96.24-1.8.72-2.52s1.15-1.27,2.02-1.66c.86-.38,1.86-.58,3-.58,1.62,0,2.94.4,3.97,1.21,1.03.81,1.6,1.92,1.71,3.32h-3.02c-.05-.61-.34-1.13-.86-1.56-.53-.43-1.22-.65-2.09-.65-.79,0-1.42.2-1.92.6-.5.4-.74.98-.74,1.73,0,.51.16.93.47,1.26.31.33.71.59,1.19.78.48.19,1.14.4,1.97.62,1.1.3,2,.61,2.7.91s1.29.77,1.78,1.4.73,1.48.73,2.53c0,.85-.23,1.65-.68,2.4s-1.12,1.36-1.99,1.81-1.9.68-3.08.68c-1.12,0-2.13-.2-3.02-.59Z"/>
        <path class="cls-1" d="M162.37,92.57c-1.3-.73-2.34-1.74-3.1-3.05s-1.14-2.77-1.14-4.4.38-3.1,1.14-4.39c.76-1.3,1.79-2.31,3.1-3.04,1.3-.73,2.73-1.09,4.29-1.09s3,.36,4.31,1.09c1.3.73,2.33,1.74,3.08,3.04.75,1.3,1.13,2.76,1.13,4.39s-.38,3.1-1.13,4.4-1.78,2.32-3.08,3.05c-1.3.73-2.74,1.09-4.31,1.09s-2.98-.36-4.29-1.09ZM169.6,90.53c.86-.5,1.54-1.22,2.03-2.16.49-.94.73-2.02.73-3.25s-.24-2.31-.73-3.24c-.49-.93-1.16-1.64-2.03-2.14-.86-.5-1.85-.74-2.95-.74s-2.09.25-2.95.74c-.86.5-1.54,1.21-2.03,2.14-.49.93-.73,2.01-.73,3.24s.24,2.32.73,3.25,1.16,1.66,2.03,2.16c.86.5,1.85.76,2.95.76s2.09-.25,2.95-.76Z"/>
        <path class="cls-1" d="M180.57,76.82v10.63c0,1.26.33,2.22,1,2.86.66.64,1.59.96,2.77.96s2.13-.32,2.8-.96c.66-.64,1-1.59,1-2.86v-10.63h2.74v10.58c0,1.36-.3,2.51-.89,3.46-.59.94-1.38,1.65-2.38,2.11-.99.46-2.09.7-3.29.7s-2.29-.23-3.28-.7c-.98-.46-1.76-1.17-2.34-2.11s-.86-2.1-.86-3.46v-10.58h2.74Z"/>
        <path class="cls-1" d="M203.08,93.5l-3.84-6.67h-2.09v6.67h-2.74v-16.68h5.76c1.28,0,2.36.22,3.25.67.89.45,1.55,1.05,1.99,1.8.44.75.66,1.59.66,2.52,0,1.09-.32,2.08-.95,2.96-.63.89-1.6,1.49-2.92,1.81l4.13,6.91h-3.26ZM197.16,84.64h3.02c1.02,0,1.79-.25,2.32-.77.52-.51.78-1.2.78-2.06s-.26-1.54-.77-2.03c-.51-.49-1.29-.73-2.33-.73h-3.02v5.59Z"/>
        <path class="cls-1" d="M209.82,80.73c.76-1.3,1.79-2.31,3.1-3.04,1.3-.73,2.73-1.09,4.28-1.09,1.78,0,3.36.44,4.74,1.31,1.38.87,2.39,2.11,3.01,3.71h-3.29c-.43-.88-1.03-1.54-1.8-1.97-.77-.43-1.66-.65-2.66-.65-1.1,0-2.09.25-2.95.74s-1.54,1.21-2.03,2.14c-.49.93-.73,2.01-.73,3.24s.24,2.31.73,3.24,1.16,1.64,2.03,2.15,1.85.76,2.95.76c1.01,0,1.9-.22,2.66-.65.77-.43,1.37-1.09,1.8-1.97h3.29c-.62,1.6-1.63,2.83-3.01,3.7-1.38.86-2.96,1.3-4.74,1.3-1.57,0-3-.36-4.3-1.09-1.3-.73-2.33-1.74-3.08-3.04s-1.14-2.76-1.14-4.39.38-3.1,1.14-4.39Z"/>
        <path class="cls-1" d="M230.88,76.82v16.68h-2.74v-16.68h2.74Z"/>
        <path class="cls-1" d="M248.18,93.5h-2.74l-8.23-12.46v12.46h-2.74v-16.7h2.74l8.23,12.43v-12.43h2.74v16.7Z"/>
        <path class="cls-1" d="M263.85,81.62c-.43-.83-1.03-1.46-1.8-1.88-.77-.42-1.66-.64-2.66-.64-1.1,0-2.09.25-2.95.74-.86.5-1.54,1.2-2.03,2.11s-.73,1.97-.73,3.17.24,2.26.73,3.18c.49.92,1.16,1.63,2.03,2.12.86.5,1.85.74,2.95.74,1.49,0,2.7-.42,3.62-1.25.93-.83,1.5-1.96,1.7-3.38h-6.26v-2.18h9.19v2.14c-.18,1.3-.64,2.49-1.38,3.58s-1.71,1.96-2.9,2.6c-1.19.65-2.52.97-3.97.97-1.57,0-3-.36-4.3-1.09-1.3-.73-2.32-1.74-3.08-3.04-.76-1.3-1.14-2.76-1.14-4.39s.38-3.1,1.14-4.39c.76-1.3,1.79-2.31,3.1-3.04,1.3-.73,2.73-1.09,4.28-1.09,1.78,0,3.36.44,4.74,1.31,1.38.87,2.39,2.11,3.01,3.71h-3.29Z"/>
        <path class="cls-1" d="M285.24,93.5l-3.84-6.67h-2.09v6.67h-2.74v-16.68h5.76c1.28,0,2.36.22,3.25.67.89.45,1.55,1.05,1.99,1.8s.66,1.59.66,2.52c0,1.09-.32,2.08-.95,2.96-.63.89-1.6,1.49-2.92,1.81l4.13,6.91h-3.26ZM279.31,84.64h3.02c1.02,0,1.8-.25,2.32-.77.52-.51.78-1.2.78-2.06s-.26-1.54-.77-2.03-1.29-.73-2.33-.73h-3.02v5.59Z"/>
        <path class="cls-1" d="M294.48,79.02v4.9h5.76v2.23h-5.76v5.11h6.48v2.23h-9.22v-16.7h9.22v2.23h-6.48Z"/>
        <path class="cls-1" d="M314.43,77.83c1.34.68,2.37,1.66,3.1,2.93.73,1.27,1.09,2.76,1.09,4.45s-.36,3.17-1.09,4.42c-.73,1.25-1.76,2.2-3.1,2.87s-2.89,1-4.67,1h-5.45v-16.68h5.45c1.78,0,3.33.34,4.67,1.02ZM314.25,89.68c1.04-1.06,1.56-2.54,1.56-4.46s-.52-3.45-1.56-4.54c-1.04-1.09-2.54-1.63-4.49-1.63h-2.71v12.22h2.71c1.95,0,3.45-.53,4.49-1.58Z"/>
        <path class="cls-1" d="M324.07,79.02v4.9h5.76v2.23h-5.76v5.11h6.48v2.23h-9.22v-16.7h9.22v2.23h-6.48Z"/>
        <path class="cls-1" d="M343.72,76.82v2.23h-7.08v4.92h5.52v2.23h-5.52v7.3h-2.74v-16.68h9.82Z"/>
        <path class="cls-1" d="M349,76.82v16.68h-2.74v-16.68h2.74Z"/>
        <path class="cls-1" d="M366.31,93.5h-2.74l-8.23-12.46v12.46h-2.74v-16.7h2.74l8.23,12.43v-12.43h2.74v16.7Z"/>
        <path class="cls-1" d="M372.64,79.02v4.9h5.76v2.23h-5.76v5.11h6.48v2.23h-9.22v-16.7h9.22v2.23h-6.48Z"/>
        <path class="cls-1" d="M392.6,77.83c1.34.68,2.37,1.66,3.1,2.93.73,1.27,1.09,2.76,1.09,4.45s-.36,3.17-1.09,4.42c-.73,1.25-1.76,2.2-3.1,2.87s-2.89,1-4.67,1h-5.45v-16.68h5.45c1.78,0,3.33.34,4.67,1.02ZM392.42,89.68c1.04-1.06,1.56-2.54,1.56-4.46s-.52-3.45-1.56-4.54c-1.04-1.09-2.54-1.63-4.49-1.63h-2.71v12.22h2.71c1.95,0,3.45-.53,4.49-1.58Z"/>
      </g>
      <path class="cls-1" d="M3.72,13.88c2.48-4.35,5.87-7.73,10.16-10.16C18.17,1.29,22.99.08,28.32.08c6.24,0,11.71,1.6,16.4,4.8,4.69,3.2,7.97,7.63,9.84,13.28h-12.88c-1.28-2.67-3.08-4.67-5.4-6-2.32-1.33-5-2-8.04-2-3.25,0-6.15.76-8.68,2.28-2.53,1.52-4.51,3.67-5.92,6.44-1.41,2.77-2.12,6.03-2.12,9.76s.71,6.92,2.12,9.72c1.41,2.8,3.39,4.96,5.92,6.48,2.53,1.52,5.43,2.28,8.68,2.28,3.04,0,5.72-.68,8.04-2.04,2.32-1.36,4.12-3.37,5.4-6.04h12.88c-1.87,5.71-5.13,10.15-9.8,13.32-4.67,3.17-10.15,4.76-16.44,4.76-5.33,0-10.15-1.21-14.44-3.64-4.29-2.43-7.68-5.8-10.16-10.12-2.48-4.32-3.72-9.23-3.72-14.72s1.24-10.41,3.72-14.76Z"/>
      <path class="cls-2" d="M75.68,53.52c-4.37-2.45-7.84-5.85-10.4-10.2-2.56-4.35-3.84-9.27-3.84-14.76s1.28-10.33,3.84-14.68c2.56-4.35,6.03-7.75,10.4-10.2,4.37-2.45,9.17-3.68,14.4-3.68s10.09,1.23,14.44,3.68c4.35,2.45,7.79,5.85,10.32,10.2,2.53,4.35,3.8,9.24,3.8,14.68s-1.27,10.41-3.8,14.76c-2.53,4.35-5.99,7.75-10.36,10.2-4.37,2.45-9.17,3.68-14.4,3.68s-10.03-1.23-14.4-3.68ZM98.96,44.92c2.56-1.52,4.56-3.69,6-6.52,1.44-2.83,2.16-6.11,2.16-9.84s-.72-7-2.16-9.8c-1.44-2.8-3.44-4.95-6-6.44-2.56-1.49-5.52-2.24-8.88-2.24s-6.33.75-8.92,2.24c-2.59,1.49-4.6,3.64-6.04,6.44-1.44,2.8-2.16,6.07-2.16,9.8s.72,7.01,2.16,9.84c1.44,2.83,3.45,5,6.04,6.52,2.59,1.52,5.56,2.28,8.92,2.28s6.32-.76,8.88-2.28Z"/>
      <path class="cls-1" d="M187.84.8v55.84h-11.2V20.32l-14.96,36.32h-8.48l-15.04-36.32v36.32h-11.2V.8h12.72l17.76,41.52L175.2.8h12.64Z"/>
      <path class="cls-1" d="M237.48,26.48c-1.41,2.61-3.63,4.72-6.64,6.32-3.01,1.6-6.81,2.4-11.4,2.4h-9.36v21.44h-11.2V.8h20.56c4.32,0,8,.75,11.04,2.24s5.32,3.55,6.84,6.16c1.52,2.61,2.28,5.57,2.28,8.88,0,2.99-.71,5.79-2.12,8.4ZM225.84,24.04c1.49-1.41,2.24-3.4,2.24-5.96,0-5.44-3.04-8.16-9.12-8.16h-8.88v16.24h8.88c3.09,0,5.39-.71,6.88-2.12Z"/>
      <path class="cls-1" d="M258.56.8v34.56c0,3.79.99,6.68,2.96,8.68s4.75,3,8.32,3,6.43-1,8.4-3c1.97-2,2.96-4.89,2.96-8.68V.8h11.28v34.48c0,4.75-1.03,8.76-3.08,12.04-2.05,3.28-4.8,5.75-8.24,7.4-3.44,1.65-7.27,2.48-11.48,2.48s-7.93-.83-11.32-2.48c-3.39-1.65-6.07-4.12-8.04-7.4-1.97-3.28-2.96-7.29-2.96-12.04V.8h11.2Z"/>
      <path class="cls-1" d="M341.28.8v9.04h-14.88v46.8h-11.2V9.84h-14.88V.8h40.96Z"/>
      <path class="cls-1" d="M393.83.8l-18.88,36.4v19.44h-11.2v-19.44L344.79.8h12.64l12,25.52,11.92-25.52h12.48Z"/>
      <path class="cls-1" d="M448.07,56.64h-11.2l-25.36-38.32v38.32h-11.2V.72h11.2l25.36,38.4V.72h11.2v55.92Z"/>
      <path class="cls-1" d="M470.31,9.84v14h18.8v8.88h-18.8v14.8h21.2v9.12h-32.4V.72h32.4v9.12h-21.2Z"/>
    </g>
  </g>
</svg>