<?xml version="1.0" encoding="UTF-8"?>
<svg id="Layer_2" data-name="Layer 2" xmlns="http://www.w3.org/2000/svg" viewBox="0 0 491.51 101.14">
  <defs>
    <style>
      .cls-1 {
        fill: #000;
      }

      .cls-1, .cls-2 {
        stroke-width: 0px;
      }

      .cls-2 {
        fill: #ff3221;
      }
    </style>
  </defs>
  <g id="Layer_1-2" data-name="Layer 1">
    <g>
      <path class="cls-1" d="M35.59,99.57c-1.87-1.04-3.34-2.5-4.43-4.36s-1.63-3.97-1.63-6.31.55-4.43,1.63-6.29c1.09-1.86,2.56-3.31,4.43-4.35,1.87-1.04,3.91-1.56,6.13-1.56s4.3.52,6.17,1.56c1.87,1.04,3.34,2.49,4.42,4.35,1.08,1.86,1.62,3.95,1.62,6.29s-.54,4.44-1.62,6.31-2.55,3.32-4.42,4.36-3.92,1.56-6.17,1.56-4.27-.52-6.13-1.56ZM45.95,96.65c1.24-.72,2.2-1.75,2.9-3.09s1.05-2.89,1.05-4.66-.35-3.31-1.05-4.64c-.7-1.33-1.67-2.35-2.9-3.06-1.24-.71-2.65-1.07-4.23-1.07s-2.99.36-4.23,1.07c-1.24.71-2.2,1.73-2.9,3.06-.7,1.33-1.05,2.88-1.05,4.64s.35,3.32,1.05,4.66c.7,1.34,1.67,2.37,2.9,3.09,1.24.72,2.65,1.08,4.23,1.08s2.99-.36,4.23-1.08Z"/>
      <path class="cls-1" d="M61.65,77.02v15.22c0,1.81.47,3.17,1.42,4.09.95.92,2.27,1.37,3.97,1.37s3.05-.46,4-1.37c.95-.92,1.43-2.28,1.43-4.09v-15.22h3.92v15.15c0,1.95-.43,3.6-1.27,4.95s-1.98,2.36-3.4,3.02c-1.42.67-2.99,1-4.71,1s-3.28-.33-4.69-1c-1.41-.66-2.53-1.67-3.35-3.02s-1.24-3-1.24-4.95v-15.15h3.92Z"/>
      <path class="cls-1" d="M96.91,77.02v3.19h-6.36v20.69h-3.92v-20.69h-6.39v-3.19h16.67Z"/>
      <path class="cls-1" d="M104.4,100.3c-1.28-.56-2.29-1.36-3.02-2.39s-1.1-2.23-1.1-3.61h4.19c.09,1.03.5,1.88,1.22,2.54s1.74,1,3.04,1,2.41-.33,3.16-.98c.76-.65,1.13-1.49,1.13-2.53,0-.8-.23-1.45-.7-1.96-.47-.5-1.05-.89-1.75-1.17-.7-.28-1.67-.57-2.9-.89-1.56-.41-2.82-.83-3.8-1.25-.97-.42-1.8-1.08-2.49-1.98s-1.03-2.08-1.03-3.57c0-1.37.34-2.58,1.03-3.61s1.65-1.82,2.89-2.37c1.24-.55,2.67-.82,4.3-.82,2.31,0,4.21.58,5.69,1.74,1.48,1.16,2.3,2.74,2.46,4.76h-4.33c-.07-.87-.48-1.61-1.24-2.23-.76-.62-1.75-.93-2.99-.93-1.12,0-2.04.29-2.75.86-.71.57-1.06,1.4-1.06,2.47,0,.73.22,1.34.67,1.8.45.47,1.02.84,1.7,1.12.69.28,1.63.57,2.82.89,1.58.44,2.87.87,3.87,1.31s1.84,1.11,2.54,2.01,1.05,2.11,1.05,3.63c0,1.21-.33,2.36-.98,3.44s-1.6,1.94-2.85,2.59-2.72.98-4.42.98c-1.6,0-3.05-.28-4.33-.84Z"/>
      <path class="cls-1" d="M126.37,99.57c-1.87-1.04-3.34-2.5-4.43-4.36s-1.63-3.97-1.63-6.31.54-4.43,1.63-6.29c1.09-1.86,2.57-3.31,4.43-4.35,1.87-1.04,3.91-1.56,6.14-1.56s4.3.52,6.17,1.56c1.87,1.04,3.34,2.49,4.42,4.35,1.08,1.86,1.62,3.95,1.62,6.29s-.54,4.44-1.62,6.31-2.55,3.32-4.42,4.36c-1.87,1.04-3.92,1.56-6.17,1.56s-4.27-.52-6.14-1.56ZM136.73,96.65c1.24-.72,2.2-1.75,2.9-3.09.7-1.34,1.05-2.89,1.05-4.66s-.35-3.31-1.05-4.64c-.7-1.33-1.67-2.35-2.9-3.06-1.24-.71-2.65-1.07-4.23-1.07s-2.99.36-4.23,1.07c-1.24.71-2.2,1.73-2.9,3.06-.7,1.33-1.05,2.88-1.05,4.64s.35,3.32,1.05,4.66,1.67,2.37,2.9,3.09c1.24.72,2.65,1.08,4.23,1.08s2.99-.36,4.23-1.08Z"/>
      <path class="cls-1" d="M152.43,77.02v15.22c0,1.81.47,3.17,1.42,4.09.95.92,2.27,1.37,3.97,1.37s3.05-.46,4-1.37c.95-.92,1.42-2.28,1.42-4.09v-15.22h3.92v15.15c0,1.95-.42,3.6-1.27,4.95-.85,1.35-1.98,2.36-3.4,3.02-1.42.67-2.99,1-4.71,1s-3.28-.33-4.69-1c-1.41-.66-2.53-1.67-3.35-3.02s-1.24-3-1.24-4.95v-15.15h3.92Z"/>
      <path class="cls-1" d="M184.66,100.9l-5.5-9.55h-2.99v9.55h-3.92v-23.88h8.25c1.83,0,3.38.32,4.66.96,1.27.64,2.22,1.5,2.85,2.58.63,1.08.94,2.28.94,3.61,0,1.56-.45,2.97-1.36,4.24-.9,1.27-2.3,2.14-4.17,2.59l5.91,9.9h-4.67ZM176.18,88.22h4.33c1.47,0,2.57-.36,3.32-1.1.74-.73,1.12-1.72,1.12-2.96s-.37-2.2-1.1-2.9c-.73-.7-1.85-1.05-3.33-1.05h-4.33v8.01Z"/>
      <path class="cls-1" d="M194.3,82.62c1.09-1.86,2.57-3.31,4.43-4.35,1.87-1.04,3.91-1.56,6.13-1.56,2.54,0,4.8.62,6.79,1.87,1.98,1.25,3.42,3.02,4.31,5.31h-4.71c-.62-1.26-1.48-2.2-2.58-2.82-1.1-.62-2.37-.93-3.81-.93-1.58,0-2.99.36-4.23,1.07s-2.2,1.73-2.9,3.06c-.7,1.33-1.05,2.88-1.05,4.64s.35,3.31,1.05,4.64,1.67,2.35,2.9,3.07,2.65,1.08,4.23,1.08c1.44,0,2.71-.31,3.81-.93,1.1-.62,1.96-1.56,2.58-2.82h4.71c-.89,2.29-2.33,4.05-4.31,5.29-1.98,1.24-4.24,1.86-6.79,1.86-2.25,0-4.3-.52-6.15-1.56-1.86-1.04-3.33-2.49-4.42-4.35s-1.63-3.95-1.63-6.29.54-4.43,1.63-6.29Z"/>
      <path class="cls-1" d="M224.45,77.02v23.88h-3.92v-23.88h3.92Z"/>
      <path class="cls-1" d="M249.23,100.9h-3.92l-11.78-17.83v17.83h-3.92v-23.92h3.92l11.78,17.8v-17.8h3.92v23.92Z"/>
      <path class="cls-1" d="M271.66,83.89c-.62-1.19-1.48-2.09-2.58-2.7-1.1-.61-2.37-.91-3.81-.91-1.58,0-2.99.36-4.23,1.07-1.24.71-2.2,1.72-2.9,3.02s-1.05,2.82-1.05,4.54.35,3.24,1.05,4.55c.7,1.32,1.67,2.33,2.9,3.04,1.24.71,2.65,1.07,4.23,1.07,2.13,0,3.86-.6,5.19-1.79,1.33-1.19,2.14-2.81,2.44-4.84h-8.97v-3.13h13.16v3.06c-.25,1.86-.91,3.56-1.98,5.12s-2.45,2.8-4.16,3.73c-1.71.93-3.6,1.39-5.69,1.39-2.25,0-4.3-.52-6.15-1.56-1.86-1.04-3.33-2.49-4.42-4.35-1.09-1.86-1.63-3.95-1.63-6.29s.54-4.43,1.63-6.29c1.09-1.86,2.56-3.31,4.43-4.35,1.87-1.04,3.91-1.56,6.13-1.56,2.54,0,4.8.62,6.79,1.87,1.98,1.25,3.42,3.02,4.31,5.31h-4.71Z"/>
      <path class="cls-1" d="M302.28,100.9l-5.5-9.55h-2.99v9.55h-3.92v-23.88h8.25c1.83,0,3.38.32,4.66.96,1.27.64,2.22,1.5,2.85,2.58s.95,2.28.95,3.61c0,1.56-.45,2.97-1.36,4.24-.9,1.27-2.3,2.14-4.17,2.59l5.91,9.9h-4.67ZM293.79,88.22h4.33c1.47,0,2.57-.36,3.32-1.1.74-.73,1.12-1.72,1.12-2.96s-.37-2.2-1.1-2.9-1.84-1.05-3.33-1.05h-4.33v8.01Z"/>
      <path class="cls-1" d="M315.51,80.18v7.01h8.25v3.2h-8.25v7.32h9.28v3.2h-13.19v-23.92h13.19v3.2h-9.28Z"/>
      <path class="cls-1" d="M344.08,78.48c1.91.97,3.39,2.37,4.43,4.19,1.04,1.82,1.56,3.95,1.56,6.37s-.52,4.54-1.56,6.32c-1.04,1.79-2.52,3.16-4.43,4.11s-4.14,1.43-6.68,1.43h-7.8v-23.88h7.8c2.54,0,4.77.49,6.68,1.46ZM343.82,95.43c1.49-1.51,2.23-3.64,2.23-6.39s-.75-4.94-2.23-6.49c-1.49-1.56-3.63-2.34-6.43-2.34h-3.88v17.49h3.88c2.79,0,4.94-.75,6.43-2.27Z"/>
      <path class="cls-1" d="M357.87,80.18v7.01h8.25v3.2h-8.25v7.32h9.28v3.2h-13.19v-23.92h13.19v3.2h-9.28Z"/>
      <path class="cls-1" d="M386.02,77.02v3.19h-10.14v7.04h7.9v3.2h-7.9v10.45h-3.92v-23.88h14.05Z"/>
      <path class="cls-1" d="M393.58,77.02v23.88h-3.92v-23.88h3.92Z"/>
      <path class="cls-1" d="M418.35,100.9h-3.92l-11.78-17.83v17.83h-3.92v-23.92h3.92l11.78,17.8v-17.8h3.92v23.92Z"/>
      <path class="cls-1" d="M427.42,80.18v7.01h8.25v3.2h-8.25v7.32h9.28v3.2h-13.19v-23.92h13.19v3.2h-9.28Z"/>
      <path class="cls-1" d="M455.99,78.48c1.91.97,3.39,2.37,4.43,4.19,1.04,1.82,1.56,3.95,1.56,6.37s-.52,4.54-1.56,6.32c-1.04,1.79-2.52,3.16-4.43,4.11s-4.14,1.43-6.68,1.43h-7.8v-23.88h7.8c2.54,0,4.77.49,6.68,1.46ZM455.73,95.43c1.49-1.51,2.23-3.64,2.23-6.39s-.75-4.94-2.23-6.49c-1.49-1.56-3.63-2.34-6.43-2.34h-3.88v17.49h3.88c2.79,0,4.94-.75,6.43-2.27Z"/>
    </g>
    <g>
      <path class="cls-1" d="M3.72,13.88c2.48-4.35,5.87-7.73,10.16-10.16C18.17,1.29,22.99.08,28.32.08c6.24,0,11.71,1.6,16.4,4.8,4.69,3.2,7.97,7.63,9.84,13.28h-12.88c-1.28-2.67-3.08-4.67-5.4-6-2.32-1.33-5-2-8.04-2-3.25,0-6.15.76-8.68,2.28-2.53,1.52-4.51,3.67-5.92,6.44-1.41,2.77-2.12,6.03-2.12,9.76s.71,6.92,2.12,9.72c1.41,2.8,3.39,4.96,5.92,6.48,2.53,1.52,5.43,2.28,8.68,2.28,3.04,0,5.72-.68,8.04-2.04,2.32-1.36,4.12-3.37,5.4-6.04h12.88c-1.87,5.71-5.13,10.15-9.8,13.32-4.67,3.17-10.15,4.76-16.44,4.76-5.33,0-10.15-1.21-14.44-3.64-4.29-2.43-7.68-5.8-10.16-10.12-2.48-4.32-3.72-9.23-3.72-14.72s1.24-10.41,3.72-14.76Z"/>
      <path class="cls-2" d="M75.68,53.52c-4.37-2.45-7.84-5.85-10.4-10.2-2.56-4.35-3.84-9.27-3.84-14.76s1.28-10.33,3.84-14.68c2.56-4.35,6.03-7.75,10.4-10.2,4.37-2.45,9.17-3.68,14.4-3.68s10.09,1.23,14.44,3.68c4.35,2.45,7.79,5.85,10.32,10.2,2.53,4.35,3.8,9.24,3.8,14.68s-1.27,10.41-3.8,14.76c-2.53,4.35-5.99,7.75-10.36,10.2-4.37,2.45-9.17,3.68-14.4,3.68s-10.03-1.23-14.4-3.68ZM98.96,44.92c2.56-1.52,4.56-3.69,6-6.52,1.44-2.83,2.16-6.11,2.16-9.84s-.72-7-2.16-9.8c-1.44-2.8-3.44-4.95-6-6.44-2.56-1.49-5.52-2.24-8.88-2.24s-6.33.75-8.92,2.24c-2.59,1.49-4.6,3.64-6.04,6.44-1.44,2.8-2.16,6.07-2.16,9.8s.72,7.01,2.16,9.84c1.44,2.83,3.45,5,6.04,6.52,2.59,1.52,5.56,2.28,8.92,2.28s6.32-.76,8.88-2.28Z"/>
      <path class="cls-1" d="M187.84.8v55.84h-11.2V20.32l-14.96,36.32h-8.48l-15.04-36.32v36.32h-11.2V.8h12.72l17.76,41.52L175.2.8h12.64Z"/>
      <path class="cls-1" d="M237.48,26.48c-1.41,2.61-3.63,4.72-6.64,6.32-3.01,1.6-6.81,2.4-11.4,2.4h-9.36v21.44h-11.2V.8h20.56c4.32,0,8,.75,11.04,2.24s5.32,3.55,6.84,6.16c1.52,2.61,2.28,5.57,2.28,8.88,0,2.99-.71,5.79-2.12,8.4ZM225.84,24.04c1.49-1.41,2.24-3.4,2.24-5.96,0-5.44-3.04-8.16-9.12-8.16h-8.88v16.24h8.88c3.09,0,5.39-.71,6.88-2.12Z"/>
      <path class="cls-1" d="M258.56.8v34.56c0,3.79.99,6.68,2.96,8.68s4.75,3,8.32,3,6.43-1,8.4-3c1.97-2,2.96-4.89,2.96-8.68V.8h11.28v34.48c0,4.75-1.03,8.76-3.08,12.04-2.05,3.28-4.8,5.75-8.24,7.4-3.44,1.65-7.27,2.48-11.48,2.48s-7.93-.83-11.32-2.48c-3.39-1.65-6.07-4.12-8.04-7.4-1.97-3.28-2.96-7.29-2.96-12.04V.8h11.2Z"/>
      <path class="cls-1" d="M341.28.8v9.04h-14.88v46.8h-11.2V9.84h-14.88V.8h40.96Z"/>
      <path class="cls-1" d="M393.83.8l-18.88,36.4v19.44h-11.2v-19.44L344.79.8h12.64l12,25.52,11.92-25.52h12.48Z"/>
      <path class="cls-1" d="M448.07,56.64h-11.2l-25.36-38.32v38.32h-11.2V.72h11.2l25.36,38.4V.72h11.2v55.92Z"/>
      <path class="cls-1" d="M470.31,9.84v14h18.8v8.88h-18.8v14.8h21.2v9.12h-32.4V.72h32.4v9.12h-21.2Z"/>
    </g>
  </g>
</svg>