<?xml version="1.0" encoding="UTF-8"?>
<svg id="Layer_2" data-name="Layer 2" xmlns="http://www.w3.org/2000/svg" viewBox="0 0 491.51 98.06">
  <defs>
    <style>
      .cls-1 {
        fill: #000;
      }

      .cls-1, .cls-2, .cls-3 {
        stroke-width: 0px;
      }

      .cls-2 {
        fill: #15153e;
      }

      .cls-3 {
        fill: #ff3221;
      }
    </style>
  </defs>
  <g id="Layer_1-2" data-name="Layer 1">
    <g>
      <path class="cls-1" d="M35.59,96.49c-1.87-1.04-3.34-2.5-4.43-4.36s-1.63-3.97-1.63-6.31.55-4.43,1.63-6.29c1.09-1.86,2.56-3.31,4.43-4.35,1.87-1.04,3.91-1.56,6.13-1.56s4.3.52,6.17,1.56c1.87,1.04,3.34,2.49,4.42,4.35,1.08,1.86,1.62,3.95,1.62,6.29s-.54,4.44-1.62,6.31-2.55,3.32-4.42,4.36-3.92,1.56-6.17,1.56-4.27-.52-6.13-1.56ZM45.95,93.57c1.24-.72,2.2-1.75,2.9-3.09s1.05-2.89,1.05-4.66-.35-3.31-1.05-4.64c-.7-1.33-1.67-2.35-2.9-3.06-1.24-.71-2.65-1.07-4.23-1.07s-2.99.36-4.23,1.07c-1.24.71-2.2,1.73-2.9,3.06-.7,1.33-1.05,2.88-1.05,4.64s.35,3.32,1.05,4.66c.7,1.34,1.67,2.37,2.9,3.09,1.24.72,2.65,1.08,4.23,1.08s2.99-.36,4.23-1.08Z"/>
      <path class="cls-1" d="M61.65,73.94v15.22c0,1.81.47,3.17,1.42,4.09.95.92,2.27,1.37,3.97,1.37s3.05-.46,4-1.37c.95-.92,1.43-2.28,1.43-4.09v-15.22h3.92v15.15c0,1.95-.43,3.6-1.27,4.95s-1.98,2.36-3.4,3.02c-1.42.67-2.99,1-4.71,1s-3.28-.33-4.69-1c-1.41-.66-2.53-1.67-3.35-3.02s-1.24-3-1.24-4.95v-15.15h3.92Z"/>
      <path class="cls-1" d="M96.91,73.94v3.19h-6.36v20.69h-3.92v-20.69h-6.39v-3.19h16.67Z"/>
      <path class="cls-1" d="M104.4,97.22c-1.28-.56-2.29-1.36-3.02-2.39s-1.1-2.23-1.1-3.61h4.19c.09,1.03.5,1.88,1.22,2.54s1.74,1,3.04,1,2.41-.33,3.16-.98c.76-.65,1.13-1.49,1.13-2.53,0-.8-.23-1.45-.7-1.96-.47-.5-1.05-.89-1.75-1.17-.7-.28-1.67-.57-2.9-.89-1.56-.41-2.82-.83-3.8-1.25-.97-.42-1.8-1.08-2.49-1.98s-1.03-2.08-1.03-3.57c0-1.37.34-2.58,1.03-3.61s1.65-1.82,2.89-2.37c1.24-.55,2.67-.82,4.3-.82,2.31,0,4.21.58,5.69,1.74,1.48,1.16,2.3,2.74,2.46,4.76h-4.33c-.07-.87-.48-1.61-1.24-2.23-.76-.62-1.75-.93-2.99-.93-1.12,0-2.04.29-2.75.86-.71.57-1.06,1.4-1.06,2.47,0,.73.22,1.34.67,1.8.45.47,1.02.84,1.7,1.12.69.28,1.63.57,2.82.89,1.58.44,2.87.87,3.87,1.31s1.84,1.11,2.54,2.01,1.05,2.11,1.05,3.63c0,1.21-.33,2.36-.98,3.44s-1.6,1.94-2.85,2.59-2.72.98-4.42.98c-1.6,0-3.05-.28-4.33-.84Z"/>
      <path class="cls-1" d="M126.37,96.49c-1.87-1.04-3.34-2.5-4.43-4.36s-1.63-3.97-1.63-6.31.54-4.43,1.63-6.29c1.09-1.86,2.57-3.31,4.43-4.35,1.87-1.04,3.91-1.56,6.14-1.56s4.3.52,6.17,1.56c1.87,1.04,3.34,2.49,4.42,4.35,1.08,1.86,1.62,3.95,1.62,6.29s-.54,4.44-1.62,6.31-2.55,3.32-4.42,4.36c-1.87,1.04-3.92,1.56-6.17,1.56s-4.27-.52-6.14-1.56ZM136.73,93.57c1.24-.72,2.2-1.75,2.9-3.09.7-1.34,1.05-2.89,1.05-4.66s-.35-3.31-1.05-4.64c-.7-1.33-1.67-2.35-2.9-3.06-1.24-.71-2.65-1.07-4.23-1.07s-2.99.36-4.23,1.07c-1.24.71-2.2,1.73-2.9,3.06-.7,1.33-1.05,2.88-1.05,4.64s.35,3.32,1.05,4.66,1.67,2.37,2.9,3.09c1.24.72,2.65,1.08,4.23,1.08s2.99-.36,4.23-1.08Z"/>
      <path class="cls-1" d="M152.43,73.94v15.22c0,1.81.47,3.17,1.42,4.09.95.92,2.27,1.37,3.97,1.37s3.05-.46,4-1.37c.95-.92,1.42-2.28,1.42-4.09v-15.22h3.92v15.15c0,1.95-.42,3.6-1.27,4.95-.85,1.35-1.98,2.36-3.4,3.02-1.42.67-2.99,1-4.71,1s-3.28-.33-4.69-1c-1.41-.66-2.53-1.67-3.35-3.02s-1.24-3-1.24-4.95v-15.15h3.92Z"/>
      <path class="cls-1" d="M184.66,97.82l-5.5-9.55h-2.99v9.55h-3.92v-23.88h8.25c1.83,0,3.38.32,4.66.96,1.27.64,2.22,1.5,2.85,2.58.63,1.08.94,2.28.94,3.61,0,1.56-.45,2.97-1.36,4.24-.9,1.27-2.3,2.14-4.17,2.59l5.91,9.9h-4.67ZM176.18,85.14h4.33c1.47,0,2.57-.36,3.32-1.1.74-.73,1.12-1.72,1.12-2.96s-.37-2.2-1.1-2.9c-.73-.7-1.85-1.05-3.33-1.05h-4.33v8.01Z"/>
      <path class="cls-1" d="M194.3,79.54c1.09-1.86,2.57-3.31,4.43-4.35,1.87-1.04,3.91-1.56,6.13-1.56,2.54,0,4.8.62,6.79,1.87,1.98,1.25,3.42,3.02,4.31,5.31h-4.71c-.62-1.26-1.48-2.2-2.58-2.82-1.1-.62-2.37-.93-3.81-.93-1.58,0-2.99.36-4.23,1.07s-2.2,1.73-2.9,3.06c-.7,1.33-1.05,2.88-1.05,4.64s.35,3.31,1.05,4.64,1.67,2.35,2.9,3.07,2.65,1.08,4.23,1.08c1.44,0,2.71-.31,3.81-.93,1.1-.62,1.96-1.56,2.58-2.82h4.71c-.89,2.29-2.33,4.05-4.31,5.29-1.98,1.24-4.24,1.86-6.79,1.86-2.25,0-4.3-.52-6.15-1.56-1.86-1.04-3.33-2.49-4.42-4.35s-1.63-3.95-1.63-6.29.54-4.43,1.63-6.29Z"/>
      <path class="cls-1" d="M224.45,73.94v23.88h-3.92v-23.88h3.92Z"/>
      <path class="cls-1" d="M249.23,97.82h-3.92l-11.78-17.83v17.83h-3.92v-23.92h3.92l11.78,17.8v-17.8h3.92v23.92Z"/>
      <path class="cls-1" d="M271.66,80.81c-.62-1.19-1.48-2.09-2.58-2.7-1.1-.61-2.37-.91-3.81-.91-1.58,0-2.99.36-4.23,1.07-1.24.71-2.2,1.72-2.9,3.02s-1.05,2.82-1.05,4.54.35,3.24,1.05,4.55c.7,1.32,1.67,2.33,2.9,3.04,1.24.71,2.65,1.07,4.23,1.07,2.13,0,3.86-.6,5.19-1.79,1.33-1.19,2.14-2.81,2.44-4.84h-8.97v-3.13h13.16v3.06c-.25,1.86-.91,3.56-1.98,5.12s-2.45,2.8-4.16,3.73c-1.71.93-3.6,1.39-5.69,1.39-2.25,0-4.3-.52-6.15-1.56-1.86-1.04-3.33-2.49-4.42-4.35-1.09-1.86-1.63-3.95-1.63-6.29s.54-4.43,1.63-6.29c1.09-1.86,2.56-3.31,4.43-4.35,1.87-1.04,3.91-1.56,6.13-1.56,2.54,0,4.8.62,6.79,1.87,1.98,1.25,3.42,3.02,4.31,5.31h-4.71Z"/>
      <path class="cls-1" d="M302.28,97.82l-5.5-9.55h-2.99v9.55h-3.92v-23.88h8.25c1.83,0,3.38.32,4.66.96,1.27.64,2.22,1.5,2.85,2.58s.95,2.28.95,3.61c0,1.56-.45,2.97-1.36,4.24-.9,1.27-2.3,2.14-4.17,2.59l5.91,9.9h-4.67ZM293.79,85.14h4.33c1.47,0,2.57-.36,3.32-1.1.74-.73,1.12-1.72,1.12-2.96s-.37-2.2-1.1-2.9-1.84-1.05-3.33-1.05h-4.33v8.01Z"/>
      <path class="cls-1" d="M315.51,77.1v7.01h8.25v3.2h-8.25v7.32h9.28v3.2h-13.19v-23.92h13.19v3.2h-9.28Z"/>
      <path class="cls-1" d="M344.08,75.4c1.91.97,3.39,2.37,4.43,4.19,1.04,1.82,1.56,3.95,1.56,6.37s-.52,4.54-1.56,6.32c-1.04,1.79-2.52,3.16-4.43,4.11s-4.14,1.43-6.68,1.43h-7.8v-23.88h7.8c2.54,0,4.77.49,6.68,1.46ZM343.82,92.35c1.49-1.51,2.23-3.64,2.23-6.39s-.75-4.94-2.23-6.49c-1.49-1.56-3.63-2.34-6.43-2.34h-3.88v17.49h3.88c2.79,0,4.94-.75,6.43-2.27Z"/>
      <path class="cls-1" d="M357.87,77.1v7.01h8.25v3.2h-8.25v7.32h9.28v3.2h-13.19v-23.92h13.19v3.2h-9.28Z"/>
      <path class="cls-1" d="M386.02,73.94v3.19h-10.14v7.04h7.9v3.2h-7.9v10.45h-3.92v-23.88h14.05Z"/>
      <path class="cls-1" d="M393.58,73.94v23.88h-3.92v-23.88h3.92Z"/>
      <path class="cls-1" d="M418.35,97.82h-3.92l-11.78-17.83v17.83h-3.92v-23.92h3.92l11.78,17.8v-17.8h3.92v23.92Z"/>
      <path class="cls-1" d="M427.42,77.1v7.01h8.25v3.2h-8.25v7.32h9.28v3.2h-13.19v-23.92h13.19v3.2h-9.28Z"/>
      <path class="cls-1" d="M455.99,75.4c1.91.97,3.39,2.37,4.43,4.19,1.04,1.82,1.56,3.95,1.56,6.37s-.52,4.54-1.56,6.32c-1.04,1.79-2.52,3.16-4.43,4.11s-4.14,1.43-6.68,1.43h-7.8v-23.88h7.8c2.54,0,4.77.49,6.68,1.46ZM455.73,92.35c1.49-1.51,2.23-3.64,2.23-6.39s-.75-4.94-2.23-6.49c-1.49-1.56-3.63-2.34-6.43-2.34h-3.88v17.49h3.88c2.79,0,4.94-.75,6.43-2.27Z"/>
    </g>
    <g>
      <g>
        <path class="cls-2" d="M94.27,52.44c-1.46-3.47-3.9-4.47-7.24-4.11-1.66.18-3.48.7-3.56-2.42-.04-1.63-2.42-1.07-3.64-.48-1.29.62-2.36,1.1-3.4-.2-.67-.84-.8-1.79-.08-2.66,1.03-1.24,2.11-.78,3.45-.32,1.57.54,3.95,1.87,3.9-1.77-.02-1.34,1.17-.99,1.95-1,3.01-.03,6.02.06,9.03-.04,1.41-.04,2.47.28,3.32,1.45.76,1.05,1.71,1.85,3.12,2.07,1.13.17,1.49,1.14,1.42,2.21-.08,1.09-.65,1.79-1.78,1.96-1.1.16-2.02-.21-2.29-1.28-.44-1.79-1.44-3.64-2.97-3.92-2.81-.51-5.79-.36-8.67-.13-1.53.13-.7,1.73-.83,2.68-.13.94.2,1.89,1.36,1.63,4.3-.96,6.75,1.61,9.02,4.56.73.94,1.52.93,2.55.51,2.81-1.15,5.4-2.62,7.66-4.65.78-.71,1.61-1.5.34-2.26-4.16-2.48-3.15-6.49-3.24-10.21-.03-1.46.19-2.86-1.07-4.17-1.53-1.59-2.72-2.59-4.47-.39-.71.9-1.77,1.05-2.91,1.04-1.79-.01-3.6-.27-5.3.82-.76.49-1.89.47-2.5-.66-.44-.81-.62-1.61-.02-2.41.74-.99,1.65-1.17,2.83-.79,6.37,2.11,12.3-2.1,12.31-8.7,0-1.08-.07-2.16.02-3.22.14-1.61-.8-1.71-2-1.64-1.13.07-2.46-.34-2.39,1.61.05,1.51.15,2.91.91,4.31.47.87.05,1.92-.9,2.5-.81.49-1.73.47-2.43-.11-.77-.63-1.36-1.65-.71-2.55,1.05-1.46,1.04-3.07.82-4.62-.44-3.05.85-4.08,3.68-3.55,3.08.58,3.34-1.21,2.98-3.49-.29-1.8-1.8-2.02-3.14-2-1.8.03-2.94-.7-3.36-2.33-.33-1.28.34-2.38,1.5-2.93,1.65-.79,2.75-.03,3.76,1.41,1.06,1.52,2.96,2.03,4.48,3,10.39,6.57,15.08,20.42,10.91,32.3-4.27,12.17-16.48,20.05-28.87,18.58-.72-.09-2,.26-1.57-1.24.28-.95.33-2.22,1.89-2.12,2,.12,4.01.24,6.14-.27ZM104.92,8.64c0,4.8.02,8.97-.01,13.15-.01,1.44.64,3.04-1.82,3.6-1.48.33-.29,1.51.31,2.17,1.35,1.49,3,2.73,2.69,5.17-.15,1.21.64,1.46,1.63.72,1.2-.89,2.41-1.02,3.37.28.64.86.53,1.86-.15,2.68-.93,1.13-2.02,1.02-3.13.23-.63-.45-1.25-.96-1.72.22-.64,1.6.77,5.33,2.69,6.03,2.05.74,1.96-1.6,2.84-2.54.28-.3.44-.73.63-1.12,2.97-5.96,3.34-12.12,1.38-18.44-.32-1.03-.33-2.62-2-2.47-1.9.17-1.14,1.78-1.15,2.79-.03,1.78-.38,3.6.79,5.29.58.82.21,1.87-.63,2.59-.74.63-1.57.74-2.37.21-.87-.58-1.56-1.66-1.02-2.46,1.6-2.4.88-5,.88-7.49,0-2.21.2-3.79,3.3-3.18-1.54-3.08-3.68-5.09-6.5-7.42Z"/>
        <path class="cls-3" d="M66.37,32.91c2.01,8.59,6.73,14.49,14.57,17.93,1.06.46,3.43.17,2.18,2.75-1.11,2.3-2.59.85-3.75.39-16.95-6.76-22.41-29.35-10.53-43.39C75.05,3.27,83.04.12,92.53.57c.71.03,2.08-.43,1.92.92-.12.99-.27,2.73-1.97,2.36-4.36-.94-4.51,1.44-4.38,4.76.11,2.76,1.3,4.42,3.7,5.28,1.35.48,1.97,1.23,1.79,2.59-.12.92-.63,1.62-1.64,1.72-1.34.14-2.34-.28-2.58-1.76-.21-1.27-.81-2.42-2.15-2.4-1.74.03-2.8,1.55-3.83,2.7-1.08,1.2.56,1.85,1.2,2.48,1.1,1.08,1.43,2.25,1.39,3.73-.09,3.33.03,6.67-.05,10-.04,1.53.5,2.19,2.04,2.01,3.56-.41,7.26.91,10.74-.94.75-.4,1.73-.03,2.29.75.54.74.66,1.56.18,2.41-.47.83-1.3,1.5-2.08,1.12-4.22-2.04-8.66-.71-12.99-.94-1.91-.1-2.84-.43-2.47-2.48.09-.52.01-1.07.01-1.61q0-12.41-8.79-21.08c-.59-.58-1.02-1.84-2.22-.63-1.12,1.12-.1,1.67.48,2.36.27.33.58.64.87.95,8.43,9.18,8.36,9.17,7.61,21.64-.14,2.24-1.42,2.29-2.73,1.92-2.47-.69-6.24,2.09-7.32-1.65-1.15-3.98-.59-4.14-5.18-3.85ZM70.45,14.42c-2.76,3.44-4.13,7.65-4.62,12.66-.27,2.72.59,3.8,3.31,3.39,3.06-.46,5.29.02,4.58,3.99-.35,1.95,1.24,1.74,2.31,1.55,1.1-.21,3.09,1.15,3.14-1.35.07-3.32.12-6.65-.03-9.97-.08-1.86-1.65-3.22-3.03-3.87-1.29-.61-1.64,1.51-2.47,2.35-.5.51-.8,1.25-1.05,1.94-.44,1.19-.99,2.16-2.47,2.03-1.11-.1-1.79-.77-1.93-1.83-.21-1.6.82-2.08,2.19-2.6,3.31-1.26,3.9-4.13,1.56-6.69-.43-.47-.87-.94-1.48-1.59ZM75.27,9.26c1.55,1.69,3.05,3.37,4.59,5.01.42.45.76,1.11,1.52,1.02,2.7-.31,6.09-8.31,4.45-10.52-.51-.69-1.13-.23-1.72-.08-3.24.84-6.26,2.11-8.84,4.57Z"/>
      </g>
      <path class="cls-1" d="M3.72,13.8c2.48-4.35,5.87-7.73,10.16-10.16C18.17,1.21,22.99,0,28.32,0c6.24,0,11.71,1.6,16.4,4.8,4.69,3.2,7.97,7.63,9.84,13.28h-12.88c-1.28-2.67-3.08-4.67-5.4-6-2.32-1.33-5-2-8.04-2-3.25,0-6.15.76-8.68,2.28-2.53,1.52-4.51,3.67-5.92,6.44-1.41,2.77-2.12,6.03-2.12,9.76s.71,6.92,2.12,9.72c1.41,2.8,3.39,4.96,5.92,6.48,2.53,1.52,5.43,2.28,8.68,2.28,3.04,0,5.72-.68,8.04-2.04,2.32-1.36,4.12-3.37,5.4-6.04h12.88c-1.87,5.71-5.13,10.15-9.8,13.32-4.67,3.17-10.15,4.76-16.44,4.76-5.33,0-10.15-1.21-14.44-3.64-4.29-2.43-7.68-5.8-10.16-10.12-2.48-4.32-3.72-9.23-3.72-14.72s1.24-10.41,3.72-14.76Z"/>
      <path class="cls-1" d="M187.84.72v55.84h-11.2V20.24l-14.96,36.32h-8.48l-15.04-36.32v36.32h-11.2V.72h12.72l17.76,41.52L175.2.72h12.64Z"/>
      <path class="cls-1" d="M237.48,26.4c-1.41,2.61-3.63,4.72-6.64,6.32-3.01,1.6-6.81,2.4-11.4,2.4h-9.36v21.44h-11.2V.72h20.56c4.32,0,8,.75,11.04,2.24s5.32,3.55,6.84,6.16c1.52,2.61,2.28,5.57,2.28,8.88,0,2.99-.71,5.79-2.12,8.4ZM225.84,23.96c1.49-1.41,2.24-3.4,2.24-5.96,0-5.44-3.04-8.16-9.12-8.16h-8.88v16.24h8.88c3.09,0,5.39-.71,6.88-2.12Z"/>
      <path class="cls-1" d="M258.56.72v34.56c0,3.79.99,6.68,2.96,8.68s4.75,3,8.32,3,6.43-1,8.4-3c1.97-2,2.96-4.89,2.96-8.68V.72h11.28v34.48c0,4.75-1.03,8.76-3.08,12.04-2.05,3.28-4.8,5.75-8.24,7.4-3.44,1.65-7.27,2.48-11.48,2.48s-7.93-.83-11.32-2.48c-3.39-1.65-6.07-4.12-8.04-7.4-1.97-3.28-2.96-7.29-2.96-12.04V.72h11.2Z"/>
      <path class="cls-1" d="M341.28.72v9.04h-14.88v46.8h-11.2V9.76h-14.88V.72h40.96Z"/>
      <path class="cls-1" d="M393.83.72l-18.88,36.4v19.44h-11.2v-19.44L344.79.72h12.64l12,25.52,11.92-25.52h12.48Z"/>
      <path class="cls-1" d="M448.07,56.56h-11.2l-25.36-38.32v38.32h-11.2V.64h11.2l25.36,38.4V.64h11.2v55.92Z"/>
      <path class="cls-1" d="M470.31,9.76v14h18.8v8.88h-18.8v14.8h21.2v9.12h-32.4V.64h32.4v9.12h-21.2Z"/>
    </g>
  </g>
</svg>