<?xml version="1.0" encoding="UTF-8"?>
<svg id="Layer_2" data-name="Layer 2" xmlns="http://www.w3.org/2000/svg" viewBox="0 0 491.51 96.66">
  <defs>
    <style>
      .cls-1 {
        fill: #fff;
      }

      .cls-2 {
        fill: #ff3221;
      }
    </style>
  </defs>
  <g id="Layer_1-2" data-name="Layer 1">
    <path class="cls-1" d="M94.27,52.44c-1.46-3.47-3.9-4.47-7.24-4.11-1.66.18-3.48.7-3.56-2.42-.04-1.63-2.42-1.07-3.64-.48-1.29.62-2.36,1.1-3.4-.2-.67-.84-.8-1.79-.08-2.66,1.03-1.24,2.11-.78,3.45-.32,1.57.54,3.95,1.87,3.9-1.77-.02-1.34,1.17-.99,1.95-1,3.01-.03,6.02.06,9.03-.04,1.41-.04,2.47.28,3.32,1.45.76,1.05,1.71,1.85,3.12,2.07,1.13.17,1.49,1.14,1.42,2.21-.08,1.09-.65,1.79-1.78,1.96-1.1.16-2.02-.21-2.29-1.28-.44-1.79-1.44-3.64-2.97-3.92-2.81-.51-5.79-.36-8.67-.13-1.53.13-.7,1.73-.83,2.68-.13.94.2,1.89,1.36,1.63,4.3-.96,6.75,1.61,9.02,4.56.73.94,1.52.93,2.55.51,2.81-1.15,5.4-2.62,7.66-4.65.78-.71,1.61-1.5.34-2.26-4.16-2.48-3.15-6.49-3.24-10.21-.03-1.46.19-2.86-1.07-4.17-1.53-1.59-2.72-2.59-4.47-.39-.71.9-1.77,1.05-2.91,1.04-1.79-.01-3.6-.27-5.3.82-.76.49-1.89.47-2.5-.66-.44-.81-.62-1.61-.02-2.41.74-.99,1.65-1.17,2.83-.79,6.37,2.11,12.3-2.1,12.31-8.7,0-1.08-.07-2.16.02-3.22.14-1.61-.8-1.71-2-1.64-1.13.07-2.46-.34-2.39,1.61.05,1.51.15,2.91.91,4.31.47.87.05,1.92-.9,2.5-.81.49-1.73.47-2.43-.11-.77-.63-1.36-1.65-.71-2.55,1.05-1.46,1.04-3.07.82-4.62-.44-3.05.85-4.08,3.68-3.55,3.08.58,3.34-1.21,2.98-3.49-.29-1.8-1.8-2.02-3.14-2-1.8.03-2.94-.7-3.36-2.33-.33-1.28.34-2.38,1.5-2.93,1.65-.79,2.75-.03,3.76,1.41,1.06,1.52,2.96,2.03,4.48,3,10.39,6.57,15.08,20.42,10.91,32.3-4.27,12.17-16.48,20.05-28.87,18.58-.72-.09-2,.26-1.57-1.24.28-.95.33-2.22,1.89-2.12,2,.12,4.01.24,6.14-.27ZM104.92,8.64c0,4.8.02,8.97-.01,13.15-.01,1.44.64,3.04-1.82,3.6-1.48.33-.29,1.51.31,2.17,1.35,1.49,3,2.73,2.69,5.17-.15,1.21.64,1.46,1.63.72,1.2-.89,2.41-1.02,3.37.28.64.86.53,1.86-.15,2.68-.93,1.13-2.02,1.02-3.13.23-.63-.45-1.25-.96-1.72.22-.64,1.6.77,5.33,2.69,6.03,2.05.74,1.96-1.6,2.84-2.54.28-.3.44-.73.63-1.12,2.97-5.96,3.34-12.12,1.38-18.44-.32-1.03-.33-2.62-2-2.47-1.9.17-1.14,1.78-1.15,2.79-.03,1.78-.38,3.6.79,5.29.58.82.21,1.87-.63,2.59-.74.63-1.57.74-2.37.21-.87-.58-1.56-1.66-1.02-2.46,1.6-2.4.88-5,.88-7.49,0-2.21.2-3.79,3.3-3.18-1.54-3.08-3.68-5.09-6.5-7.42Z"/>
    <path class="cls-2" d="M66.37,32.91c2.01,8.59,6.73,14.49,14.57,17.93,1.06.46,3.43.17,2.18,2.75-1.11,2.3-2.59.85-3.75.39-16.95-6.76-22.41-29.35-10.53-43.39C75.05,3.27,83.04.12,92.53.57c.71.03,2.08-.43,1.92.92-.12.99-.27,2.73-1.97,2.36-4.36-.94-4.51,1.44-4.38,4.76.11,2.76,1.3,4.42,3.7,5.28,1.35.48,1.97,1.23,1.79,2.59-.12.92-.63,1.62-1.64,1.72-1.34.14-2.34-.28-2.58-1.76-.21-1.27-.81-2.42-2.15-2.4-1.74.03-2.8,1.55-3.83,2.7-1.08,1.2.56,1.85,1.2,2.48,1.1,1.08,1.43,2.25,1.39,3.73-.09,3.33.03,6.67-.05,10-.04,1.53.5,2.19,2.04,2.01,3.56-.41,7.26.91,10.74-.94.75-.4,1.73-.03,2.29.75.54.74.66,1.56.18,2.41-.47.83-1.3,1.5-2.08,1.12-4.22-2.04-8.66-.71-12.99-.94-1.91-.1-2.84-.43-2.47-2.48.09-.52.01-1.07.01-1.61q0-12.41-8.79-21.08c-.59-.58-1.02-1.84-2.22-.63-1.12,1.12-.1,1.67.48,2.36.27.33.58.64.87.95,8.43,9.18,8.36,9.17,7.61,21.64-.14,2.24-1.42,2.29-2.73,1.92-2.47-.69-6.24,2.09-7.32-1.65-1.15-3.98-.59-4.14-5.18-3.85ZM70.45,14.42c-2.76,3.44-4.13,7.65-4.62,12.66-.27,2.72.59,3.8,3.31,3.39,3.06-.46,5.29.02,4.58,3.99-.35,1.95,1.24,1.74,2.31,1.55,1.1-.21,3.09,1.15,3.14-1.35.07-3.32.12-6.65-.03-9.97-.08-1.86-1.65-3.22-3.03-3.87-1.29-.61-1.64,1.51-2.47,2.35-.5.51-.8,1.25-1.05,1.94-.44,1.19-.99,2.16-2.47,2.03-1.11-.1-1.79-.77-1.93-1.83-.21-1.6.82-2.08,2.19-2.6,3.31-1.26,3.9-4.13,1.56-6.69-.43-.47-.87-.94-1.48-1.59ZM75.27,9.26c1.55,1.69,3.05,3.37,4.59,5.01.42.45.76,1.11,1.52,1.02,2.7-.31,6.09-8.31,4.45-10.52-.51-.69-1.13-.23-1.72-.08-3.24.84-6.26,2.11-8.84,4.57Z"/>
    <path class="cls-1" d="M46.09,95.17c-1.77-.99-3.18-2.37-4.21-4.15s-1.55-3.77-1.55-5.99.52-4.21,1.55-5.97c1.03-1.76,2.44-3.14,4.21-4.13,1.77-.99,3.72-1.49,5.83-1.49s4.08.5,5.86,1.49c1.77.99,3.17,2.37,4.19,4.13,1.02,1.76,1.54,3.75,1.54,5.97s-.51,4.22-1.54,5.99-2.42,3.15-4.19,4.15-3.73,1.49-5.86,1.49-4.05-.49-5.83-1.49ZM55.93,92.4c1.17-.69,2.09-1.67,2.76-2.94s1-2.75,1-4.42-.33-3.14-1-4.41c-.66-1.26-1.58-2.23-2.76-2.91-1.18-.67-2.51-1.01-4.02-1.01s-2.84.34-4.02,1.01c-1.18.67-2.09,1.64-2.76,2.91-.66,1.26-1,2.73-1,4.41s.33,3.15,1,4.42c.66,1.27,1.58,2.25,2.76,2.94,1.17.69,2.51,1.03,4.02,1.03s2.84-.34,4.02-1.03Z"/>
    <path class="cls-1" d="M70.85,73.74v14.46c0,1.72.45,3.01,1.35,3.88.9.87,2.16,1.31,3.77,1.31s2.9-.43,3.8-1.31c.9-.87,1.35-2.17,1.35-3.88v-14.46h3.72v14.4c0,1.85-.4,3.42-1.21,4.7s-1.88,2.24-3.23,2.87c-1.35.63-2.84.95-4.47.95s-3.12-.31-4.46-.95c-1.34-.63-2.4-1.59-3.18-2.87s-1.18-2.85-1.18-4.7v-14.4h3.72Z"/>
    <path class="cls-1" d="M104.34,73.74v3.04h-6.04v19.65h-3.72v-19.65h-6.07v-3.04h15.83Z"/>
    <path class="cls-1" d="M111.46,95.86c-1.22-.53-2.18-1.29-2.87-2.27s-1.04-2.12-1.04-3.43h3.98c.09.98.47,1.79,1.16,2.42s1.65.95,2.89.95,2.29-.31,3-.93c.72-.62,1.08-1.42,1.08-2.4,0-.76-.22-1.38-.67-1.86-.45-.48-1-.85-1.67-1.11-.66-.26-1.58-.54-2.76-.85-1.48-.39-2.68-.79-3.61-1.19-.93-.4-1.71-1.03-2.37-1.88s-.98-1.98-.98-3.39c0-1.31.33-2.45.98-3.43s1.57-1.73,2.74-2.25c1.18-.52,2.53-.78,4.08-.78,2.2,0,4,.55,5.4,1.65,1.4,1.1,2.18,2.61,2.33,4.52h-4.11c-.07-.83-.46-1.53-1.17-2.12-.72-.59-1.67-.88-2.84-.88-1.07,0-1.94.27-2.61.82-.67.54-1.01,1.33-1.01,2.35,0,.7.21,1.27.63,1.71.43.45.96.8,1.62,1.06.65.26,1.54.54,2.68.85,1.5.41,2.73.83,3.67,1.24s1.75,1.05,2.42,1.91,1,2.01,1,3.44c0,1.15-.31,2.24-.93,3.26s-1.52,1.85-2.71,2.47-2.58.93-4.19.93c-1.52,0-2.89-.27-4.11-.8Z"/>
    <path class="cls-1" d="M132.33,95.17c-1.77-.99-3.18-2.37-4.21-4.15s-1.55-3.77-1.55-5.99.52-4.21,1.55-5.97c1.03-1.76,2.44-3.14,4.21-4.13,1.77-.99,3.72-1.49,5.83-1.49s4.08.5,5.86,1.49c1.77.99,3.17,2.37,4.19,4.13,1.02,1.76,1.54,3.75,1.54,5.97s-.51,4.22-1.54,5.99-2.42,3.15-4.19,4.15c-1.77.99-3.73,1.49-5.86,1.49s-4.05-.49-5.83-1.49ZM142.18,92.4c1.18-.69,2.09-1.67,2.76-2.94.66-1.27.99-2.75.99-4.42s-.33-3.14-.99-4.41c-.66-1.26-1.58-2.23-2.76-2.91-1.17-.67-2.51-1.01-4.01-1.01s-2.84.34-4.02,1.01c-1.17.67-2.09,1.64-2.76,2.91-.66,1.26-1,2.73-1,4.41s.33,3.15,1,4.42,1.58,2.25,2.76,2.94c1.18.69,2.51,1.03,4.02,1.03s2.84-.34,4.01-1.03Z"/>
    <path class="cls-1" d="M157.1,73.74v14.46c0,1.72.45,3.01,1.35,3.88.9.87,2.16,1.31,3.77,1.31s2.9-.43,3.8-1.31c.9-.87,1.35-2.17,1.35-3.88v-14.46h3.72v14.4c0,1.85-.4,3.42-1.21,4.7-.81,1.28-1.88,2.24-3.23,2.87-1.35.63-2.84.95-4.47.95s-3.12-.31-4.46-.95c-1.34-.63-2.4-1.59-3.18-2.87s-1.17-2.85-1.17-4.7v-14.4h3.72Z"/>
    <path class="cls-1" d="M187.71,96.43l-5.22-9.08h-2.84v9.08h-3.72v-22.69h7.84c1.74,0,3.21.3,4.42.91,1.21.61,2.11,1.43,2.71,2.45.6,1.02.9,2.17.9,3.43,0,1.48-.43,2.82-1.29,4.03-.86,1.21-2.18,2.03-3.97,2.46l5.62,9.4h-4.44ZM179.65,84.38h4.11c1.39,0,2.44-.35,3.15-1.04.71-.7,1.06-1.63,1.06-2.81s-.35-2.09-1.04-2.76c-.7-.66-1.75-1-3.17-1h-4.11v7.61Z"/>
    <path class="cls-1" d="M196.87,79.06c1.03-1.76,2.44-3.14,4.21-4.13,1.77-.99,3.72-1.49,5.83-1.49,2.41,0,4.56.59,6.45,1.78,1.88,1.19,3.25,2.87,4.1,5.04h-4.47c-.59-1.2-1.4-2.09-2.45-2.68-1.05-.59-2.25-.88-3.62-.88-1.5,0-2.84.34-4.02,1.01s-2.09,1.64-2.76,2.91c-.66,1.26-1,2.73-1,4.41s.33,3.15,1,4.41,1.58,2.24,2.76,2.92,2.51,1.03,4.02,1.03c1.37,0,2.58-.29,3.62-.88,1.04-.59,1.86-1.48,2.45-2.68h4.47c-.85,2.18-2.21,3.85-4.1,5.03-1.88,1.18-4.03,1.76-6.45,1.76-2.13,0-4.08-.49-5.84-1.49-1.76-.99-3.16-2.37-4.2-4.13s-1.55-3.75-1.55-5.97.52-4.21,1.55-5.97Z"/>
    <path class="cls-1" d="M225.52,73.74v22.69h-3.72v-22.69h3.72Z"/>
    <path class="cls-1" d="M249.05,96.43h-3.72l-11.2-16.94v16.94h-3.72v-22.72h3.72l11.2,16.91v-16.91h3.72v22.72Z"/>
    <path class="cls-1" d="M270.37,80.27c-.59-1.13-1.4-1.99-2.45-2.56-1.05-.58-2.25-.87-3.62-.87-1.5,0-2.84.34-4.02,1.01-1.18.67-2.09,1.63-2.76,2.87s-.99,2.68-.99,4.31.33,3.07.99,4.33c.66,1.25,1.58,2.22,2.76,2.89,1.18.67,2.51,1.01,4.02,1.01,2.02,0,3.67-.57,4.93-1.7,1.26-1.13,2.03-2.67,2.32-4.6h-8.52v-2.97h12.5v2.91c-.24,1.76-.86,3.38-1.88,4.86s-2.33,2.66-3.95,3.54c-1.62.88-3.42,1.32-5.4,1.32-2.13,0-4.08-.49-5.84-1.49-1.76-.99-3.16-2.37-4.19-4.13-1.03-1.76-1.55-3.75-1.55-5.97s.52-4.21,1.55-5.97c1.03-1.76,2.44-3.14,4.21-4.13,1.77-.99,3.72-1.49,5.83-1.49,2.41,0,4.56.59,6.45,1.78,1.88,1.19,3.25,2.87,4.1,5.04h-4.47Z"/>
    <path class="cls-1" d="M299.46,96.43l-5.22-9.08h-2.84v9.08h-3.72v-22.69h7.83c1.74,0,3.22.3,4.42.91,1.21.61,2.11,1.43,2.71,2.45s.9,2.17.9,3.43c0,1.48-.43,2.82-1.29,4.03-.86,1.21-2.18,2.03-3.97,2.46l5.61,9.4h-4.44ZM291.39,84.38h4.11c1.39,0,2.44-.35,3.15-1.04.71-.7,1.06-1.63,1.06-2.81s-.35-2.09-1.05-2.76-1.75-1-3.17-1h-4.11v7.61Z"/>
    <path class="cls-1" d="M312.02,76.74v6.66h7.83v3.04h-7.83v6.95h8.81v3.04h-12.54v-22.72h12.54v3.04h-8.81Z"/>
    <path class="cls-1" d="M339.17,75.13c1.82.93,3.22,2.25,4.21,3.98.99,1.73,1.49,3.75,1.49,6.06s-.49,4.31-1.49,6.01c-.99,1.7-2.39,3-4.21,3.9s-3.93,1.35-6.35,1.35h-7.41v-22.69h7.41c2.42,0,4.53.46,6.35,1.39ZM338.92,91.24c1.41-1.44,2.12-3.46,2.12-6.07s-.71-4.69-2.12-6.17c-1.42-1.48-3.45-2.22-6.1-2.22h-3.69v16.62h3.69c2.66,0,4.69-.72,6.1-2.15Z"/>
    <path class="cls-1" d="M352.27,76.74v6.66h7.83v3.04h-7.83v6.95h8.81v3.04h-12.54v-22.72h12.54v3.04h-8.81Z"/>
    <path class="cls-1" d="M379.01,73.74v3.04h-9.63v6.69h7.51v3.04h-7.51v9.92h-3.72v-22.69h13.35Z"/>
    <path class="cls-1" d="M386.19,73.74v22.69h-3.72v-22.69h3.72Z"/>
    <path class="cls-1" d="M409.73,96.43h-3.72l-11.2-16.94v16.94h-3.72v-22.72h3.72l11.2,16.91v-16.91h3.72v22.72Z"/>
    <path class="cls-1" d="M418.35,76.74v6.66h7.83v3.04h-7.83v6.95h8.81v3.04h-12.54v-22.72h12.54v3.04h-8.81Z"/>
    <path class="cls-1" d="M445.49,75.13c1.82.93,3.22,2.25,4.21,3.98.99,1.73,1.49,3.75,1.49,6.06s-.49,4.31-1.49,6.01c-.99,1.7-2.39,3-4.21,3.9s-3.93,1.35-6.35,1.35h-7.41v-22.69h7.41c2.42,0,4.53.46,6.35,1.39ZM445.25,91.24c1.41-1.44,2.12-3.46,2.12-6.07s-.71-4.69-2.12-6.17c-1.42-1.48-3.45-2.22-6.1-2.22h-3.69v16.62h3.69c2.66,0,4.69-.72,6.1-2.15Z"/>
    <path class="cls-1" d="M3.72,13.8c2.48-4.35,5.87-7.73,10.16-10.16C18.17,1.21,22.99,0,28.32,0c6.24,0,11.71,1.6,16.4,4.8,4.69,3.2,7.97,7.63,9.84,13.28h-12.88c-1.28-2.67-3.08-4.67-5.4-6-2.32-1.33-5-2-8.04-2-3.25,0-6.15.76-8.68,2.28-2.53,1.52-4.51,3.67-5.92,6.44-1.41,2.77-2.12,6.03-2.12,9.76s.71,6.92,2.12,9.72c1.41,2.8,3.39,4.96,5.92,6.48,2.53,1.52,5.43,2.28,8.68,2.28,3.04,0,5.72-.68,8.04-2.04,2.32-1.36,4.12-3.37,5.4-6.04h12.88c-1.87,5.71-5.13,10.15-9.8,13.32-4.67,3.17-10.15,4.76-16.44,4.76-5.33,0-10.15-1.21-14.44-3.64-4.29-2.43-7.68-5.8-10.16-10.12-2.48-4.32-3.72-9.23-3.72-14.72s1.24-10.41,3.72-14.76Z"/>
    <path class="cls-1" d="M187.84.72v55.84h-11.2V20.24l-14.96,36.32h-8.48l-15.04-36.32v36.32h-11.2V.72h12.72l17.76,41.52L175.2.72h12.64Z"/>
    <path class="cls-1" d="M237.48,26.4c-1.41,2.61-3.63,4.72-6.64,6.32-3.01,1.6-6.81,2.4-11.4,2.4h-9.36v21.44h-11.2V.72h20.56c4.32,0,8,.75,11.04,2.24s5.32,3.55,6.84,6.16c1.52,2.61,2.28,5.57,2.28,8.88,0,2.99-.71,5.79-2.12,8.4ZM225.84,23.96c1.49-1.41,2.24-3.4,2.24-5.96,0-5.44-3.04-8.16-9.12-8.16h-8.88v16.24h8.88c3.09,0,5.39-.71,6.88-2.12Z"/>
    <path class="cls-1" d="M258.56.72v34.56c0,3.79.99,6.68,2.96,8.68s4.75,3,8.32,3,6.43-1,8.4-3c1.97-2,2.96-4.89,2.96-8.68V.72h11.28v34.48c0,4.75-1.03,8.76-3.08,12.04-2.05,3.28-4.8,5.75-8.24,7.4-3.44,1.65-7.27,2.48-11.48,2.48s-7.93-.83-11.32-2.48c-3.39-1.65-6.07-4.12-8.04-7.4-1.97-3.28-2.96-7.29-2.96-12.04V.72h11.2Z"/>
    <path class="cls-1" d="M341.28.72v9.04h-14.88v46.8h-11.2V9.76h-14.88V.72h40.96Z"/>
    <path class="cls-1" d="M393.83.72l-18.88,36.4v19.44h-11.2v-19.44L344.79.72h12.64l12,25.52,11.92-25.52h12.48Z"/>
    <path class="cls-1" d="M448.07,56.56h-11.2l-25.36-38.32v38.32h-11.2V.64h11.2l25.36,38.4V.64h11.2v55.92Z"/>
    <path class="cls-1" d="M470.31,9.76v14h18.8v8.88h-18.8v14.8h21.2v9.12h-32.4V.64h32.4v9.12h-21.2Z"/>
  </g>
</svg>