<svg xmlns="http://www.w3.org/2000/svg" id="Layer_2" data-name="Layer 2" viewBox="0 0 321.05 128.52">
  <defs fill="#ffffff">
    <style>
      .cls-1 {
        fill: #ffffff;
      }

      .cls-1, .cls-2, .cls-3 {
        stroke-width: 0px;
      }

      .cls-2 {
        fill: #ff3221;
      }

      .cls-3 {
        fill: #ffffff;
      }
    </style>
  </defs>
  <g id="Layer_1-2" data-name="Layer 1">
    <g>
      <path class="cls-3" d="M112.77,107.55c-11.08,5.98-22.42,8.96-34.02,8.96-12.76,0-22.94-2.96-30.54-8.88-12.14-9.43-19.1-22.35-20.91-38.75L1.3,76.94c1.25,6.58,3.38,12.88,6.44,18.87,11.14,21.81,31.85,32.72,62.13,32.72,15.14,0,28.83-3.37,41.07-10.09l4-8.88-2.18-2Z" fill="#ffffff"/>
      <path class="cls-2" d="M38.81,23.58c8.01-8.93,19.06-13.4,33.15-13.4s24.16,4.09,31.41,12.27c.46,2.73.78,7.6.96,14.62l.87.96h5.13l.78-.87c.46-10.73,1.68-20.1,3.65-28.11l-1.13-1.31C100.07,2.58,86.17,0,71.96,0,49.57,0,31.9,5.83,18.97,17.49,6.32,28.8,0,43.97,0,63c0,.09,0,.18,0,.27l29.69-23.54c2-6.21,5.03-11.6,9.11-16.15Z" fill="#ffffff"/>
    </g>
    <g>
      <path class="cls-1" d="M138.05,75.01l-.21.21c-1.42-.09-3.62-.13-6.62-.13s-5.27.04-6.62.13l-.19-.19v-1.46l.21-.21c1.46-.09,2.3-.16,2.51-.21.42-.11.66-.38.73-.79.19-1.03.28-3.25.28-6.66v-14.52l-4.79,9.82c-.27.54-1.2,2.55-2.79,6.02l-3.93,8.59h-1.44c-.75-1.78-1.75-4.02-3.03-6.72l-3.01-6.38-5.63-11.71v14.91c0,3.41.09,5.63.28,6.66.07.42.31.68.73.79.21.06,1.05.13,2.51.21l.21.21v1.46l-.21.19c-1.65-.09-3.18-.13-4.6-.13-1.65,0-3.3.04-4.96.13l-.21-.19v-1.46l.21-.21c1.46-.09,2.3-.16,2.51-.21.42-.11.66-.38.73-.79.19-1.03.28-3.25.28-6.66v-11.37c0-3.41-.09-5.63-.28-6.66-.07-.42-.32-.68-.73-.79-.21-.06-1.05-.13-2.51-.21l-.21-.21v-1.46l.21-.19c1.49.09,3.37.13,5.65.13,1.75,0,3.27-.04,4.58-.13.47,1.09,1.15,2.62,2.02,4.6l1.38,2.96,6.83,14.29,3.29-6.66,5.13-10.98c.6-1.3,1.19-2.71,1.76-4.21,1.62.09,2.71.13,3.27.13,2.81,0,4.96-.04,6.45-.13l.21.19v1.48l-.21.19c-1.46.09-2.3.16-2.51.21-.42.12-.66.38-.73.79-.19,1.03-.28,3.25-.28,6.66v11.37c0,3.41.09,5.63.28,6.66.07.42.31.68.73.79.21.06,1.05.13,2.51.21l.21.21v1.44Z" fill="#ffffff"/>
      <path class="cls-1" d="M165.33,51.51c0,2.95-1.01,5.25-3.02,6.91-2.01,1.65-4.29,2.48-6.82,2.48-.86,0-1.73-.1-2.6-.3-.13-.39-.38-.9-.75-1.55l.45-.47c.6.2,1.15.3,1.65.3,1.45,0,2.61-.51,3.48-1.54.87-1.02,1.31-2.46,1.31-4.31,0-4-1.8-5.99-5.39-5.99-.43,0-1.29.09-2.58.26-.13.34-.19,2.69-.19,7.03v11.37c0,3.41.09,5.63.28,6.66.07.42.31.68.73.79.13.03,1.11.1,2.94.21l.24.24v1.42l-.21.21c-1.96-.09-4.31-.13-7.05-.13-3.08,0-5.29.04-6.62.13l-.21-.19v-1.44l.24-.24c1.45-.09,2.28-.16,2.49-.21.42-.11.66-.38.73-.79.19-1.03.28-3.25.28-6.66v-11.37c0-3.41-.09-5.63-.28-6.66-.07-.42-.32-.68-.73-.79-.21-.06-1.05-.13-2.51-.21l-.21-.24v-1.42l.24-.21c1.4.09,3.56.13,6.47.13,1.2,0,2.94-.02,5.2-.06,2.26-.04,3.57-.06,3.91-.06,3.92,0,6.47,1,7.65,2.99.6,1.03.9,2.28.9,3.74Z" fill="#ffffff"/>
      <path class="cls-1" d="M199.54,46.44l-.21.21c-1.69,0-2.64.45-2.86,1.35-.11.5-.2,1.59-.26,3.27-.04,1.25-.06,3.04-.06,5.39v6.62c0,4.25-.84,7.29-2.51,9.11-2.22,2.41-5.39,3.61-9.5,3.61-3.75,0-6.68-.62-8.79-1.87-1.78-1.06-2.94-2.56-3.48-4.51-.34-1.25-.52-4.5-.52-9.75v-5.54c0-3.41-.09-5.63-.28-6.66-.07-.42-.32-.68-.73-.79-.21-.06-1.05-.13-2.51-.21l-.21-.21v-1.44l.21-.21c1.38.09,3.58.13,6.62.13s5.29-.04,6.6-.13l.21.21v1.44l-.21.21c-1.46.09-2.3.16-2.51.21-.42.12-.66.38-.73.79-.19,1.03-.28,3.25-.28,6.66v4.43c0,5.41.24,8.73.73,9.95.97,2.41,3.37,3.61,7.2,3.61,2.51,0,4.46-.62,5.87-1.85.66-.59,1.12-1.18,1.38-1.78s.46-1.53.6-2.79c.13-1.17.19-2.36.19-3.57v-4.47c0-3.75-.01-6.32-.04-7.69-.03-1.29-.11-2.13-.26-2.51-.11-.29-.37-.51-.75-.67-.33-.13-1.21-.24-2.64-.32l-.21-.21v-1.44l.21-.21c1.25.09,2.53.13,3.85.13.99,0,2.89-.04,5.69-.13l.21.21v1.44Z" fill="#ffffff"/>
      <path class="cls-1" d="M229.14,44.91c-.17,1.06-.27,2.16-.28,3.29l-.04,3.59-.21.21h-1.35l-.24-.19c-.07-1.83-.15-2.91-.24-3.22-.17-.57-.63-.91-1.38-1.01-.29-.04-1.63-.06-4.04-.06h-2.88c-.03.5-.04,2.49-.04,5.97v12.2c0,3.41.09,5.63.28,6.66.07.42.31.68.73.79.21.06,1.05.13,2.51.21l.21.21v1.44l-.21.21c-1.42-.09-3.62-.13-6.62-.13s-5.27.04-6.62.13l-.19-.19v-1.46l.21-.21c1.46-.09,2.3-.16,2.51-.21.42-.11.66-.38.73-.79.19-1.03.28-3.25.28-6.66v-12.2c0-3.54-.02-5.53-.06-5.97h-3.07c-2.56,0-4.06.08-4.49.24-.23.09-.39.19-.47.32-.13.23-.24.69-.32,1.38-.1.76-.17,1.54-.19,2.34l-.21.21h-1.35l-.24-.21-.04-3.67c-.01-1.03-.1-2.1-.26-3.2l.19-.21c.84.14,3.92.21,9.24.21h8.7c4.9,0,7.98-.07,9.24-.21l.21.21Z" fill="#ffffff"/>
      <path class="cls-1" d="M259,45.79c-2.26,3.08-4.74,6.85-7.43,11.32-1.52,2.52-2.36,4.13-2.51,4.83-.09.37-.13.91-.13,1.61v2.13c0,4.2.13,6.53.39,7,.11.2.28.33.49.39.36.1,1.24.19,2.64.28l.21.21v1.44l-.21.21c-1.42-.09-3.62-.13-6.62-.13s-5.27.04-6.62.13l-.19-.19v-1.46l.21-.21c1.4-.09,2.28-.18,2.64-.28.21-.06.38-.19.49-.39.26-.47.39-2.81.39-7v-2.54c0-.54-1.12-2.72-3.37-6.53-2.29-3.88-4.12-6.52-5.48-7.91-.66-.67-1.1-1.06-1.33-1.15-.23-.09-.77-.14-1.61-.14l-.24-.24v-1.2l.21-.24c3.49-.69,5.74-1.17,6.72-1.46.74.36,1.41.82,2,1.4,1.22,1.19,2.85,3.84,4.9,7.95l2.81,5.63c.84-1.36,2.46-4.1,4.83-8.21l2.38-4.28c.26-.47.61-1.12,1.05-1.96h3.14l.21.21v.75Z" fill="#ffffff"/>
      <path class="cls-1" d="M294.6,46.44l-.24.21c-1.46.09-2.3.16-2.51.21-.42.12-.66.38-.73.79-.19,1.03-.28,3.25-.28,6.66v8.72c0,6.43.09,10.62.28,12.57l-.28.19c-1.62-.27-2.84-.47-3.67-.58-3.84-4.31-10.39-12.17-19.66-23.59v14.05c0,3.41.09,5.63.28,6.66.07.42.31.68.73.79.21.06,1.05.13,2.51.21l.21.21v1.46l-.21.19c-1.65-.09-3.18-.13-4.6-.13-1.65,0-3.3.04-4.96.13l-.21-.19v-1.46l.21-.21c1.46-.09,2.3-.16,2.51-.21.42-.11.66-.38.73-.79.19-1.03.28-3.25.28-6.66v-11.37c0-3.41-.09-5.63-.28-6.66-.07-.42-.32-.68-.73-.79-.21-.06-1.05-.13-2.51-.21l-.21-.21v-1.46l.21-.19c1.36.09,2.66.13,3.89.13,1.93,0,3.54-.04,4.81-.13,5.16,6.88,11.21,14.24,18.18,22.11v-12.57c0-3.41-.09-5.63-.28-6.66-.07-.42-.32-.68-.73-.79-.21-.06-1.05-.13-2.51-.21l-.21-.21v-1.46l.21-.19c1.6.09,3.13.13,4.58.13,1.85,0,3.51-.04,4.98-.13l.21.19v1.46Z" fill="#ffffff"/>
      <path class="cls-1" d="M321.05,67.92c-.32,2.09-.47,4.46-.47,7.09l-.21.21-15.62-.13c-2.61,0-4.45.04-5.52.13l-.21-.21v-.6l.11-.26c1.06-.67,1.63-1.1,1.72-1.27.13-.27.21-1.22.24-2.86l.06-4.81v-10.89c0-3.41-.09-5.63-.28-6.66-.07-.42-.32-.68-.73-.79-.21-.06-1.05-.13-2.51-.21l-.21-.21v-1.46l.21-.19c1.45.09,3.68.13,6.7.13,2.69,0,7.81-.04,15.36-.13l.24.17-.28,2.38c-.09.76-.15,1.4-.19,1.93l-.15,2-.21.24h-1.25l-.21-.21c-.01-1.95-.13-3.06-.34-3.33-.16-.2-.93-.36-2.31-.47-1.38-.11-2.6-.17-3.64-.17-1.25,0-2.51.05-3.78.15-.16,1.5-.24,3.59-.24,6.25v4.45c1.13.07,2.05.11,2.75.11l2.81-.02c1.32-.01,2.06-.12,2.23-.32.23-.26.38-1.22.45-2.9l.21-.21h1.33l.21.21c-.06,1.6-.09,3.07-.09,4.4,0,1.45.03,3.03.09,4.75l-.21.19h-1.44l-.21-.21c0-1.65-.11-2.62-.34-2.93-.23-.31-.92-.51-2.08-.61-.87-.07-1.8-.11-2.79-.11-1.05,0-2.02.04-2.92.11v6.55c0,1.88.04,3.7.11,5.46h2.92c4.18,0,6.75-.16,7.69-.49.16-.06.27-.14.34-.24.14-.2.28-.63.41-1.29l.52-2.66.21-.24h1.31l.24.21Z" fill="#ffffff"/>
    </g>
    <g>
      <path class="cls-1" d="M81.04,89.25c0,2.92-.85,5.22-2.55,6.88-1.66,1.62-3.92,2.42-6.79,2.42-2.71,0-4.84-.76-6.38-2.29s-2.32-3.65-2.32-6.36c0-3.81,1.45-6.45,4.36-7.91,1.32-.67,2.95-1,4.88-1,2.76,0,4.92.72,6.45,2.17,1.56,1.47,2.34,3.5,2.34,6.08ZM77.38,89.87c0-2.3-.46-4.12-1.38-5.47s-2.28-2.03-4.06-2.03c-2.35,0-3.91,1.06-4.68,3.17-.4,1.08-.59,2.3-.59,3.65,0,2.45.45,4.38,1.35,5.8.93,1.47,2.33,2.2,4.19,2.2,2.26,0,3.77-1.11,4.55-3.34.41-1.18.62-2.51.62-3.98Z" fill="#ffffff"/>
      <path class="cls-1" d="M96.43,97.98l-.12.12c-1.19-.04-1.94-.06-2.25-.06-.26,0-.65,0-1.16.03s-.9.03-1.15.03l-.1-.1c.06-.65.1-1.27.1-1.85-.41.31-1.13.97-2.16,1.97-.52.2-1.07.3-1.65.3-1.07,0-1.91-.29-2.53-.87s-.93-1.42-.93-2.51c0-.13,0-.42.02-.86s.02-.86.02-1.26v-1.52c0-1.57-.06-2.48-.18-2.73-.08-.16-.25-.26-.51-.3-.1-.02-.44-.04-1.05-.06l-.12-.12v-.67l.12-.13c1.51-.13,3.05-.46,4.6-.99l.26.15c-.1,1.32-.15,2.53-.15,3.65v2.32c0,1.08.04,1.83.11,2.22.08.48.27.84.56,1.08s.7.37,1.19.37c.62,0,1.16-.2,1.63-.59.44-.4.68-.85.7-1.35.02-.39.02-.63.02-.72v-2.13c0-1.55-.06-2.46-.18-2.73-.07-.16-.24-.26-.5-.3-.1-.02-.44-.04-1.05-.06l-.13-.12v-.67l.13-.13c1.51-.13,3.04-.46,4.6-.99l.25.15c-.1,1.19-.15,2.4-.15,3.65v3.73c0,1.67.05,2.62.14,2.84.05.11.13.18.24.21.19.06.6.1,1.24.14l.13.12v.72Z" fill="#ffffff"/>
      <path class="cls-1" d="M104.94,96.48c-.06.06-.23.23-.51.5-.47.44-.87.85-1.2,1.21-.39.13-.78.19-1.18.19-1.1,0-1.91-.32-2.41-.96-.21-.28-.36-.6-.43-.96-.08-.44-.11-1.01-.11-1.71l.04-2.84v-2.97h-.32l-.63.02h-.49l-.13-.11v-.31l.1-.18c.14-.1.36-.24.67-.43.36-.22.63-.41.81-.56v-1.62c0-.67-.03-1.39-.1-2.14.59-.19,1.08-.36,1.44-.51s.89-.39,1.56-.72l.31.24c-.1.98-.16,1.86-.2,2.64l-.11,2.06h.39c.86,0,1.61-.03,2.23-.08l.13.13-.17,1.39-.12.12h-2.47v4.03c0,1.29.02,2.05.05,2.28.04.33.18.6.42.81s.57.31.98.31c.33,0,.72-.09,1.18-.26l.26.43Z" fill="#ffffff"/>
      <path class="cls-1" d="M115.1,94.31c0,1.28-.48,2.3-1.44,3.08s-2.22,1.17-3.77,1.17c-1.1,0-2.28-.24-3.54-.71l-.13-.18c.07-.73.11-1.3.13-1.7l.06-1.5.12-.13h.7l.14.13c.03.89.07,1.41.11,1.57.67.86,1.56,1.3,2.65,1.3.7,0,1.26-.17,1.68-.51s.63-.8.63-1.37c0-.72-.32-1.2-.95-1.44-.27-.1-.8-.24-1.6-.4-1.31-.28-2.18-.59-2.63-.95-.67-.54-1.01-1.33-1.01-2.39,0-1.15.42-2.07,1.25-2.77.87-.73,2.05-1.09,3.54-1.09,1.27,0,2.32.21,3.16.64l.11.19c-.09.36-.15,1.27-.2,2.75l-.13.12h-.68l-.13-.12c-.03-.57-.09-1.03-.17-1.39-.5-.63-1.22-.95-2.17-.95-.62,0-1.12.15-1.52.45s-.59.7-.59,1.19c0,.66.34,1.1,1.01,1.32.3.1.89.23,1.76.4,1.33.26,2.21.56,2.64.9.67.53,1,1.33,1,2.39Z" fill="#ffffff"/>
      <path class="cls-1" d="M128.49,92.14c0,2.8-.94,4.7-2.83,5.69-.92.48-1.97.72-3.15.72-1.82,0-3.21-.53-4.17-1.58s-1.43-2.56-1.43-4.53c0-2.72.93-4.53,2.78-5.43.91-.44,1.97-.67,3.17-.67,2.53,0,4.2.88,5.03,2.63.4.84.59,1.89.59,3.16ZM125.2,93.12c0-1.97-.22-3.38-.65-4.24s-1.09-1.28-1.98-1.28c-1.58,0-2.36,1.42-2.36,4.27,0,3.65.88,5.48,2.65,5.48,1.1,0,1.8-.61,2.1-1.82.16-.63.24-1.44.24-2.41Z" fill="#ffffff"/>
      <path class="cls-1" d="M143.74,97.98l-.12.12c-1.19-.04-1.94-.06-2.25-.06-.26,0-.65,0-1.16.03s-.9.03-1.15.03l-.1-.1c.06-.65.1-1.27.1-1.85-.41.31-1.13.97-2.16,1.97-.52.2-1.07.3-1.65.3-1.07,0-1.91-.29-2.53-.87s-.93-1.42-.93-2.51c0-.13,0-.42.02-.86s.02-.86.02-1.26v-1.52c0-1.57-.06-2.48-.18-2.73-.08-.16-.25-.26-.51-.3-.1-.02-.44-.04-1.05-.06l-.12-.12v-.67l.12-.13c1.51-.13,3.05-.46,4.6-.99l.26.15c-.1,1.32-.15,2.53-.15,3.65v2.32c0,1.08.04,1.83.11,2.22.08.48.27.84.56,1.08s.7.37,1.19.37c.62,0,1.16-.2,1.63-.59.44-.4.68-.85.7-1.35.02-.39.02-.63.02-.72v-2.13c0-1.55-.06-2.46-.18-2.73-.07-.16-.24-.26-.5-.3-.1-.02-.44-.04-1.05-.06l-.13-.12v-.67l.13-.13c1.51-.13,3.04-.46,4.6-.99l.25.15c-.1,1.19-.15,2.4-.15,3.65v3.73c0,1.67.05,2.62.14,2.84.05.11.13.18.24.21.19.06.6.1,1.24.14l.13.12v.72Z" fill="#ffffff"/>
      <path class="cls-1" d="M153.78,86.56l-.08,2.12c0,.35-.02.75-.05,1.19l-.5.15c-.37-.54-.89-.81-1.54-.81-.59,0-1.09.24-1.47.71-.24.29-.36.72-.36,1.3v2.78c0,.58.03,1.38.08,2.41.02.29.1.48.25.57s.7.15,1.65.18l.12.11v.72l-.12.12c-1.16-.05-2.32-.07-3.47-.07-1.42,0-2.5.03-3.24.08l-.12-.12v-.72l.12-.12c.76-.02,1.23-.08,1.41-.18.16-.07.25-.26.26-.57.06-1.03.08-2.14.08-3.32v-1.7c0-1.58-.06-2.5-.18-2.73-.08-.16-.25-.26-.51-.3-.1-.02-.44-.04-1.03-.06l-.12-.12v-.67l.12-.13c1.43-.13,2.93-.46,4.5-.99l.26.15-.02,2.33c.49-.57,1.09-1.24,1.78-2,.33-.32.77-.48,1.33-.48.33,0,.61.05.84.14Z" fill="#ffffff"/>
      <path class="cls-1" d="M164.03,96.54l-.52,1.18c-1.08.56-2.14.84-3.18.84-1.77,0-3.12-.51-4.05-1.52s-1.4-2.4-1.4-4.17c0-1.63.36-2.87,1.08-3.72.2-.24.57-.55,1.13-.94,1.14-.81,1.9-1.29,2.29-1.45s.97-.24,1.76-.24c1.08,0,1.97.16,2.67.49l.12.21c0,.1-.06.47-.17,1.11l-.13.81c-.02.13-.06.67-.11,1.59l-.12.12h-.71l-.12-.12c-.05-.7-.1-1.2-.17-1.47-.35-.62-1.02-.93-2.01-.93-1.68,0-2.52,1.09-2.52,3.27,0,1.58.34,2.83,1.01,3.74.69.94,1.66,1.41,2.91,1.41.76,0,1.43-.16,2.01-.49l.23.27Z" fill="#ffffff"/>
      <path class="cls-1" d="M172.03,98l-.12.12c-.75-.06-1.84-.08-3.26-.08s-2.5.03-3.24.08l-.12-.12v-.72l.12-.12c.76-.02,1.23-.08,1.41-.18.16-.07.25-.26.26-.57.06-1.03.08-2.14.08-3.32v-1.7c0-1.54-.06-2.45-.18-2.73-.06-.16-.23-.26-.51-.3-.1-.02-.44-.04-1.03-.06l-.12-.12v-.67l.12-.13c1.52-.13,3.05-.46,4.6-.99l.25.15c-.1,1.44-.15,2.66-.15,3.65v3.79c0,.58.03,1.38.08,2.41.02.31.1.5.26.57.18.1.65.15,1.41.18l.13.12v.72ZM170.39,82.49c0,.51-.18.94-.53,1.3s-.78.54-1.28.54-.94-.18-1.3-.54-.53-.79-.53-1.3.18-.96.54-1.32.79-.53,1.29-.53.92.18,1.28.53.54.8.54,1.32Z" fill="#ffffff"/>
      <path class="cls-1" d="M187.06,97.99l-.12.13c-.87-.06-1.61-.08-2.21-.08-.55,0-1.36.03-2.42.08l-.12-.12c.14-1.77.21-3.13.21-4.09v-2.33c0-1.93-.7-2.9-2.09-2.9-.73,0-1.3.25-1.71.75-.35.42-.52.84-.52,1.27v2.22c0,2.05.05,3.31.15,3.78.06.28.52.42,1.38.44l.12.12v.72l-.12.12c-.67-.05-1.68-.07-3.02-.07-1.42,0-2.5.03-3.24.08l-.12-.12v-.72l.12-.12c.76-.02,1.23-.08,1.41-.18.16-.07.25-.26.26-.57.06-1.03.08-2.14.08-3.32v-1.7c0-1.58-.06-2.5-.18-2.73-.08-.16-.25-.26-.51-.3-.1-.02-.44-.04-1.03-.06l-.12-.12v-.67l.12-.13c1.43-.13,2.93-.46,4.5-.99l.26.15-.02,2,2.04-1.71c.52-.21,1.1-.32,1.72-.32,1.26,0,2.2.38,2.83,1.14.51.62.76,1.52.76,2.72,0,.13-.02.69-.05,1.65s-.05,1.66-.05,2.07c0,1.2.02,1.96.06,2.29s.13.54.27.62.55.14,1.24.15l.11.12v.7Z" fill="#ffffff"/>
      <path class="cls-1" d="M200.85,98.86c0,1.73-.65,3.12-1.94,4.15s-2.99,1.54-5.08,1.54c-1.64,0-2.94-.31-3.89-.92s-1.43-1.44-1.43-2.48c0-.7.15-1.22.46-1.58.03-.04.45-.3,1.26-.78.39-.23.67-.39.86-.49-1.09-.19-1.64-.72-1.64-1.58,0-.46.16-.93.48-1.4.02-.03.24-.19.64-.48.19-.13.53-.38,1.01-.72-1.71-.62-2.57-1.76-2.57-3.43,0-1.29.48-2.33,1.45-3.12s2.25-1.18,3.86-1.18,2.77.34,3.65,1.03c.5.02.82.03.96.02.39-.02.97-.04,1.76-.06l.14.13-.13,1.22-.13.12h-1.76c.1.38.15.77.15,1.16,0,1.89-.92,3.17-2.75,3.86-.82.31-1.64.46-2.44.46-.27,0-.62-.02-1.05-.06-.5.27-.75.62-.75,1.06,0,.4.29.63.87.69.33.03.89.05,1.66.05.25,0,.67-.01,1.28-.04s1.06-.04,1.35-.04c1.79,0,2.9.4,3.34,1.19.24.43.36.98.36,1.66ZM198.12,100.21c0-.86-.3-1.41-.9-1.63-.25-.1-.76-.15-1.52-.15l-2.26-.02c-.25,0-.6,0-1.05.02-1.09.67-1.63,1.45-1.63,2.32,0,.8.32,1.43.96,1.88s1.5.68,2.58.68c1.16,0,2.08-.28,2.77-.84s1.04-1.31,1.04-2.26ZM195.96,90.55c0-2-.67-2.99-2.01-2.99s-1.97.86-1.97,2.59c0,2.04.69,3.07,2.06,3.07,1.28,0,1.93-.89,1.93-2.66Z" fill="#ffffff"/>
      <path class="cls-1" d="M224.21,97.99l-.12.12c-.06,0-.21,0-.45-.01-1.09-.04-1.76-.06-2.03-.06-.4,0-1.05.02-1.93.07-.03-.19-.18-.51-.45-.95l-2.95-4.92-1.32-2.01c-.17-.25-.4-.49-.7-.72l.13-.4c.18,0,.32.01.4.01.78,0,1.39-.12,1.83-.37.4-.22.78-.61,1.12-1.16s.51-1.22.51-1.98c0-1.34-.5-2.24-1.5-2.71-.48-.22-1.17-.33-2.08-.33-.4,0-.78.03-1.14.1-.08.78-.12,2.1-.12,3.97v6.21c0,1.89.05,3.11.15,3.68.04.23.17.38.4.44.12.03.58.07,1.39.12l.12.12v.8l-.11.12c-.79-.05-2.01-.07-3.66-.07s-2.92.02-3.66.07l-.12-.11v-.81l.12-.12c.81-.05,1.27-.09,1.39-.12.23-.06.36-.21.4-.44.1-.57.15-1.8.15-3.68v-6.29c0-1.89-.05-3.11-.15-3.68-.04-.23-.17-.38-.4-.44-.12-.03-.58-.07-1.39-.12l-.12-.12v-.81l.12-.11c.78.05,2,.07,3.66.07.97,0,1.75-.01,2.35-.04,1.2-.05,2.09-.07,2.69-.07,1.37,0,2.38.12,3.02.37.86.33,1.44.89,1.73,1.69.14.39.21.85.21,1.38,0,2.15-1.21,3.68-3.64,4.59.4.67.82,1.34,1.26,2.02l1.83,2.82c1.08,1.66,1.79,2.61,2.15,2.84.18.12.44.18.76.18l.12.12v.76Z" fill="#ffffff"/>
      <path class="cls-1" d="M235.87,91.37c0,.13,0,.34-.01.61l-.13.17c-1.05.29-2.43.43-4.16.43-.31,0-.78,0-1.4.02s-1.1.02-1.41.02c.05,1.16.41,2.13,1.08,2.89.71.82,1.62,1.22,2.76,1.22.76,0,1.66-.26,2.71-.78l.29.34-.52,1.18c-1.16.74-2.41,1.11-3.77,1.11-1.78,0-3.17-.5-4.15-1.51s-1.48-2.44-1.48-4.3c0-2.21.53-3.72,1.58-4.54,1.46-1.13,2.84-1.69,4.15-1.69,1.42,0,2.52.41,3.29,1.22.79.84,1.19,2.05,1.19,3.62ZM232.76,91.06c0-2.14-.67-3.21-2-3.21-1.4,0-2.1,1.06-2.1,3.18v.26c.46.07,1.28.11,2.45.11.61,0,1.16-.04,1.64-.11,0-.11.01-.19.01-.24Z" fill="#ffffff"/>
      <path class="cls-1" d="M250.98,98l-.12.12c-.78-.06-1.48-.08-2.1-.08s-1.4.03-2.41.08l-.11-.08c.03-.39.05-1.04.05-1.95-.29.24-.69.6-1.22,1.09-.66.61-1.09.97-1.28,1.09-.25.12-.67.18-1.24.18-1.35,0-2.45-.51-3.28-1.53s-1.25-2.34-1.25-3.97.32-2.8.96-3.68c.17-.23.66-.64,1.47-1.22.95-.68,1.64-1.11,2.08-1.3.38-.16.86-.24,1.45-.24.82,0,1.59.17,2.31.52v-.67c0-2.08-.05-3.31-.15-3.68-.06-.21-.22-.33-.49-.38-.13-.02-.49-.05-1.09-.07l-.12-.13v-.65l.12-.13c1.52-.16,3.05-.49,4.6-.99l.26.14s-.02.42-.05,1.18c-.07,1.7-.11,4.26-.11,7.68v3.84c0,2.23.05,3.45.15,3.67.06.13.15.22.26.25.17.06.57.11,1.19.15l.12.12v.64ZM246.29,91.8v-2.23c-.57-.68-1.12-1.12-1.64-1.31-.36-.13-.74-.19-1.14-.19-1.09,0-1.8.56-2.12,1.69-.17.63-.26,1.32-.26,2.09,0,1.64.38,2.86,1.15,3.65.4.42.95.63,1.63.63.56,0,1.09-.18,1.57-.53.44-.32.69-.66.77-1.02.02-.11.04-1.03.04-2.77Z" fill="#ffffff"/>
      <path class="cls-1" d="M262.9,91.37c0,.13,0,.34-.01.61l-.13.17c-1.05.29-2.43.43-4.16.43-.31,0-.78,0-1.4.02s-1.1.02-1.41.02c.05,1.16.41,2.13,1.08,2.89.71.82,1.62,1.22,2.76,1.22.76,0,1.66-.26,2.71-.78l.29.34-.52,1.18c-1.16.74-2.41,1.11-3.77,1.11-1.78,0-3.17-.5-4.15-1.51s-1.48-2.44-1.48-4.3c0-2.21.53-3.72,1.58-4.54,1.46-1.13,2.84-1.69,4.15-1.69,1.42,0,2.52.41,3.29,1.22.79.84,1.19,2.05,1.19,3.62ZM259.8,91.06c0-2.14-.67-3.21-2-3.21-1.4,0-2.1,1.06-2.1,3.18v.26c.46.07,1.28.11,2.45.11.61,0,1.16-.04,1.64-.11,0-.11.01-.19.01-.24Z" fill="#ffffff"/>
      <path class="cls-1" d="M278.33,98l-.12.12c-.75-.06-1.8-.08-3.14-.08s-2.38.03-3.13.08l-.12-.12v-.72l.12-.12c.71-.02,1.14-.08,1.3-.17s.25-.28.26-.58c.06-1.03.08-2.14.08-3.32v-1.7c0-1.54-.06-2.45-.18-2.73-.06-.16-.23-.26-.51-.3-.1-.02-.44-.04-1.02-.06l-.1.46-.12.12h-1.7c-.36-.01-.66,0-.89,0v2.12c0,3.6.06,5.52.17,5.76.06.13.17.22.34.28s.59.1,1.26.11l.12.12v.72l-.12.12-.88-.04c-.84-.03-1.63-.05-2.38-.05-1.26,0-2.26.03-3.01.08l-.12-.12v-.72l.12-.12c.63-.02,1.03-.08,1.18-.17s.24-.28.26-.58c.06-1.03.08-2.83.08-5.41v-2.12c-.17,0-.43,0-.8.02-.14,0-.35.02-.63.04l-.12-.12v-.37l.11-.17.89-.55c.27-.17.43-.28.48-.33s.07-.13.07-.23v-.18c0-1.22.08-2.05.24-2.5.09-.24.25-.51.5-.81.07-.09.59-.59,1.54-1.5l.74-.7c.21-.21.48-.47.81-.76.44-.32.97-.48,1.59-.48.26,0,.56.06.9.17-.02.26-.03.69-.05,1.27,0,.32,0,.72.02,1.19l-.37.21c-.38-.4-.86-.59-1.45-.59-.43,0-.76.09-.99.26s-.37.43-.43.78-.09,1.06-.09,2.16v1.66c1.18,0,2.11-.02,2.79-.05,1.09-.05,2-.17,2.73-.36.49-.13,1.11-.32,1.87-.57l.25.15c-.1,1.44-.15,2.66-.15,3.65v3.79c0,.58.03,1.38.08,2.41.02.29.1.48.26.58s.59.15,1.3.17l.13.12v.72ZM277.04,82.49c0,.51-.18.94-.53,1.3s-.78.54-1.28.54-.94-.18-1.3-.54-.53-.79-.53-1.3.18-.96.54-1.32.79-.53,1.29-.53.92.18,1.28.53.54.8.54,1.32Z" fill="#ffffff"/>
      <path class="cls-1" d="M293.06,97.99l-.12.13c-.87-.06-1.61-.08-2.21-.08-.55,0-1.36.03-2.42.08l-.12-.12c.14-1.77.21-3.13.21-4.09v-2.33c0-1.93-.7-2.9-2.09-2.9-.73,0-1.3.25-1.71.75-.35.42-.52.84-.52,1.27v2.22c0,2.05.05,3.31.15,3.78.06.28.52.42,1.38.44l.12.12v.72l-.12.12c-.67-.05-1.68-.07-3.02-.07-1.42,0-2.5.03-3.24.08l-.12-.12v-.72l.12-.12c.76-.02,1.23-.08,1.41-.18.16-.07.25-.26.26-.57.06-1.03.08-2.14.08-3.32v-1.7c0-1.58-.06-2.5-.18-2.73-.08-.16-.25-.26-.51-.3-.1-.02-.44-.04-1.03-.06l-.12-.12v-.67l.12-.13c1.43-.13,2.93-.46,4.5-.99l.26.15-.02,2,2.04-1.71c.52-.21,1.1-.32,1.72-.32,1.26,0,2.2.38,2.83,1.14.51.62.76,1.52.76,2.72,0,.13-.02.69-.05,1.65s-.05,1.66-.05,2.07c0,1.2.02,1.96.06,2.29s.13.54.27.62.55.14,1.24.15l.11.12v.7Z" fill="#ffffff"/>
      <path class="cls-1" d="M304.88,91.37c0,.13,0,.34-.01.61l-.13.17c-1.05.29-2.43.43-4.16.43-.31,0-.78,0-1.4.02s-1.1.02-1.41.02c.05,1.16.41,2.13,1.08,2.89.71.82,1.62,1.22,2.76,1.22.76,0,1.66-.26,2.71-.78l.29.34-.52,1.18c-1.16.74-2.41,1.11-3.77,1.11-1.78,0-3.17-.5-4.15-1.51s-1.48-2.44-1.48-4.3c0-2.21.53-3.72,1.58-4.54,1.46-1.13,2.84-1.69,4.15-1.69,1.42,0,2.52.41,3.29,1.22.79.84,1.19,2.05,1.19,3.62ZM301.78,91.06c0-2.14-.67-3.21-2-3.21-1.4,0-2.1,1.06-2.1,3.18v.26c.46.07,1.28.11,2.45.11.61,0,1.16-.04,1.64-.11,0-.11.01-.19.01-.24Z" fill="#ffffff"/>
      <path class="cls-1" d="M320,98l-.12.12c-.78-.06-1.48-.08-2.1-.08s-1.4.03-2.41.08l-.11-.08c.03-.39.05-1.04.05-1.95-.29.24-.69.6-1.22,1.09-.66.61-1.09.97-1.28,1.09-.25.12-.67.18-1.24.18-1.35,0-2.45-.51-3.28-1.53s-1.25-2.34-1.25-3.97.32-2.8.96-3.68c.17-.23.66-.64,1.47-1.22.95-.68,1.64-1.11,2.08-1.3.38-.16.86-.24,1.45-.24.82,0,1.59.17,2.31.52v-.67c0-2.08-.05-3.31-.15-3.68-.06-.21-.22-.33-.49-.38-.13-.02-.49-.05-1.09-.07l-.12-.13v-.65l.12-.13c1.52-.16,3.05-.49,4.6-.99l.26.14s-.02.42-.05,1.18c-.07,1.7-.11,4.26-.11,7.68v3.84c0,2.23.05,3.45.15,3.67.06.13.15.22.26.25.17.06.57.11,1.19.15l.12.12v.64ZM315.31,91.8v-2.23c-.57-.68-1.12-1.12-1.64-1.31-.36-.13-.74-.19-1.14-.19-1.09,0-1.8.56-2.12,1.69-.17.63-.26,1.32-.26,2.09,0,1.64.38,2.86,1.15,3.65.4.42.95.63,1.63.63.56,0,1.09-.18,1.57-.53.44-.32.69-.66.77-1.02.02-.11.04-1.03.04-2.77Z" fill="#ffffff"/>
    </g>
    <g>
      <polygon class="cls-1" points="76.62 39.73 80.09 41.5 63.35 50.88 63.35 66.44 76.62 74.13 89.8 66.62 89.8 58.94 92.82 58.92 93.15 68.63 76.62 78.03 60 68.63 60 49.19 76.62 39.73" fill="#ffffff"/>
      <polygon class="cls-1" points="80.09 45.52 83.44 43.51 93.15 49.01 93.15 55.66 89.73 55.66 89.8 50.88 80.09 45.52" fill="#ffffff"/>
      <polygon class="cls-1" points="83.44 55.57 86.62 55.66 86.79 52.89 76.58 47.06 66.36 52.89 66.36 64.7 76.62 70.67 79.76 68.63 69.9 62.83 69.71 54.9 76.74 50.88 83.44 54.9 83.44 55.57 83.44 55.57" fill="#ffffff"/>
      <polygon class="cls-1" points="76.58 54.62 80.09 56.57 80.09 61.01 76.62 63.02 73.06 60.93 73.06 56.57 76.58 54.62" fill="#ffffff"/>
      <polygon class="cls-1" points="83.32 58.82 86.62 58.72 86.62 64.75 83.32 66.8 83.32 58.82" fill="#ffffff"/>
    </g>
  </g>
</svg>