<svg xmlns="http://www.w3.org/2000/svg" version="1.1" xmlns:xlink="http://www.w3.org/1999/xlink" width="512" height="512" x="0" y="0" viewBox="0 0 511.998 511.998" style="enable-background:new 0 0 512 512" xml:space="preserve" class=""><g><path d="M82.175 408.073c1.947-2.16 4.811-4.593 8.599-7.3 3.781-2.702 7.894-5.403 12.329-8.111a546.699 546.699 0 0 1 13.465-7.949 647.32 647.32 0 0 0 11.68-6.813 162.975 162.975 0 0 0 13.952-9.246c4.543-3.352 8.648-7.245 12.329-11.68 3.676-4.431 6.652-9.459 8.922-15.087 2.272-5.623 3.406-12.006 3.406-19.143 0-17.303-6.219-31.036-18.655-41.206-12.441-10.164-30.336-15.25-53.696-15.25-9.521 0-18.656.868-27.417 2.596-8.76 1.734-16.821 4.056-24.172 6.976-7.357 2.921-13.952 6.22-19.792 9.896-5.84 3.68-10.493 7.462-13.951 11.355l33.094 38.285c6.271-7.138 12.76-12.922 19.467-17.358 6.703-4.43 14.6-6.651 23.685-6.651 8 0 14.165 1.84 18.494 5.516 4.324 3.681 6.489 8.547 6.489 14.6 0 3.031-.867 5.677-2.595 7.949-1.734 2.271-4.598 4.816-8.599 7.624-4.005 2.814-9.41 6.058-16.223 9.734a3023.052 3023.052 0 0 0-25.47 13.951c-9.52 5.409-17.413 10.925-23.685 16.546-6.276 5.628-11.25 11.736-14.924 18.333-3.68 6.6-6.275 13.901-7.787 21.901-1.516 8.005-2.271 17.09-2.271 27.254h161.578v-46.722H82.175zM331.35 404.828V269.532h-35.365L190.214 405.153v46.397h89.224V496h51.912v-44.45h28.552v-46.722H331.35zm-45.748.001h-44.125l44.125-57.428v57.428zM39.036 466.65v17.37H21.162v-17.37H10.803v44.844h10.359v-18.38h17.874v18.38h10.359V466.65zM107.879 480.86a23.325 23.325 0 0 0-4.482-7.326c-1.938-2.148-4.274-3.872-7.011-5.179-2.738-1.305-5.769-1.958-9.096-1.958-3.242 0-6.232.622-8.969 1.863-2.738 1.243-5.106 2.906-7.107 4.989a22.725 22.725 0 0 0-4.674 7.233 22.364 22.364 0 0 0-1.674 8.527c0 2.905.537 5.727 1.611 8.463 1.074 2.738 2.578 5.17 4.515 7.295 1.937 2.126 4.274 3.843 7.011 5.147 2.737 1.305 5.768 1.958 9.096 1.958 3.242 0 6.231-.631 8.969-1.896 2.737-1.262 5.095-2.937 7.074-5.02 1.98-2.084 3.526-4.496 4.642-7.233a22.375 22.375 0 0 0 1.674-8.527c0-2.819-.527-5.599-1.579-8.336zm-9.693 13.107c-.485 1.622-1.211 3.074-2.18 4.358-.968 1.285-2.19 2.327-3.662 3.128-1.475.799-3.201 1.2-5.18 1.2-1.895 0-3.579-.379-5.053-1.136a11.042 11.042 0 0 1-3.695-3.032c-.989-1.262-1.736-2.705-2.242-4.326s-.758-3.294-.758-5.021c0-1.684.242-3.337.727-4.959.485-1.62 1.22-3.063 2.21-4.326a11.497 11.497 0 0 1 3.663-3.063c1.453-.779 3.169-1.169 5.147-1.169 1.895 0 3.568.369 5.021 1.106a11.314 11.314 0 0 1 3.694 2.968c1.01 1.243 1.769 2.675 2.274 4.295a16.79 16.79 0 0 1 .758 5.021 17.123 17.123 0 0 1-.724 4.956zM153.74 466.651v22.926h-.003c0 1.643-.158 3.253-.474 4.832-.316 1.579-.853 2.979-1.61 4.2a8.797 8.797 0 0 1-2.969 2.937c-1.22.738-2.716 1.106-4.484 1.106-1.769 0-3.253-.358-4.453-1.074a8.594 8.594 0 0 1-2.937-2.906c-.758-1.219-1.306-2.61-1.643-4.168a23.183 23.183 0 0 1-.505-4.927V466.65h-10.358v22.927c0 2.948.368 5.769 1.105 8.463.737 2.696 1.896 5.063 3.475 7.107s3.632 3.674 6.158 4.894c2.527 1.221 5.579 1.832 9.159 1.832 3.452 0 6.431-.578 8.938-1.737 2.504-1.158 4.568-2.748 6.189-4.768 1.621-2.022 2.821-4.379 3.601-7.074.779-2.694 1.169-5.6 1.169-8.716v-22.927H153.74zM209.128 494.82a13.812 13.812 0 0 0 3.064-2.306 13.81 13.81 0 0 0 2.305-3.063 15.623 15.623 0 0 0 1.958-7.643c0-1.854-.369-3.685-1.106-5.496a16.253 16.253 0 0 0-3.063-4.862 15.562 15.562 0 0 0-4.642-3.475c-1.79-.883-3.737-1.326-5.842-1.326H181.59v44.845h10.358V497.03h6.758l8.59 14.464h11.684l-9.852-16.674zm-4.547-8.559c-.884 1.159-1.938 1.737-3.158 1.737h-9.474v-12.253h9.159c1.177 0 2.274.548 3.284 1.643 1.01 1.095 1.516 2.569 1.516 4.422-.001 1.809-.443 3.294-1.327 4.451z" fill="#ff4a17" opacity="1" data-original="#000000" class=""></path><path d="M265.186 492.986a10.526 10.526 0 0 0-2.779-3.756c-1.201-1.032-2.664-1.896-4.39-2.59-1.728-.695-3.663-1.336-5.811-1.927-1.559-.42-2.927-.799-4.105-1.136-1.179-.336-2.158-.705-2.937-1.106-.78-.4-1.369-.853-1.769-1.358-.402-.505-.601-1.136-.601-1.895 0-2.484 1.853-3.727 5.558-3.727 1.346 0 2.695.19 4.043.569 1.346.379 2.589.822 3.727 1.326 1.136.505 2.083.991 2.842 1.453.757.464 1.2.78 1.326.948l4.548-8.59a54.21 54.21 0 0 0-3.316-1.769 31.156 31.156 0 0 0-3.885-1.579 34.772 34.772 0 0 0-4.358-1.136 24.162 24.162 0 0 0-4.61-.443c-2.233 0-4.348.317-6.347.948-2 .631-3.759 1.569-5.273 2.81a13.524 13.524 0 0 0-3.601 4.58c-.884 1.812-1.326 3.896-1.326 6.254 0 1.685.241 3.158.726 4.421.485 1.263 1.22 2.379 2.21 3.348s2.242 1.822 3.759 2.558c1.516.738 3.306 1.421 5.369 2.054 1.558.463 3 .883 4.326 1.262 1.327.379 2.474.79 3.442 1.232.967.442 1.727.937 2.274 1.484.546.547.822 1.242.822 2.084 0 2.232-1.832 3.348-5.495 3.348-1.728 0-3.433-.232-5.117-.695-1.684-.463-3.212-.99-4.58-1.579-1.369-.589-2.517-1.178-3.442-1.77-.926-.588-1.474-.989-1.643-1.2l-4.548 9.032a26.69 26.69 0 0 0 4.263 2.336 40.142 40.142 0 0 0 4.769 1.737c1.642.484 3.325.853 5.053 1.105 1.727.253 3.41.379 5.053.379 2.148 0 4.232-.243 6.254-.727 2.021-.484 3.81-1.263 5.369-2.336 1.558-1.074 2.81-2.484 3.758-4.232.948-1.747 1.421-3.885 1.421-6.411-.001-2.063-.326-3.831-.979-5.306zM286.502 241.846c-2.819-11.181-11.637-20-22.818-22.818V81.064h-15.371v137.965c-13.642 3.439-23.771 15.809-23.771 30.503 0 17.346 14.112 31.456 31.456 31.456 14.695 0 27.064-10.13 30.503-23.771h91.454v-15.371h-91.453zm-30.503 23.771c-8.869 0-16.085-7.216-16.085-16.085s7.216-16.085 16.085-16.085 16.085 7.216 16.085 16.085-7.216 16.085-16.085 16.085z" fill="#ff4a17" opacity="1" data-original="#000000" class=""></path><path d="M477.549 364.449c18.305-35.22 27.982-74.959 27.982-114.918 0-66.652-25.956-129.315-73.085-176.447C385.314 25.956 322.651 0 255.999 0S126.683 25.956 79.552 73.085C32.423 120.216 6.467 182.88 6.467 249.532v7.686h46.96v-15.371H21.962c1.226-37.841 11.483-73.434 28.667-104.707l27.047 15.978 7.818-13.234-27.034-15.971a236.009 236.009 0 0 1 72.379-72.201l15.904 27.063 13.252-7.788-15.914-27.081C175.239 26.88 210.665 16.73 248.314 15.51v31.45h15.371V15.51c37.838 1.227 73.435 11.468 104.707 28.651l-15.979 27.048 13.233 7.818 15.967-27.029a236.024 236.024 0 0 1 72.204 72.374l-27.064 15.903 7.788 13.252 27.091-15.918c17.027 31.158 27.167 66.589 28.388 104.238h-31.449v15.371h31.451c-1.228 36.969-11.273 72.807-28.706 104.675l-26.995-15.947-7.818 13.234 26.986 15.942a234.609 234.609 0 0 1-45.894 52.839l2.078-18.736-15.277-1.695-4.98 44.894 44.894 4.98 1.695-15.277-18.88-2.095c24.775-21.007 45.485-46.837 60.424-75.583z" fill="#ff4a17" opacity="1" data-original="#000000" class=""></path></g></svg>