<svg height="512" viewBox="0 0 176 176" width="512" xmlns="http://www.w3.org/2000/svg"><g id="Layer_2" data-name="Layer 2"><g id="Adobe_Acrobat" fill="rgb(0,0,0)" data-name="Adobe Acrobat"><path id="shade" d="m135.34 5a35.7 35.7 0 0 1 35.66 35.66v94.68a35.7 35.7 0 0 1 -35.66 35.66h-94.68a35.7 35.7 0 0 1 -35.66-35.66v-94.68a35.7 35.7 0 0 1 35.66-35.66zm0-5h-94.68a40.65 40.65 0 0 0 -40.66 40.66v94.68a40.65 40.65 0 0 0 40.66 40.66h94.68a40.65 40.65 0 0 0 40.66-40.66v-94.68a40.65 40.65 0 0 0 -40.66-40.66z"/><path id="icon" d="m51.86 131.51a6.31 6.31 0 0 1 -5.51-3.6 10.29 10.29 0 0 1 .36-10.23c4.14-6.38 12.18-11.75 23.28-15.55l.37-.13.18-.35a202.43 202.43 0 0 0 9.82-23.09l.16-.43-.24-.4a42.3 42.3 0 0 1 -4.72-9.81c-3.56-11.71-.56-20.86 4.44-22.92a6.07 6.07 0 0 1 2.41-.49 6.54 6.54 0 0 1 4.29 1.68 13.43 13.43 0 0 1 2.73 3.43c2.17 3.94 1.09 13.18-3 26-.07.25-.16.49-.23.73s-.18.53-.25.77l-.12.43.25.38.25.36.22.31a152 152 0 0 0 15 17.75l.29.31h.43 3.18c1.57 0 3 0 4.24.11 11.16.65 18.46 3.33 20.55 7.56a7.06 7.06 0 0 1 -.38 6.52 9.62 9.62 0 0 1 -7.1 5 9.87 9.87 0 0 1 -1.22.08c-3.74 0-8.25-2.09-12.67-5.88l-.17-.14s-.29-.27-.69-.64c-1.37-1.25-4.21-3.86-7.82-7.47l-.3-.31h-.44a94.59 94.59 0 0 0 -12.31 1.35 90.46 90.46 0 0 0 -13.1 3l-.4.12-.19.37c-1.87 3.7-3.89 7.28-6 10.64-6.23 9.76-11.33 14.54-15.59 14.54zm12.37-21.94c-6.29 3-10.85 6.58-13.53 10.74a5.58 5.58 0 0 0 -.82 2.8 4.91 4.91 0 0 0 .5 2.18c.45 1 1 1.47 1.54 1.47h.08c.63-.08 4.18-1.06 11.56-12.78.67-1 1.29-2 1.88-3l1.65-2.74zm47.65-3.29c1.38 1.26 6.13 4.83 9.78 4.83h.55a4.86 4.86 0 0 0 3.5-2.67 2.3 2.3 0 0 0 .2-2.06c-.9-2-6.39-4.32-16.54-4.91h-2.72l2.83 2.65c1.4 1.31 2 1.92 2.42 2.2zm-28.72-21.69c-1.72 4.46-3.7 9.11-5.87 13.8l-.84 1.83 2-.48c3-.74 6-1.33 9-1.79 2-.32 4.09-.59 6.24-.79l1.92-.16-1.31-1.47c-1.74-1.9-4-4.44-6.26-7.19l-4.27-5.34zm-1.84-34.89c-2 1.65-4.08 7.6-1.26 16.84a27.72 27.72 0 0 0 1.32 3.46l1.1 2.34.72-2.49c1.86-6.51 3.71-14.89 2-17.9-.54-1-1.65-2.69-2.85-2.69h-1z"/></g></g></svg>