<svg xmlns="http://www.w3.org/2000/svg" version="1.1" xmlns:xlink="http://www.w3.org/1999/xlink" width="512" height="512" x="0" y="0" viewBox="0 0 100 100" style="enable-background:new 0 0 512 512" xml:space="preserve" class=""><g><g fill-rule="evenodd" clip-rule="evenodd"><path d="m87.9 80.7-11-17.2c.8-1.9.8-3.9.8-5.8s-.1-3.6.6-5.4c.7-1.7 2-2.9 3.3-4.2 1.9-1.8 4.1-3.9 4.1-7.5s-2.2-5.6-4.1-7.5c-1.3-1.3-2.6-2.5-3.3-4.2s-.7-3.5-.6-5.4c.1-2.6.1-5.6-2.4-8.2-2.5-2.5-5.5-2.5-8.2-2.4-1.9 0-3.6.1-5.4-.6-1.7-.7-2.9-2-4.2-3.3-1.9-1.8-3.9-4-7.5-4s-5.6 2.2-7.5 4.1c-1.3 1.3-2.5 2.6-4.2 3.3s-3.5.7-5.4.6c-2.6-.1-5.6-.1-8.2 2.4-2.5 2.5-2.5 5.5-2.4 8.2 0 1.9.1 3.6-.6 5.4-.7 1.7-2 2.9-3.3 4.2-1.9 1.8-4.1 3.9-4.1 7.5s2.2 5.6 4.1 7.5c1.3 1.3 2.6 2.5 3.3 4.2s.7 3.5.6 5.4c0 1.9-.1 3.9.8 5.8l-11 17.2c-.3.5-.3 1.1-.1 1.5.3.5.8.8 1.3.8l12.4-.1 5.1 11.2c.2.5.7.8 1.3.9h.1c.5 0 1-.3 1.3-.7l12.3-19.3c1.2.7 2.5 1.3 4.3 1.3s3.1-.5 4.3-1.3l12.3 19.3c.3.4.8.7 1.3.7h.1c.5 0 1-.4 1.3-.9L74.3 83h12.3c.5 0 1-.3 1.3-.8.3-.4.2-1 0-1.5zM50 60.5c-11 0-19.9-8.9-19.9-19.9S39 20.8 50 20.8s19.9 8.9 19.9 19.9S61 60.5 50 60.5zM32.4 90.4 28 80.8c-.2-.5-.8-.9-1.4-.9l-10.4.1L25 66.1c2.5 2.3 5.4 2.2 7.9 2.2 1.9 0 3.6-.1 5.4.6 1.7.7 2.9 2 4.2 3.3l.9.9zm41-10.4c-.6 0-1.1.3-1.4.9l-4.4 9.5-11-17.2.9-.9c1.3-1.3 2.5-2.6 4.2-3.3s3.5-.7 5.4-.6c2.6.1 5.4.1 7.9-2.2L83.8 80z" fill="#ff3221" opacity="1" data-original="#000000" class=""></path><path d="M50 26.2c-8 0-14.4 6.5-14.4 14.4 0 8 6.5 14.4 14.4 14.4s14.4-6.5 14.4-14.4S58 26.2 50 26.2zm0 3c6.3 0 11.4 5.1 11.4 11.4 0 2.1-.6 4.1-1.6 5.7-1.2-1.8-2.9-3.3-4.8-4.2.5-.9.8-1.9.8-2.9 0-3.2-2.6-5.9-5.9-5.9S44 35.9 44 39.2c0 1.1.3 2.1.8 2.9-2 .9-3.6 2.4-4.8 4.2-1-1.7-1.6-3.6-1.6-5.7.2-6.2 5.3-11.4 11.6-11.4zm0 12.9c-1.6 0-2.9-1.3-2.9-2.9s1.3-2.9 2.9-2.9 2.9 1.3 2.9 2.9-1.3 2.9-2.9 2.9z" fill="#ff3221" opacity="1" data-original="#000000" class=""></path></g></g></svg>