<svg xmlns="http://www.w3.org/2000/svg" version="1.1" xmlns:xlink="http://www.w3.org/1999/xlink" width="512" height="512" x="0" y="0" viewBox="0 0 32 32" style="enable-background:new 0 0 512 512" xml:space="preserve" class=""><g><g data-name="Layer 2"><path d="M22.81 2.77a2.119 2.119 0 0 0-2.22.16 1.4 1.4 0 0 1-.93.3 1.53 1.53 0 0 1-1.07-.42 3.592 3.592 0 0 0-4.52 0 1.586 1.586 0 0 1-2.15 0 3.578 3.578 0 0 0-4.51 0 1.536 1.536 0 0 1-1.08.42 1.341 1.341 0 0 1-.91-.3 2.115 2.115 0 0 0-2.23-.15A2.193 2.193 0 0 0 2 4.74v21.07a2.2 2.2 0 0 0 2.18 2.2h13.34A7.362 7.362 0 0 1 16 23.5a7.5 7.5 0 0 1 7.5-7.5 4.193 4.193 0 0 1 .5.03V4.73a2.2 2.2 0 0 0-1.19-1.96zM7.6 21.4a1.2 1.2 0 1 1 1.2-1.2 1.2 1.2 0 0 1-1.2 1.2zm0-5a1.2 1.2 0 1 1 1.2-1.2 1.2 1.2 0 0 1-1.2 1.2zm0-5.2a1.2 1.2 0 1 1 1.2-1.19 1.195 1.195 0 0 1-1.2 1.19zm6.4 10h-2.8a1 1 0 0 1 0-2H14a1 1 0 1 1 0 2zm4.6-5h-7.4a1 1 0 0 1 0-2h7.4a1 1 0 0 1 0 2zm0-5.19h-7.4a1 1 0 0 1 0-2h7.4a1 1 0 0 1 0 2z" fill="#ff3221" opacity="1" data-original="#000000" class=""></path><path d="M23.5 17a6.5 6.5 0 1 0 6.5 6.5 6.508 6.508 0 0 0-6.5-6.5zm2 7.5h-1v1a1 1 0 0 1-2 0v-1h-1a1 1 0 0 1 0-2h1v-1a1 1 0 0 1 2 0v1h1a1 1 0 0 1 0 2z" fill="#ff3221" opacity="1" data-original="#000000" class=""></path></g></g></svg>