<svg xmlns="http://www.w3.org/2000/svg" version="1.1" xmlns:xlink="http://www.w3.org/1999/xlink" width="512" height="512" x="0" y="0" viewBox="0 0 66 66" style="enable-background:new 0 0 512 512" xml:space="preserve" class=""><g><path d="M18.02 16.74a.96.96 0 0 0-.96-.96h-9.3a.96.96 0 0 0-.96.96v9.3c0 .53.43.96.96.96h9.3c.53 0 .96-.43.96-.96zm-1.92 8.35H8.72v-7.38h7.38zM18.02 32.6a.96.96 0 0 0-.96-.96h-9.3a.96.96 0 0 0-.96.96v9.3c0 .53.43.96.96.96h9.3c.53 0 .96-.43.96-.96zm-1.92 8.35H8.72v-7.38h7.38zM17.06 47.5h-9.3a.96.96 0 0 0-.96.96v9.3c0 .53.43.96.96.96h9.3c.53 0 .96-.43.96-.96v-9.3a.96.96 0 0 0-.96-.96zm-.96 9.3H8.72v-7.38h7.38zM35.82 18.25H22.36a.96.96 0 0 0 0 1.92h13.46a.96.96 0 0 0 0-1.92zM22.36 24.54h8.62a.96.96 0 0 0 0-1.92h-8.62a.96.96 0 0 0 0 1.92zM36.78 35.07a.96.96 0 0 0-.96-.96H22.36a.96.96 0 0 0 0 1.92h13.46c.53 0 .96-.43.96-.96zM30.97 38.48h-8.62a.96.96 0 0 0 0 1.92h8.62a.96.96 0 0 0 0-1.92zM30.97 49.97h-8.62a.96.96 0 0 0 0 1.92h8.62a.96.96 0 0 0 0-1.92zM30.97 54.33h-8.62a.96.96 0 0 0 0 1.92h8.62c.53 0 .96-.43.96-.96a.948.948 0 0 0-.96-.96zM64.37 22.56a5.801 5.801 0 0 0-2.08-3.93c-1.2-.99-2.7-1.46-4.25-1.31s-2.94.89-3.93 2.08L36.48 40.69c-.07.09-.12.19-.16.3l-.03.09-.03.1-1.14 9c-.04.33.09.65.34.86.17.14.39.22.61.22.1 0 .2-.02.3-.05L45 48.4c.02-.01.04-.02.07-.03s.05-.02.08-.04c.11-.06.22-.13.3-.23l17.62-21.29c.98-1.19 1.44-2.7 1.3-4.25zm-19.8 23.58-2.26-1.87 15.22-18.39 2.26 1.87zm-6-4.97 15.22-18.39 2.26 1.87-15.22 18.39zm-.62 1.98 4.79 3.96-5.52 1.8zm23.63-17.56-.56.68-6-4.97.56-.68c.66-.8 1.6-1.3 2.63-1.39 1.04-.1 2.05.21 2.85.88.8.66 1.3 1.6 1.39 2.63.1 1.04-.21 2.05-.87 2.85z" fill="#ff3221" opacity="1" data-original="#000000"></path><path d="M48.94 47.43a.96.96 0 0 0-.96.96v9.38c0 2.65-2.15 4.8-4.8 4.8H8.33c-2.65 0-4.8-2.15-4.8-4.8V8.22c0-2.65 2.15-4.8 4.8-4.8h27.81v8.96a2.88 2.88 0 0 0 2.88 2.88h8.96v5.86a.96.96 0 0 0 1.92 0V14.3c0-.25-.1-.5-.28-.68L37.78 1.78a.97.97 0 0 0-.68-.28H8.33c-3.71 0-6.72 3.02-6.72 6.72v49.56c0 3.71 3.02 6.72 6.72 6.72h34.85c3.71 0 6.72-3.02 6.72-6.72V48.4c0-.54-.43-.97-.96-.97zM38.06 12.38v-7.6l8.56 8.56h-7.6a.96.96 0 0 1-.96-.96z" fill="#ff3221" opacity="1" data-original="#000000"></path></g></svg>