<svg xmlns="http://www.w3.org/2000/svg" version="1.1" xmlns:xlink="http://www.w3.org/1999/xlink" width="512" height="512" x="0" y="0" viewBox="0 0 52 52" style="enable-background:new 0 0 512 512" xml:space="preserve" class=""><g><path d="M22.648 28.586c0 .777.269 1.529.75 2.13l-.49 4.33a1 1 0 0 0 .993 1.114h4.33a1 1 0 0 0 .994-1.113l-.492-4.338a3.44 3.44 0 0 0 .74-2.123 3.416 3.416 0 0 0-3.413-3.413 3.416 3.416 0 0 0-3.412 3.413zm4.825 0c0 .395-.17.779-.464 1.051a1 1 0 0 0-.314.847l.417 3.676H25.02l.416-3.676a1 1 0 0 0-.323-.856 1.389 1.389 0 0 1-.466-1.042c0-.779.633-1.413 1.412-1.413.792 0 1.413.62 1.413 1.413z" fill="#ff4a17" opacity="1" data-original="#000000" class=""></path><path d="M37.149 24.126a1 1 0 0 0-.896-1.017c-3.291-.345-6.556-1.571-9.47-3.197a.996.996 0 0 0-1.043.042c-2.994 1.999-6.437 3.057-9.824 3.253a1 1 0 0 0-.943.986c-.101 8.344 3.958 15.36 10.506 19.91a1 1 0 0 0 1.146-.002c6.153-4.321 10.325-11.376 10.524-19.975zm-11.1 17.924c-5.423-4.015-8.88-9.894-9.07-16.922 3.19-.321 6.435-1.346 9.36-3.18 2.728 1.458 5.715 2.573 8.774 3.031-.426 7.305-3.934 13.261-9.064 17.071z" fill="#ff4a17" opacity="1" data-original="#000000" class=""></path><path d="M47.5 10.19h-.562V8.285a2.746 2.746 0 0 0-2.742-2.743H16.629l-.114-.614A2.49 2.49 0 0 0 14.081 3H4.5A2.503 2.503 0 0 0 2 5.5v31.53c0 1.38 1.122 2.5 2.5 2.5h10.934c2.815 4.207 7.118 7.849 10.23 9.369a1.003 1.003 0 0 0 .949-.036c3.625-2.14 7.232-5.155 9.945-9.332H47.5c1.378 0 2.5-1.122 2.5-2.5V12.69c0-1.379-1.122-2.5-2.5-2.5zm-3.304-2.647c.41 0 .742.333.742.743v1.903H17.91c-.233 0-.433-.158-.477-.34l-.43-2.306zM26.079 46.849c-8.188-4.654-14.273-13.881-12.914-25.68 4.362.416 9.159-.844 12.956-3.992 2.992 1.961 6.794 3.591 10.433 3.952.84.087 1.675.102 2.496.046.036.388.073.888.093 1.479.29 9.506-3.898 18.58-13.064 24.195zM48 37.03a.5.5 0 0 1-.5.5h-9.765c2.402-4.473 3.565-9.739 3.407-14.94-.057-1.642-.226-2.639-.234-2.68a.995.995 0 0 0-1.126-.82c-.978.139-1.996.156-3.028.05-3.469-.343-7.665-2.216-10.11-4.028a1.002 1.002 0 0 0-1.266.063c-3.75 3.39-8.868 4.623-12.868 3.89a1 1 0 0 0-1.195.833c-1.079 7.357.455 13.166 2.915 17.633H4.5a.5.5 0 0 1-.5-.5V5.5a.5.5 0 0 1 .5-.5h9.581c.233 0 .434.159.478.34l.916 4.92a2.49 2.49 0 0 0 2.434 1.93H47.5a.5.5 0 0 1 .5.5z" fill="#ff4a17" opacity="1" data-original="#000000" class=""></path></g></svg>