<svg xmlns="http://www.w3.org/2000/svg" version="1.1" xmlns:xlink="http://www.w3.org/1999/xlink" width="512" height="512" x="0" y="0" viewBox="0 0 512 512" style="enable-background:new 0 0 512 512" xml:space="preserve" class=""><g><path d="M490.77 266.25a4.56 4.56 0 0 0-2.53-2.79c-8.06-3.6-20-3.81-31.23 15.6l-38.88 67.35a22.28 22.28 0 0 1-.69 7.72 22 22 0 0 1-10.31 13.47l-35.65 20.58a5 5 0 0 1-5-8.66l35.65-20.58A12.18 12.18 0 1 0 390 337.85l-47.33 27.33a5 5 0 0 1-1.49.57c-21.54 4.44-46.27 14.24-46.27 50.85v33h69.41v-6.39a38.46 38.46 0 0 1 19.67-34.08l19.07-11a83.16 83.16 0 0 0 31.64-31.73l55.66-96.4a4.56 4.56 0 0 0 .41-3.74ZM499 275l-55.64 96.4A92.76 92.76 0 0 1 408 406.75l-19.07 11a28.68 28.68 0 0 0-14.67 25.42v6.58A15 15 0 0 1 387 464.57V486a15 15 0 0 1-15 15h-84.89a15 15 0 0 1-15-15v-21.43a15 15 0 0 1 12.75-14.81V416.6c0-43.83 30.26-55.58 53.45-60.48L385 329.19a22.22 22.22 0 0 1 28.45 5.4l35-60.53c16.31-28.24 36.18-23.21 44-19.73A14.57 14.57 0 0 1 499 275ZM147.73 443.18v6.39h69.41v-33c0-36.61-24.73-46.41-46.27-50.85a5 5 0 0 1-1.49-.57L122 337.85a12.17 12.17 0 0 0-12.17 21.09l35.65 20.58a5 5 0 1 1-5 8.66l-35.61-20.58a22 22 0 0 1-10.31-13.47 22.28 22.28 0 0 1-.69-7.72L55 279.06c-11.21-19.41-23.17-19.2-31.24-15.6a4.62 4.62 0 0 0-2.53 2.79 4.56 4.56 0 0 0 .42 3.74L77.3 366.4a83.16 83.16 0 0 0 31.7 31.69l19.07 11a38.46 38.46 0 0 1 19.67 34.08Zm92.16 21.39V486a15 15 0 0 1-15 15H140a15 15 0 0 1-15-15v-21.43a15 15 0 0 1 12.75-14.81v-6.58a28.68 28.68 0 0 0-14.67-25.42l-19.07-11a92.83 92.83 0 0 1-35.37-35.36L13 275a14.57 14.57 0 0 1 6.7-20.66c7.79-3.47 27.66-8.51 44 19.73l34.9 60.52a22.22 22.22 0 0 1 28.45-5.4l46.64 26.93c23.19 4.9 53.45 16.65 53.45 60.48v33.16a15 15 0 0 1 12.75 14.81ZM256 133.42a42 42 0 1 1 42-42 42.09 42.09 0 0 1-42 42Zm-55.33 33.71a85.43 85.43 0 0 1 55.25-21.49h.16a85.82 85.82 0 0 1 83.29 73.09 24.4 24.4 0 0 1-10.58 24.14c-21.15 14.44-52.56 21-72.79 21s-51.65-6.58-72.79-21a24.4 24.4 0 0 1-10.58-24.14 85.67 85.67 0 0 1 28-51.6Zm210.94-.52c0 85.8-69.81 155.61-155.61 155.61A155.49 155.49 0 0 1 127.88 255l-3.35 15.58a5 5 0 0 1-9.78-2.1l5.93-27.57a5 5 0 0 1 5.94-3.83l27.57 5.92a5 5 0 0 1-2.1 9.78l-16-3.43A146.54 146.54 0 0 0 256 312.22c80.29 0 145.61-65.32 145.61-145.61a145.58 145.58 0 0 0-6.89-44.38 5 5 0 0 1 9.53-3 155.63 155.63 0 0 1 7.36 47.42ZM107.75 214a5 5 0 0 0 4.77 3.48 4.77 4.77 0 0 0 1.52-.24 5 5 0 0 0 3.24-6.28 145.53 145.53 0 0 1-6.89-44.38C110.39 86.32 175.71 21 256 21a146.54 146.54 0 0 1 119.86 62.92l-15.94-3.43a5 5 0 1 0-2.11 9.78l27.57 5.93a5 5 0 0 0 5.94-3.84l5.92-27.57a5 5 0 1 0-9.77-2.1l-3.35 15.58A155.55 155.55 0 0 0 256 11c-85.8 0-155.61 69.81-155.61 155.61a155.63 155.63 0 0 0 7.36 47.39Z" class="cls-1" style="fill-rule:evenodd" fill="#ff4a17" opacity="1" data-original="#000000"></path></g></svg>