<svg xmlns="http://www.w3.org/2000/svg" version="1.1" xmlns:xlink="http://www.w3.org/1999/xlink" width="512" height="512" x="0" y="0" viewBox="0 0 64 64" style="enable-background:new 0 0 512 512" xml:space="preserve"><g><path d="M61 56h-1V20a1 1 0 0 0-1-1H43.294a30.391 30.391 0 0 0 1.553-7H50a1 1 0 0 0 .707-1.707l-8-8a1 1 0 0 0-1.414 0l-8 8A1 1 0 0 0 34 12h3.157a21.6 21.6 0 0 1-4.957 7H5a1 1 0 0 0-1 1v36H3a1 1 0 0 0-1 1v2a3 3 0 0 0 3 3h54a3 3 0 0 0 3-3v-2a1 1 0 0 0-1-1zM39.576 11.341a1 1 0 0 0-.94-1.341h-2.222L42 4.414 47.586 10h-3.66a1 1 0 0 0-1 .934A28.77 28.77 0 0 1 18.1 37.445l-3.1.412V26.891a23.907 23.907 0 0 0 24.576-15.55zM6 21h23.729a21.753 21.753 0 0 1-15.365 3.806l-.228-.032a1 1 0 0 0-1.136.992V39a1 1 0 0 0 1 1 .976.976 0 0 0 .132-.009l4.228-.563A30.779 30.779 0 0 0 42.515 21H58v35h-2V24a1 1 0 0 0-1-1H44v2h10v31H10V25h2v-2H9a1 1 0 0 0-1 1v32H6zm54 38a1 1 0 0 1-1 1H5a1 1 0 0 1-1-1v-1h56z" fill="#ff3221" opacity="1" data-original="#000000"></path><path d="M12 55h40v-2h-4V30a1 1 0 0 0-1-1h-6a1 1 0 0 0-1 1v23h-4V38a1 1 0 0 0-1-1h-6a1 1 0 0 0-1 1v15h-4V43a1 1 0 0 0-1-1h-6a1 1 0 0 0-1 1v10h-4zm30-24h4v22h-4zm-12 8h4v14h-4zm-12 5h4v9h-4zM27 2h2v2h-2zM29 4h2v2h-2zM27 6h2v2h-2zM25 4h2v2h-2zM23 10h2v2h-2zM60 12h2v2h-2zM58 14h2v2h-2zM56 12h2v2h-2zM58 10h2v2h-2zM54 6h2v2h-2zM18 32h-2v3a1 1 0 0 0 1 1 18.43 18.43 0 0 0 9.555-3.168l-1.11-1.664A17.082 17.082 0 0 1 18 33.95zM16 28h2v2h-2z" fill="#ff3221" opacity="1" data-original="#000000"></path></g></svg>