<svg xmlns="http://www.w3.org/2000/svg" version="1.1" xmlns:xlink="http://www.w3.org/1999/xlink" width="512" height="512" x="0" y="0" viewBox="0 0 512 512" style="enable-background:new 0 0 512 512" xml:space="preserve" class=""><g><path fill-rule="evenodd" d="M23.383 16.002h166.882v33.554c0 8.996 6.291 16.539 14.708 18.466h-79.151a8 8 0 0 0 0 16h86.792a8 8 0 0 0 2.726-15.523h27.422V302.08a5.897 5.897 0 0 1-5.886 5.886H23.383a5.897 5.897 0 0 1-5.886-5.886V21.888c-.001-3.242 2.643-5.886 5.886-5.886zm235.378 123.525h204.134a4.51 4.51 0 0 1 4.496 4.496v201.668H99.876v-21.726H72.764v43.918c0 17.832 14.59 32.422 32.422 32.422H217.36v51.511h-49.35c-15.207 0-27.649 9.941-27.649 22.091v22.092h286.546v-22.092c0-12.15-12.442-22.091-27.649-22.091h-49.35v-51.511h112.175c17.832 0 32.422-14.59 32.422-32.422V144.837c0-17.832-14.59-32.422-32.422-32.422H258.761zm166.174 29.04a8 8 0 0 1 0 16H285.22a8 8 0 0 1 0-16zm0 132.087a8 8 0 0 1 0 16H285.22a8 8 0 0 1 0-16zm0-44.029a8 8 0 0 1 0 16H285.22a8 8 0 0 1 0-16zm0-44.029a8 8 0 0 1 0 16H285.22a8 8 0 0 1 0-16zM206.264 16.512v33.044a2.949 2.949 0 0 0 2.943 2.943h33.044a5.877 5.877 0 0 0-1.214-1.724l-33.049-33.049a5.896 5.896 0 0 0-1.724-1.214zM55.993 211.947c-4.592 0-8.349 3.757-8.349 8.349v25.3c0 4.592 3.757 8.349 8.349 8.349h25.3c4.592 0 8.349-3.757 8.349-8.349v-25.3c0-4.592-3.757-8.349-8.349-8.349zm0-70.962c-4.592 0-8.349 3.757-8.349 8.349v25.3c0 4.592 3.757 8.349 8.349 8.349h25.3c4.592 0 8.349-3.757 8.349-8.349v-25.3c0-4.592-3.757-8.349-8.349-8.349zm0-70.961c-4.592 0-8.349 3.757-8.349 8.349v25.3c0 4.592 3.757 8.349 8.349 8.349h25.3c4.592 0 8.349-3.757 8.349-8.349v-25.3c0-4.592-3.757-8.349-8.349-8.349zm69.829 155.921h86.792a8 8 0 0 0 0-16h-86.792a8 8 0 0 0 0 16zm0 30.001h86.792a8 8 0 0 0 0-16h-86.792a8 8 0 0 0 0 16zm0-100.963h86.792a8 8 0 0 0 0-16h-86.792a8 8 0 0 0 0 16zm0 30.002h86.792a8 8 0 0 0 0-16h-86.792a8 8 0 0 0 0 16zm0-70.962h86.792a8 8 0 0 0 0-16h-86.792a8 8 0 0 0 0 16z" clip-rule="evenodd" fill="#ff3221" opacity="1" data-original="#000000" class=""></path></g></svg>