<svg xmlns="http://www.w3.org/2000/svg" version="1.1" xmlns:xlink="http://www.w3.org/1999/xlink" width="512" height="512" x="0" y="0" viewBox="0 0 426.667 426" style="enable-background:new 0 0 512 512" xml:space="preserve" class=""><g><path d="M213.332 181.668c0 4.266-1.277 8.531-3.625 11.73l-106.668 160C99.2 359.16 92.801 363 85.332 363h-64C9.602 363 0 353.398 0 341.668c0-4.27 1.281-8.535 3.625-11.734l98.773-148.266L3.625 33.398C1.281 30.2 0 25.934 0 21.668 0 9.934 9.602.332 21.332.332h64c7.469 0 13.867 3.84 17.707 9.602l106.668 160c2.348 3.199 3.625 7.464 3.625 11.734zM426.668 181.668c0 4.266-1.281 8.531-3.629 11.73l-106.664 160c-3.84 5.762-10.242 9.602-17.707 9.602h-64c-11.734 0-21.336-9.602-21.336-21.332 0-4.27 1.281-8.535 3.629-11.734l98.773-148.266-98.773-148.27c-2.348-3.199-3.629-7.464-3.629-11.73 0-11.734 9.602-21.336 21.336-21.336h64c7.465 0 13.867 3.84 17.707 9.602l106.664 160c2.348 3.199 3.629 7.464 3.629 11.734zm0 0" fill="#ffffff" opacity="1" data-original="#000000" class=""></path></g></svg>