<svg xmlns="http://www.w3.org/2000/svg" version="1.1" xmlns:xlink="http://www.w3.org/1999/xlink" width="512" height="512" x="0" y="0" viewBox="0 0 512 512" style="enable-background:new 0 0 512 512" xml:space="preserve" class=""><g><path fill-rule="evenodd" d="m256.467 405.894 161.716-108.507V21.848H88.591V293l167.876 112.9zM434.183 154.2l55.217 48.045a39.274 39.274 0 0 1 13.931 30.588v7.579l-69.146 46.322V154.2zM72.591 282.816l-63.92-42.75v-7.233A39.245 39.245 0 0 1 22.6 202.245l49.989-43.432v124zm430.738-23.209v190a40.624 40.624 0 0 1-40.546 40.546H49.217a40.624 40.624 0 0 1-40.546-40.547V259.251L72.591 302v.046l161.856 108.246h.059l17.524 11.72a7.978 7.978 0 0 0 9.013-.092zM330.143 177.7a8.05 8.05 0 0 1 .105-1.3q.041-1.275.041-3.036a76.951 76.951 0 1 0-31.471 62.076 7.982 7.982 0 1 1 9.438 12.875 92.882 92.882 0 1 1 38.033-74.951c0 1.267-.047 2.823-.138 4.656l-.014.261a34.91 34.91 0 0 1-.3 4.05l-.036.367a8.131 8.131 0 0 1-.2 1.169 35.1 35.1 0 0 1-59.413 18.652 35.505 35.505 0 0 1-3.428-3.978 44.5 44.5 0 1 1-5.889-60.383 8 8 0 0 1 15 3.872v27.624q.037.923.038 1.854t-.038 1.855v4.337a19.137 19.137 0 0 0 38.273 0zM275.87 173a28.5 28.5 0 1 1 0-2.983z" fill="#ff3221" opacity="1" data-original="#000000" class=""></path></g></svg>