<svg id="Outline" enable-background="new 0 0 512 512" height="512" viewBox="0 0 512 512" width="512" xmlns="http://www.w3.org/2000/svg"><path d="m505.256 111.857c-.008-.009-.015-.018-.023-.025-4.965-5.502-12.011-8.656-19.379-8.656h-239.788c.533-2.408.822-4.879.822-7.383 0-13.304-7.789-25.327-19.69-30.881.073-.826.109-1.654.109-2.479 0-15.633-12.717-28.351-28.348-28.351-2.8 0-5.564.423-8.255 1.259-6.79-10.086-18.174-16.223-30.48-16.223-12.307 0-23.69 6.136-30.48 16.224-2.691-.837-5.455-1.26-8.255-1.26-15.631 0-28.348 12.718-28.348 28.351 0 .825.037 1.652.109 2.479-11.901 5.554-19.69 17.578-19.69 30.882 0 5.721 1.421 11.287 4.132 16.269-3.728 4.91-5.751 10.872-5.751 17.085 0 14.422 10.825 26.354 24.773 28.117-.071 1.709-.118 3.408-.118 5.089 0 32.284 13.672 53.985 38.3 62.341v7.224c-.483-.003-.97.074-1.438.25l-15.348 5.778h-.942c-36.717 0-73.937 28.954-82.969 64.544l-34.076 134.293c-.401 1.579.196 3.244 1.51 4.208 46.248 33.946 101.088 51.89 158.594 51.89 57.499 0 112.338-17.94 158.589-51.883 1.313-.964 1.911-2.629 1.51-4.208l-9.308-36.68h196.982c2.209 0 4-1.791 4-4v-29.385c0-2.209-1.791-4-4-4h-198.678c-2.209 0-4 1.791-4 4v10.936l-11.188-44.092h191.719c7.4 0 14.455-3.166 19.382-8.668.02-.02.042-.032.062-.052.028-.029.046-.063.073-.093.009-.01.018-.019.027-.028 4.258-4.78 6.604-10.926 6.604-17.303v-178.102c0-6.365-2.343-12.513-6.596-17.309-.049-.054-.1-.104-.149-.158zm-193.351 324.274c-18.096 13.001-37.517 23.499-57.892 31.379l-18.542-119.794c-.339-2.183-2.385-3.68-4.565-3.341-2.183.338-3.679 2.382-3.341 4.565l18.788 121.382c-27.396 9.604-56.393 14.56-86.127 14.56-29.736 0-58.734-4.955-86.129-14.561l18.788-121.381c.338-2.184-1.158-4.228-3.341-4.565-2.183-.345-4.227 1.157-4.565 3.341l-18.542 119.792c-20.376-7.881-39.797-18.381-57.893-31.384l33.412-131.667c8.055-31.737 40.836-57.635 73.586-58.472l8.38 43.523c.277 1.442 1.323 2.616 2.724 3.059.396.125.801.186 1.204.186 1.023 0 2.025-.393 2.782-1.126l11.164-10.804 6.559 13.156-14.137 114.638c-.103.832.059 1.677.462 2.412l22.039 40.204c.703 1.281 2.047 2.077 3.508 2.077s2.806-.797 3.508-2.077l22.035-40.204c.403-.736.564-1.58.462-2.412l-14.133-114.638 6.558-13.154 11.16 10.802c.757.733 1.759 1.126 2.782 1.126.402 0 .808-.061 1.203-.186 1.4-.442 2.446-1.616 2.724-3.058l8.383-43.524c32.75.835 65.533 26.733 73.587 58.471zm-226.399-320.932c1.279-1.354 1.453-3.412.421-4.963-2.856-4.29-4.366-9.284-4.366-14.443 0-11.033 7.003-20.916 17.428-24.594 1.888-.667 2.993-2.626 2.585-4.587-.287-1.381-.433-2.787-.433-4.18 0-11.222 9.128-20.351 20.348-20.351 2.831 0 5.625.612 8.304 1.82 1.911.862 4.16.104 5.159-1.738 5.039-9.28 14.722-15.046 25.272-15.046s20.233 5.766 25.271 15.046c1 1.842 3.25 2.601 5.16 1.738 2.68-1.208 5.474-1.82 8.304-1.82 11.22 0 20.348 9.129 20.348 20.351 0 1.394-.146 2.799-.434 4.178-.409 1.961.696 3.922 2.585 4.589 10.425 3.678 17.429 13.562 17.429 24.594 0 5.158-1.51 10.153-4.366 14.443-1.033 1.55-.858 3.607.42 4.962 3.588 3.802 5.564 8.756 5.564 13.948 0 11.222-9.128 20.351-20.348 20.351s-20.348-9.129-20.348-20.351c0-1.514.19-3.089.565-4.682.351-1.488-.178-3.046-1.362-4.014-.728-.596-1.626-.903-2.532-.903-.567 0-1.137.12-1.672.366-2.867 1.319-5.894 1.988-8.997 1.988-11.904 0-21.588-9.685-21.588-21.588 0-2.209-1.791-4-4-4s-4 1.791-4 4c0 11.903-9.685 21.588-21.588 21.588-3.104 0-6.131-.669-8.998-1.988-1.389-.64-3.02-.431-4.204.537-1.184.967-1.712 2.524-1.362 4.013.375 1.597.566 3.173.566 4.683 0 11.222-9.128 20.351-20.349 20.351-11.22 0-20.348-9.129-20.348-20.351.002-5.193 1.978-10.146 5.566-13.947zm70.934 178.564c.096-.779-.04-1.57-.39-2.273l-8.226-16.501 12.4-12.001 12.399 12.002-8.225 16.5c-.351.703-.486 1.494-.391 2.273l14.123 114.553-17.908 32.673-17.91-32.673zm9.737-36.147 20.198-17.134 10.67 4.018-6.979 36.237zm209.674-48.911c-.01.007-.019.016-.029.022l-52.374 41.019-52.367-41.014c-.013-.01-.026-.021-.04-.03l-47.587-37.271c.254-2.93.398-5.948.398-9.079 0-1.681-.047-3.38-.118-5.089 13.947-1.766 24.771-13.697 24.771-28.117 0-6.212-2.024-12.175-5.751-17.085.159-.291.297-.591.447-.886h242.651c3.718 0 7.313 1.178 10.331 3.286zm-271.13-51.557c13.49-2.127 23.85-13.801 23.917-27.864 1.965.411 3.968.618 5.998.618 10.909 0 20.458-5.934 25.588-14.744 5.131 8.811 14.68 14.744 25.588 14.744 2.029 0 4.033-.207 5.998-.618.067 14.064 10.428 25.738 23.919 27.864.079 1.747.124 3.483.124 5.204 0 50.635-34.852 58.195-55.627 58.195-20.776 0-55.629-7.561-55.629-58.195.001-1.72.046-3.457.124-5.204zm55.506 71.4c34.163 0 56.015-17.224 61.973-47.938l40.219 31.5-34.034 30.19c-8.162-2.801-16.644-4.354-25.104-4.354h-.943l-15.347-5.778c-1.358-.512-2.889-.247-3.997.692l-22.771 19.317-17.325-14.7v-10.608c5.36 1.108 11.14 1.679 17.329 1.679zm-5.957 29.069-23.89 23.12-6.978-36.235 10.674-4.019zm131.977 44.871c-6.234-24.563-25.897-45.962-49.554-56.865l32.127-28.5 52.162 40.854c.724.567 1.595.851 2.466.851s1.742-.283 2.466-.851l52.163-40.854 118.361 104.996c-3.056 2.219-6.753 3.451-10.585 3.451h-193.749zm98.233-90.379 117.118-91.727c1.556 2.717 2.402 5.789 2.402 8.941v178.103c0 3.062-.799 6.039-2.27 8.693zm-71.158 158.618h190.678v21.385h-190.678z"/></svg>