<svg xmlns="http://www.w3.org/2000/svg" version="1.1" xmlns:xlink="http://www.w3.org/1999/xlink" width="512" height="512" x="0" y="0" viewBox="0 0 510 510" style="enable-background:new 0 0 512 512" xml:space="preserve" fill-rule="evenodd" class=""><g><path d="m197.042 118.462 2.489-2.461a49.442 49.442 0 0 1 34.757-14.278h44.518a49.44 49.44 0 0 1 34.757 14.278l2.718 2.687-30.446 30.095c-10.551 10.429-10.65 27.436-.221 37.987l.391.396a26.737 26.737 0 0 0 13.289 7.344l12.179 90.841a16.299 16.299 0 0 1-13.987 18.318l-2.754.369c-8.165 1.095-15.863-4.076-17.937-12.049l-20.342-78.202-.006.002-20.168 78.165c-2.062 7.989-9.768 13.177-17.946 12.08l-2.725-.365a16.296 16.296 0 0 1-13.987-18.318l12.166-90.741a26.735 26.735 0 0 0 13.761-7.444l.391-.396c10.429-10.551 10.33-27.558-.221-37.987zM256.547 18.5c19.091 0 34.59 15.499 34.59 34.589 0 19.091-15.499 34.59-34.59 34.59-19.09 0-34.589-15.499-34.589-34.59 0-19.09 15.499-34.589 34.589-34.589zm85.135 181.023v-49.307L314.15 177.43c-5.052 4.993-13.195 4.946-18.188-.106l-.391-.396c-4.994-5.051-4.946-13.195.105-18.188l32.384-32.01a46.624 46.624 0 0 1 32.775-13.464h41.98a46.626 46.626 0 0 1 32.776 13.464l32.383 32.01c5.052 4.993 5.1 13.137.106 18.188l-.391.396c-4.993 5.052-13.137 5.099-18.188.106l-27.532-27.214v49.307l11.651 86.902a15.37 15.37 0 0 1-13.189 17.273l-2.597.348c-7.7 1.033-14.959-3.844-16.915-11.362l-19.182-73.743-.006.002-19.018 73.708a15.367 15.367 0 0 1-16.923 11.392l-2.57-.345a15.365 15.365 0 0 1-13.189-17.273zm40.143-164.735c18.002 0 32.618 14.615 32.618 32.617s-14.616 32.618-32.618 32.618-32.617-14.616-32.617-32.618 14.615-32.617 32.617-32.617zM91.584 199.523v-49.307L64.052 177.43c-5.052 4.993-13.195 4.946-18.189-.106l-.391-.396c-4.993-5.051-4.946-13.195.106-18.188l32.384-32.01a46.624 46.624 0 0 1 32.775-13.464h41.98a46.626 46.626 0 0 1 32.776 13.464l32.383 32.01c5.052 4.993 5.099 13.137.106 18.188l-.391.396c-4.994 5.052-13.137 5.099-18.189.106l-27.531-27.214v49.307l11.65 86.902a15.362 15.362 0 0 1-3.017 11.368 15.36 15.36 0 0 1-10.172 5.905l-2.597.348c-7.699 1.033-14.959-3.844-16.914-11.362l-19.182-73.743-.006.002-19.019 73.708c-1.944 7.534-9.211 12.426-16.922 11.392l-2.57-.345a15.366 15.366 0 0 1-13.189-17.273zm40.143-164.735c18.002 0 32.617 14.615 32.617 32.617s-14.615 32.618-32.617 32.618S99.11 85.407 99.11 67.405s14.615-32.617 32.617-32.617zm64.319 412.067h-67.107c-2.214-8.298-6.865-14.832-14.014-19.745l-41.13-28.261c-5.537-3.804-9.36-9.995-12.45-16.652-3.521-7.581-6.017-15.829-8.306-22.793l-.002-.006-30.187-91.554c-2.127-6.463-.178-13.911 3.835-18.96 2.301-2.896 5.322-5.061 8.83-5.232 3.018-.148 6.203 1.232 9.487 4.185 4.403 3.959 8.685 10.421 12.714 19.936l23.755 56.045a27.13 27.13 0 0 0-5.112 5.404c-8.787 12.222-5.97 29.426 6.249 38.22l.004.002 48.556 34.894a7.004 7.004 0 0 0 9.77-1.6 7.004 7.004 0 0 0-1.6-9.769l-48.553-34.891c-5.975-4.3-7.355-12.713-3.055-18.689l.014-.02c4.28-5.991 12.691-7.356 18.683-3.058l36.534 26.246c.674.484 1.43.845 2.231 1.065 12.585 3.455 20.938 7.576 26.686 12.938 8.615 8.036 11.191 18.67 14.444 32.459 3.137 13.305 6.411 26.573 9.724 39.836zm-72.757 14H214.678a2.843 2.843 0 0 1 2.836 2.836v.008l.028 24.937c0 .783-.272 1.453-.804 2.013-.575.551-1.243.851-2.031.851-33.817-.028-67.662-.028-101.479-.028-1.555 0-2.836-1.253-2.836-2.808v-.008l-.028-24.965c0-.775.282-1.442.82-2.001.567-.559 1.235-.835 2.016-.835zm181.571 0H396.828c.758 0 1.424.262 1.959.805l.036.036c.555.555.841 1.22.841 1.995l-.028 24.965v.008c0 1.555-1.281 2.808-2.836 2.808-33.845 0-67.662 0-101.507.028-.775 0-1.448-.295-1.994-.841a2.755 2.755 0 0 1-.841-2.023l.028-24.937v-.008a2.843 2.843 0 0 1 2.836-2.836zm76.201-14h-67.097c3.317-13.263 6.593-26.533 9.714-39.839 3.253-13.787 5.839-24.419 14.46-32.454 5.754-5.362 14.112-9.485 26.698-12.94a7.009 7.009 0 0 0 2.231-1.065l36.538-26.248.005-.004c5.973-4.298 14.384-2.916 18.683 3.076l.006.008c4.298 5.974 2.916 14.384-3.076 18.683l-.005.003-48.556 34.894a7.004 7.004 0 0 0-1.6 9.769 7.004 7.004 0 0 0 9.77 1.6l48.556-34.894c12.257-8.793 15.071-26.004 6.277-38.228a27.212 27.212 0 0 0-5.132-5.407l23.751-56.036c4.029-9.515 8.311-15.977 12.714-19.936 3.284-2.953 6.469-4.333 9.487-4.185 3.508.171 6.529 2.336 8.83 5.232 4.013 5.049 5.962 12.497 3.835 18.961l-30.159 91.553c-2.303 6.966-4.807 15.214-8.331 22.797-3.094 6.657-6.917 12.85-12.455 16.654l-41.13 28.261c-7.145 4.91-11.795 11.441-14.014 19.745z" fill="#ff3221" opacity="1" data-original="#000000"></path></g></svg>