<svg xmlns="http://www.w3.org/2000/svg" version="1.1" xmlns:xlink="http://www.w3.org/1999/xlink" width="512" height="512" x="0" y="0" viewBox="0 0 64 64" style="enable-background:new 0 0 512 512" xml:space="preserve" class=""><g><g data-name="outline final"><path d="M57 36.83a1 1 0 0 1-1-1V19a1 1 0 0 1 1-1h2.586L52 10.414 44.414 18H47a1 1 0 0 1 1 1v13a1 1 0 0 1-2 0V20h-4a1 1 0 0 1-.707-1.707l10-10a1 1 0 0 1 1.414 0l10 10A1 1 0 0 1 62 20h-4v15.83a1 1 0 0 1-1 1zM57 63H47a1 1 0 0 1 0-2h9v-2.83a1 1 0 0 1 2 0V62a1 1 0 0 1-1 1zM17 31a1 1 0 0 1-1-1V19a1 1 0 0 1 1-1h2.586L12 10.414 4.414 18H7a1 1 0 0 1 1 1v11a1 1 0 0 1-2 0V20H2a1 1 0 0 1-.707-1.707l10-10a1 1 0 0 1 1.414 0l10 10A1 1 0 0 1 22 20h-4v10a1 1 0 0 1-1 1z" fill="#ff3221" opacity="1" data-original="#000000"></path><path d="M37 28.68a1 1 0 0 1-1-1V12a1 1 0 0 1 1-1h2.586L32 3.414 24.414 11H27a1 1 0 0 1 1 1v11.05a1 1 0 1 1-2 0V13h-4a1 1 0 0 1-.707-1.707l10-10a1 1 0 0 1 1.414 0l10 10A1 1 0 0 1 42 13h-4v14.68a1 1 0 0 1-1 1zM47 63a15.866 15.866 0 0 1-8.537-2.477 1 1 0 1 1 1.074-1.687A13.862 13.862 0 0 0 47 61a14 14 0 1 0-7.475-25.835 1 1 0 1 1-1.07-1.689A16 16 0 1 1 47 63z" fill="#ff3221" opacity="1" data-original="#000000"></path><path d="M42 53a1 1 0 0 1-.707-1.707l10-10a1 1 0 0 1 1.414 1.414l-10 10A1 1 0 0 1 42 53zM43 46a3 3 0 1 1 3-3 3 3 0 0 1-3 3zm0-4a1 1 0 1 0 1 1 1 1 0 0 0-1-1zM51 54a3 3 0 1 1 3-3 3 3 0 0 1-3 3zm0-4a1 1 0 1 0 1 1 1 1 0 0 0-1-1zM17 35H2a1 1 0 0 1-1-1v-4a1 1 0 0 1 1-1h15.75a1 1 0 0 1 0 2H3v2h14a1 1 0 0 1 0 2z" fill="#ff3221" opacity="1" data-original="#000000"></path><path d="M17.75 39H2a1 1 0 0 1-1-1v-4a1 1 0 0 1 1-1h15a1 1 0 0 1 0 2H3v2h14.75a1 1 0 0 1 0 2z" fill="#ff3221" opacity="1" data-original="#000000"></path><path d="M20.45 43H2a1 1 0 0 1-1-1v-4a1 1 0 0 1 1-1h15.75a1 1 0 0 1 0 2H3v2h17.45a1 1 0 0 1 0 2z" fill="#ff3221" opacity="1" data-original="#000000"></path><path d="M24 47H2a1 1 0 0 1-1-1v-4a1 1 0 0 1 1-1h18.45a1 1 0 0 1 0 2H3v2h20v-.75a1 1 0 0 1 2 0V46a1 1 0 0 1-1 1z" fill="#ff3221" opacity="1" data-original="#000000"></path><path d="M17 51H2a1 1 0 0 1-1-1v-4a1 1 0 0 1 1-1h15a1 1 0 0 1 1 1v4a1 1 0 0 1-1 1zM3 49h13v-2H3z" fill="#ff3221" opacity="1" data-original="#000000"></path><path d="M17 55H2a1 1 0 0 1-1-1v-4a1 1 0 0 1 1-1h15a1 1 0 0 1 1 1v4a1 1 0 0 1-1 1zM3 53h13v-2H3z" fill="#ff3221" opacity="1" data-original="#000000"></path><path d="M17 59H2a1 1 0 0 1-1-1v-4a1 1 0 0 1 1-1h15a1 1 0 0 1 1 1v4a1 1 0 0 1-1 1zM3 57h13v-2H3z" fill="#ff3221" opacity="1" data-original="#000000"></path><path d="M17 63H2a1 1 0 0 1-1-1v-4a1 1 0 0 1 1-1h15a1 1 0 0 1 1 1v4a1 1 0 0 1-1 1zM3 61h13v-2H3zM28 46a12 12 0 1 1 12-12 12.013 12.013 0 0 1-12 12zm0-22a10 10 0 1 0 10 10 10.012 10.012 0 0 0-10-10z" fill="#ff3221" opacity="1" data-original="#000000"></path><path d="M28.285 40H27.25a3.226 3.226 0 0 1-3.057-2.091 1 1 0 1 1 1.883-.676A1.222 1.222 0 0 0 27.25 38h1.035A1.626 1.626 0 0 0 30 36.641a1.317 1.317 0 0 0-.3-.889 1.565 1.565 0 0 0-.845-.523l-2.171-.512A3.432 3.432 0 0 1 24 31.407a3.324 3.324 0 0 1 1.053-2.424A3.568 3.568 0 0 1 27.527 28h1.223a3.226 3.226 0 0 1 3.057 2.091 1 1 0 1 1-1.883.676A1.222 1.222 0 0 0 28.75 30h-1.223a1.579 1.579 0 0 0-1.1.432 1.342 1.342 0 0 0-.432.976 1.439 1.439 0 0 0 1.146 1.364l2.171.512a3.568 3.568 0 0 1 1.925 1.2 3.3 3.3 0 0 1 .763 2.23A3.609 3.609 0 0 1 28.285 40z" fill="#ff3221" opacity="1" data-original="#000000"></path><path d="M28 30a1 1 0 0 1-1-1v-2a1 1 0 0 1 2 0v2a1 1 0 0 1-1 1zM28 42a1 1 0 0 1-1-1v-2a1 1 0 0 1 2 0v2a1 1 0 0 1-1 1zM39 51H17a1 1 0 0 1-1-1v-4a1 1 0 0 1 1-1h22a1 1 0 0 1 1 1v4a1 1 0 0 1-1 1zm-21-2h20v-2H18z" fill="#ff3221" opacity="1" data-original="#000000"></path><path d="M39 55H17a1 1 0 0 1-1-1v-4a1 1 0 0 1 1-1h22a1 1 0 0 1 1 1v4a1 1 0 0 1-1 1zm-21-2h20v-2H18z" fill="#ff3221" opacity="1" data-original="#000000"></path><path d="M39 59H17a1 1 0 0 1-1-1v-4a1 1 0 0 1 1-1h22a1 1 0 0 1 1 1v4a1 1 0 0 1-1 1zm-21-2h20v-2H18z" fill="#ff3221" opacity="1" data-original="#000000"></path><path d="M39 63H17a1 1 0 0 1-1-1v-4a1 1 0 0 1 1-1h22a1 1 0 0 1 1 1v4a1 1 0 0 1-1 1zm-21-2h20v-2H18z" fill="#ff3221" opacity="1" data-original="#000000"></path></g></g></svg>