<svg xmlns="http://www.w3.org/2000/svg" version="1.1" xmlns:xlink="http://www.w3.org/1999/xlink" width="512" height="512" x="0" y="0" viewBox="0 0 491.5 491.5" style="enable-background:new 0 0 512 512" xml:space="preserve"><g><g fill-rule="evenodd" clip-rule="evenodd"><path d="M139.5 147.6c-1.1 0-2.2-.4-3.1-1.2-2-1.7-2.2-4.7-.4-6.7C163.7 108.2 203.7 90 245.8 90c42 0 82.1 18.1 109.8 49.8 1.7 2 1.5 5-.4 6.7-2 1.7-5 1.5-6.7-.4-26-29.6-63.4-46.5-102.7-46.5s-76.8 17-102.7 46.5c-1 1-2.3 1.5-3.6 1.5zm234.3 153.1c-.7 0-1.4-.1-2-.4-2.4-1.1-3.4-3.9-2.3-6.3 8.5-18.2 12.8-37.6 12.8-57.9 0-20.2-4.3-39.7-12.8-57.9-1.1-2.4-.1-5.2 2.3-6.3s5.2-.1 6.3 2.3c9.1 19.4 13.7 40.3 13.7 61.9s-4.6 42.4-13.7 61.9c-.8 1.7-2.5 2.7-4.3 2.7zm-256.1 0c-1.8 0-3.5-1-4.3-2.7-9.1-19.4-13.7-40.3-13.7-61.9s4.6-42.4 13.7-61.9c1.1-2.4 3.9-3.4 6.3-2.3s3.4 3.9 2.3 6.3c-8.5 18.2-12.8 37.6-12.8 57.9 0 20.2 4.3 39.7 12.8 57.9 1.1 2.4.1 5.2-2.3 6.3-.7.3-1.4.4-2 .4zm168.7 75.6c-2 0-3.9-1.3-4.5-3.4-.8-2.5.7-5.1 3.2-5.9 24.5-7.4 46.5-21.5 63.4-40.8 1.7-2 4.7-2.2 6.7-.4 2 1.7 2.2 4.7.4 6.7-18.2 20.7-41.6 35.8-67.8 43.6-.5.1-.9.2-1.4.2zm-49.8 5.6h-.3c-38.9-2.5-74.6-20-100.4-49.5-1.7-2-1.5-5 .4-6.7 2-1.7 5-1.5 6.7.4 24.1 27.5 57.5 43.9 93.9 46.3 2.6.2 4.6 2.4 4.4 5-.1 2.6-2.2 4.5-4.7 4.5z" fill="#022c60" opacity="1" data-original="#000000"></path><path d="M236.3 380.7c-.5 0-1-.1-1.4-.2-33.9-10.8-58.6-71.6-58.6-144.4 0-38.4 6.9-74.6 19.4-101.9 13-28.5 30.8-44.2 50.1-44.2s37 15.7 50.1 44.2c12.5 27.3 19.4 63.5 19.4 101.9 0 47.1-10.7 91.4-28.5 118.6-1.4 2.2-4.4 2.8-6.6 1.4s-2.8-4.4-1.4-6.6c16.9-25.7 27-68.1 27-113.4 0-37.1-6.6-71.9-18.5-98-11.2-24.6-26.4-38.6-41.5-38.6s-30.2 14.1-41.5 38.6c-11.9 26.1-18.5 60.9-18.5 98 0 33.6 5.5 65.9 15.6 91.1 9.6 24.1 22.6 39.8 36.4 44.3 2.5.8 3.9 3.5 3.1 6-.7 1.9-2.6 3.2-4.6 3.2z" fill="#022c60" opacity="1" data-original="#000000"></path><path d="M245.8 346.9c-2.6 0-4.7-2.1-4.7-4.7V94.8c0-2.6 2.1-4.7 4.7-4.7s4.7 2.1 4.7 4.7v247.5c0 2.5-2.1 4.6-4.7 4.6z" fill="#022c60" opacity="1" data-original="#000000"></path><path d="M387.1 240.9H104.4c-2.6 0-4.7-2.1-4.7-4.7s2.1-4.7 4.7-4.7h282.7c2.6 0 4.7 2.1 4.7 4.7.1 2.5-2.1 4.7-4.7 4.7zM344.2 163.5H147.4c-2.6 0-4.7-2.1-4.7-4.7s2.1-4.7 4.7-4.7h196.8c2.6 0 4.7 2.1 4.7 4.7s-2.1 4.7-4.7 4.7zM344.2 318.2H147.4c-2.6 0-4.7-2.1-4.7-4.7s2.1-4.7 4.7-4.7h196.8c2.6 0 4.7 2.1 4.7 4.7 0 2.5-2.1 4.7-4.7 4.7z" fill="#022c60" opacity="1" data-original="#000000"></path><path d="M127.4 143.6c-8.4 0-15.2 6.8-15.2 15.2S119 174 127.4 174s15.2-6.8 15.2-15.2-6.8-15.2-15.2-15.2zm0 39.9c-13.6 0-24.7-11.1-24.7-24.7s11.1-24.7 24.7-24.7 24.7 11.1 24.7 24.7-11.1 24.7-24.7 24.7zM364.1 143.6c-8.4 0-15.2 6.8-15.2 15.2s6.8 15.2 15.2 15.2 15.2-6.8 15.2-15.2c.1-8.4-6.8-15.2-15.2-15.2zm0 39.9c-13.6 0-24.7-11.1-24.7-24.7s11.1-24.7 24.7-24.7 24.7 11.1 24.7 24.7-11 24.7-24.7 24.7zM364.1 298.2c-8.4 0-15.2 6.8-15.2 15.2s6.8 15.2 15.2 15.2 15.2-6.8 15.2-15.2c.1-8.4-6.8-15.2-15.2-15.2zm0 39.9c-13.6 0-24.7-11.1-24.7-24.7s11.1-24.7 24.7-24.7 24.7 11.1 24.7 24.7c0 13.7-11 24.7-24.7 24.7zM127.4 298.2c-8.4 0-15.2 6.8-15.2 15.2s6.8 15.2 15.2 15.2 15.2-6.8 15.2-15.2-6.8-15.2-15.2-15.2zm0 39.9c-13.6 0-24.7-11.1-24.7-24.7s11.1-24.7 24.7-24.7 24.7 11.1 24.7 24.7c0 13.7-11.1 24.7-24.7 24.7z" fill="#022c60" opacity="1" data-original="#000000"></path><path d="M113.4 149.3c-1.2 0-2.4-.5-3.4-1.4l-45.8-46.5c-1.8-1.9-1.8-4.9 0-6.7 1.9-1.8 4.9-1.8 6.7 0l45.8 46.5c1.8 1.9 1.8 4.9 0 6.7-.9 1-2.1 1.4-3.3 1.4z" fill="#022c60" opacity="1" data-original="#000000"></path><path d="M53.5 68.7c-8.4 0-15.2 6.8-15.2 15.2s6.8 15.2 15.2 15.2 15.2-6.8 15.2-15.2-6.8-15.2-15.2-15.2zm0 39.9c-13.6 0-24.7-11.1-24.7-24.7s11.1-24.7 24.7-24.7 24.7 11.1 24.7 24.7-11.1 24.7-24.7 24.7zM67.5 378.8c-1.2 0-2.4-.5-3.3-1.4-1.9-1.8-1.9-4.8 0-6.7l45.8-46.5c1.8-1.9 4.8-1.9 6.7 0 1.9 1.8 1.9 4.8 0 6.7l-45.8 46.5c-.9 1-2.1 1.4-3.4 1.4z" fill="#022c60" opacity="1" data-original="#000000"></path><path d="M53.5 373.1c-8.4 0-15.2 6.8-15.2 15.2s6.8 15.2 15.2 15.2 15.2-6.8 15.2-15.2-6.8-15.2-15.2-15.2zm0 39.9c-13.6 0-24.7-11.1-24.7-24.7s11.1-24.7 24.7-24.7 24.7 11.1 24.7 24.7c0 13.7-11.1 24.7-24.7 24.7zM424 378.8c-1.2 0-2.4-.5-3.4-1.4L374.8 331c-1.8-1.9-1.8-4.9 0-6.7 1.9-1.8 4.9-1.8 6.7 0l45.8 46.5c1.8 1.9 1.8 4.9 0 6.7-.9.9-2.1 1.3-3.3 1.3z" fill="#022c60" opacity="1" data-original="#000000"></path><path d="M438 373.1c-8.4 0-15.2 6.8-15.2 15.2s6.8 15.2 15.2 15.2 15.2-6.8 15.2-15.2-6.8-15.2-15.2-15.2zm0 39.9c-13.6 0-24.7-11.1-24.7-24.7s11.1-24.7 24.7-24.7 24.7 11.1 24.7 24.7c0 13.7-11.1 24.7-24.7 24.7zM378.2 149.3c-1.2 0-2.4-.5-3.3-1.4-1.9-1.8-1.9-4.8 0-6.7l45.8-46.5c1.8-1.9 4.8-1.9 6.7 0 1.9 1.8 1.9 4.8 0 6.7l-45.8 46.5c-1 1-2.2 1.4-3.4 1.4z" fill="#022c60" opacity="1" data-original="#000000"></path><path d="M438 68.7c-8.4 0-15.2 6.8-15.2 15.2s6.8 15.2 15.2 15.2 15.2-6.8 15.2-15.2-6.8-15.2-15.2-15.2zm0 39.9c-13.6 0-24.7-11.1-24.7-24.7s11.1-24.7 24.7-24.7 24.7 11.1 24.7 24.7-11.1 24.7-24.7 24.7zM257.3 389.5c1.2 0 2.4.5 3.3 1.4l30 30 19.2-19.2-30-30c-1.8-1.9-1.8-4.8 0-6.7l6.9-6.9-54.2-14.5 14.5 54.2 6.9-6.9c1-1 2.2-1.4 3.4-1.4zm33.4 42.8c-1.2 0-2.4-.5-3.3-1.4l-30-30-9.3 9.3c-1.2 1.2-2.9 1.7-4.6 1.2-1.6-.4-2.9-1.7-3.3-3.4l-18.8-70c-.4-1.6 0-3.4 1.2-4.6s2.9-1.7 4.6-1.2l70 18.8c1.6.4 2.9 1.7 3.3 3.4.4 1.6 0 3.4-1.2 4.6l-9.3 9.3 30 30c.9.9 1.4 2.1 1.4 3.4s-.5 2.5-1.4 3.3l-26 25.9c-.9 1-2.1 1.4-3.3 1.4z" fill="#022c60" opacity="1" data-original="#000000"></path></g></g></svg>