<svg id="Layer_1" viewBox="0 0 512 512" xmlns="http://www.w3.org/2000/svg" data-name="Layer 1"><path d="m85.229 127.911c0-3.035 2.461-5.496 5.496-5.496s5.496 2.461 5.496 5.496v5.013c11.588 2.432 20.443 12.424 20.443 24.52 0 3.035-2.461 5.496-5.496 5.496s-5.496-2.461-5.496-5.496c0-12.662-16.316-18.804-25.603-9.903-9.218 8.834-2.673 23.999 10.656 23.999 22.99 0 34.726 27.108 18.256 42.892-3.45 3.306-7.851 5.686-12.76 6.716v5.013c0 3.035-2.461 5.496-5.496 5.496s-5.496-2.461-5.496-5.496v-5.013c-11.588-2.432-20.444-12.424-20.444-24.52 0-3.035 2.461-5.496 5.496-5.496s5.496 2.461 5.496 5.496c0 12.661 16.316 18.804 25.604 9.903 9.217-8.833 2.673-23.999-10.656-23.999-22.989 0-34.727-27.107-18.256-42.892 3.45-3.306 7.851-5.686 12.76-6.716zm378.027-6.18c-29.001-29.001-76.026-29.001-105.028 0-29.001 29.001-29.001 76.027 0 105.028s76.027 29.001 105.028 0c29.001-29.002 29.001-76.026 0-105.028zm-88.714 55.723c-2.217-2.063-2.342-5.533-.279-7.75s5.533-2.342 7.75-.279l19.703 18.361 37.561-38.569c2.11-2.17 5.581-2.218 7.75-.107 2.17 2.11 2.218 5.581.108 7.75l-41.22 42.329c-2.063 2.217-5.533 2.342-7.75.279l-23.623-22.013zm-218.437 177.73c15.357-15.744 40.581-16.069 56.327-.711 15.744 15.357 16.07 40.581.711 56.326-15.358 15.744-40.581 16.07-56.327.711-15.744-15.358-16.07-40.581-.711-56.327zm28.156-1.07c-15.937.198-28.713 13.314-28.515 29.24.198 15.937 13.315 28.713 29.24 28.515 15.932-.198 28.713-13.312 28.516-29.24-.198-15.937-13.315-28.713-29.24-28.515zm190.702 88.184c11.866 0 21.592-9.727 21.592-21.592v-56.021h-43.184v56.021c0 11.865 9.726 21.592 21.592 21.592zm-21.592-204.987c33.665 30.643 85.465 29.412 117.657-2.78 33.296-33.296 33.296-87.276 0-120.571-32.192-32.192-83.992-33.423-117.657-2.78v-74.774c0-4.129-4.55-7.103-8.576-4.553l-29.558 17.449-29.772-17.575c-1.676-1.024-3.848-1.113-5.657-.044l-29.847 17.619-29.772-17.575c-1.676-1.024-3.848-1.113-5.657-.044l-29.847 17.619-29.772-17.575c-1.676-1.024-3.848-1.113-5.657-.044l-29.847 17.619-29.772-17.575c-1.676-1.024-3.848-1.113-5.657-.044l-29.847 17.619-29.558-17.449c-4.027-2.55-8.576.424-8.576 4.553v374.114c0 23.554 19.303 42.77 42.879 42.77h57.624l11.653 11.366c1.819 1.92 4.814 2.292 7.069.753l13.91-9.471 9.513 3.906 3.647 16.911.01-.002c.528 2.504 2.765 4.37 5.421 4.339l34.636-.432c2.678.111 5.102-1.757 5.61-4.469l3.135-16.516 9.486-3.978 14.57 9.4.002-.003c2.147 1.381 5.041 1.109 6.89-.792l10.742-11.013h122.165c17.933 0 32.585-14.652 32.585-32.585v-61.517c0-3.035-2.461-5.496-5.496-5.496h-48.68v-116.381zm-230.106 84.094-9.475 9.713 8.727 12.815c1.166 1.646 1.376 3.875.357 5.772-2.088 3.874-4.361 9.117-5.511 13.328-1.214 4.448-5.387 4.155-9.818 5.256l-10.017 2.16.323 25.95 15.059 2.858c2.067.285 3.88 1.742 4.515 3.872 1.17 3.919 3.472 9.77 5.482 13.228 1.085 1.742 1.144 4.025-.038 5.867l-8.697 13.479 18.579 18.122 12.814-8.725c1.646-1.166 3.875-1.377 5.772-.357 3.87 2.086 9.123 4.362 13.329 5.51 1.972.492 3.593 2.065 4.042 4.187l3.374 15.646 25.95-.324 2.858-15.058c.285-2.067 1.742-3.88 3.872-4.515 3.918-1.17 9.769-3.471 13.227-5.481 1.742-1.085 4.025-1.144 5.867.038l13.479 8.696 18.122-18.578-8.725-12.814c-1.166-1.646-1.377-3.875-.357-5.771 1.963-3.643 4.457-9.315 5.485-13.223.461-2.02 2.053-3.691 4.213-4.149l15.646-3.374-.323-25.95-15.059-2.858c-2.067-.285-3.88-1.742-4.515-3.872-1.169-3.916-3.472-9.771-5.481-13.227-1.085-1.742-1.144-4.025.038-5.867l8.696-13.479-18.578-18.122-12.814 8.725c-1.646 1.166-3.875 1.377-5.772.357-3.644-1.964-9.313-4.457-13.223-5.485-2.02-.461-3.691-2.053-4.149-4.213l-3.374-15.645-25.95.322-2.858 15.056c-.285 2.067-1.742 3.88-3.872 4.515-3.917 1.17-9.775 3.474-13.231 5.483-1.742 1.085-4.024 1.144-5.866-.038l-13.476-8.694-8.647 8.865zm-59.57 1.958c-3.035 0-5.496-2.461-5.496-5.496s2.461-5.496 5.496-5.496h53.07l10.428-10.69c1.849-1.901 4.742-2.173 6.89-.792l.002-.003 14.568 9.398 9.489-3.979 3.134-16.515c.508-2.712 2.932-4.581 5.61-4.469l34.636-.43c2.656-.031 4.893 1.835 5.421 4.339l.01-.002 3.648 16.915 9.512 3.901 13.91-9.471c2.255-1.539 5.25-1.167 7.069.753l11.322 11.044h53.263c3.035 0 5.496 2.461 5.496 5.496s-2.461 5.496-5.496 5.496h-41.994l2.252 2.197c1.901 1.849 2.173 4.742.792 6.89l.003.002-9.4 14.57 3.978 9.486 5.247.996h39.122c3.035 0 5.496 2.461 5.496 5.496s-2.461 5.496-5.496 5.496h-23.343l.391 31.393c.031 2.656-1.835 4.893-4.339 5.421l.002.01-16.916 3.648-3.901 9.512 9.472 13.91c1.539 2.255 1.167 5.25-.753 7.069l-2.769 2.838h87.083c-5.111-5.757-8.225-13.327-8.225-21.592v-195.511c-10.611-14.214-16.894-31.849-16.894-50.95s6.283-36.736 16.894-50.95v-77.272l-24.276 14.33c-1.676 1.024-3.848 1.113-5.657.044l-29.847-17.619-29.772 17.575c-1.676 1.024-3.848 1.113-5.657.044l-29.847-17.619-29.772 17.575c-1.676 1.024-3.848 1.113-5.657.044l-29.847-17.619-29.772 17.575c-1.676 1.024-3.848 1.113-5.657.044l-29.847-17.619-29.772 17.575c-1.676 1.024-3.848 1.113-5.657.044l-24.351-14.375v364.499c0 17.556 14.337 31.778 31.886 31.778h46.354l-1.921-1.874c-1.901-1.849-2.173-4.742-.792-6.89l-.003-.002 9.401-14.57-3.978-9.486-16.516-3.135c-2.712-.508-4.581-2.932-4.469-5.61l-.401-32.234h-22.859c-3.035 0-5.496-2.461-5.496-5.496s2.461-5.496 5.496-5.496h41.814l2.263-.488 3.906-9.511-9.473-13.911c-1.539-2.255-1.167-5.25.753-7.069l3.083-3.161h-42.347zm0-45.133c-3.035 0-5.496-2.461-5.496-5.496s2.461-5.496 5.496-5.496h241.981c3.035 0 5.496 2.461 5.496 5.496s-2.461 5.496-5.496 5.496zm104.531-45.133c-3.035 0-5.496-2.461-5.496-5.496s2.461-5.496 5.496-5.496h137.45c3.035 0 5.496 2.461 5.496 5.496s-2.461 5.496-5.496 5.496zm0-45.133c-3.035 0-5.496-2.461-5.496-5.496s2.461-5.496 5.496-5.496h137.45c3.035 0 5.496 2.461 5.496 5.496s-2.461 5.496-5.496 5.496zm0-45.133c-3.035 0-5.496-2.461-5.496-5.496s2.461-5.496 5.496-5.496h137.45c3.035 0 5.496 2.461 5.496 5.496s-2.461 5.496-5.496 5.496z" fill-rule="evenodd"/></svg>