<svg xmlns="http://www.w3.org/2000/svg" version="1.1" xmlns:xlink="http://www.w3.org/1999/xlink" width="512" height="512" x="0" y="0" viewBox="0 0 32 32" style="enable-background:new 0 0 512 512" xml:space="preserve" fill-rule="evenodd" class=""><g><path d="M9.573 22.642C7.886 23.439 7 24.605 7 25.75c0 1.108.82 2.232 2.398 3.023 1.576.79 3.947 1.31 6.602 1.31 3.37 0 6.281-.855 7.733-2.022C24.581 27.379 25 26.57 25 25.75c0-1.145-.886-2.311-2.573-3.108a1 1 0 1 0-.854 1.808c.489.231.889.489 1.16.781.153.166.267.331.267.519 0 .153-.079.291-.189.429-.196.245-.489.465-.849.67-1.344.763-3.518 1.234-5.962 1.234-2.292 0-4.346-.416-5.706-1.098-.445-.223-.809-.469-1.054-.746-.138-.156-.24-.313-.24-.489 0-.188.114-.353.267-.519.271-.292.671-.55 1.16-.781a1 1 0 1 0-.854-1.808zm5.624 3.954a1.002 1.002 0 0 0 1.606 0s3.913-5.271 6.262-10.013c1.073-2.167 1.803-4.241 1.803-5.715C24.868 5.974 20.895 2 16 2s-8.868 3.974-8.868 8.868c0 1.474.73 3.548 1.803 5.715 2.349 4.742 6.262 10.013 6.262 10.013zM16 24.288c-1.239-1.756-3.644-5.305-5.273-8.593-.91-1.838-1.595-3.576-1.595-4.827C9.132 7.078 12.209 4 16 4s6.868 3.078 6.868 6.868c0 1.251-.685 2.989-1.595 4.827-1.629 3.288-4.034 6.837-5.273 8.593zm0-16.716a3.903 3.903 0 0 0-3.902 3.902c0 2.153 1.748 3.902 3.902 3.902s3.902-1.749 3.902-3.902A3.903 3.903 0 0 0 16 7.572zm0 2a1.903 1.903 0 1 1-.001 3.805A1.903 1.903 0 0 1 16 9.572z" fill="#ff4a17" opacity="1" data-original="#000000" class=""></path></g></svg>