<svg xmlns="http://www.w3.org/2000/svg" version="1.1" xmlns:xlink="http://www.w3.org/1999/xlink" width="512" height="512" x="0" y="0" viewBox="0 0 100 100" style="enable-background:new 0 0 512 512" xml:space="preserve"><g><path d="M63.66 22.54c-8.76 0-16.7 5.18-20.23 13.19a1.5 1.5 0 0 0 0 1.21 22.11 22.11 0 0 0 20.23 13.2c8.75 0 16.7-5.18 20.24-13.19a1.5 1.5 0 0 0 0-1.21 22.144 22.144 0 0 0-20.24-13.2zm0 24.59c-7.35 0-14.03-4.22-17.21-10.8 3.18-6.58 9.86-10.79 17.21-10.79s14.03 4.21 17.22 10.79a19.145 19.145 0 0 1-17.22 10.8z" fill="#ff3221" opacity="1" data-original="#000000"></path><path d="M63.66 27.77c-4.72 0-8.56 3.84-8.56 8.56s3.84 8.56 8.56 8.56 8.56-3.84 8.56-8.56c.01-4.71-3.84-8.56-8.56-8.56zm0 14.13c-3.07 0-5.56-2.5-5.56-5.56 0-3.07 2.5-5.56 5.56-5.56s5.56 2.5 5.56 5.56c.01 3.07-2.49 5.56-5.56 5.56z" fill="#ff3221" opacity="1" data-original="#000000"></path><path d="M63.66 2.29c-9.1 0-17.65 3.54-24.08 9.97s-9.97 14.98-9.97 24.08c0 7.2 2.23 14.05 6.34 19.78-1.77.11-3.5.82-4.85 2.17L10.36 79.04c-2.92 2.92-2.92 7.68 0 10.6 1.46 1.46 3.38 2.19 5.3 2.19s3.84-.73 5.3-2.19l20.75-20.75a7.462 7.462 0 0 0 2.17-4.85c5.73 4.11 12.59 6.34 19.78 6.34 9.09 0 17.65-3.54 24.08-9.97s9.97-14.98 9.97-24.08c0-9.09-3.54-17.65-9.97-24.08-6.43-6.42-14.98-9.96-24.08-9.96zM39.59 66.77 18.84 87.52c-1.75 1.75-4.61 1.75-6.36 0s-1.75-4.61 0-6.36l20.75-20.75c1.75-1.75 4.6-1.75 6.36 0 1.75 1.76 1.75 4.61 0 6.36zm46.03-8.48c-5.86 5.86-13.66 9.09-21.95 9.09s-16.09-3.23-21.96-9.09-9.09-13.66-9.09-21.96c0-8.29 3.23-16.09 9.09-21.95s13.66-9.09 21.96-9.09c8.29 0 16.09 3.23 21.95 9.09s9.09 13.66 9.09 21.95c0 8.3-3.23 16.1-9.09 21.96z" fill="#ff3221" opacity="1" data-original="#000000"></path><path d="M45.16 17.84c-10.2 10.2-10.2 26.8 0 37 5.1 5.1 11.8 7.65 18.5 7.65s13.4-2.55 18.5-7.65c10.2-10.2 10.2-26.8 0-37s-26.8-10.2-37 0zm34.88 34.88c-9.03 9.03-23.73 9.03-32.76 0s-9.03-23.73 0-32.76c4.52-4.52 10.45-6.77 16.38-6.77s11.86 2.26 16.38 6.77c9.03 9.03 9.03 23.73 0 32.76z" fill="#ff3221" opacity="1" data-original="#000000"></path></g></svg>