<svg xmlns="http://www.w3.org/2000/svg" version="1.1" xmlns:xlink="http://www.w3.org/1999/xlink" width="512" height="512" x="0" y="0" viewBox="0 0 512 512" style="enable-background:new 0 0 512 512" xml:space="preserve" class=""><g><path d="M355.695 294.185c53.771-54.59 53.985-142.5-.699-197.161-.096-.096-.195-.188-.291-.284-.019-.017-.034-.036-.053-.054l-.01-.008c-54.659-54.352-142.371-54.054-196.867-.333a10.185 10.185 0 0 0-1.424 1.423c-54.046 54.818-53.796 142.71.687 197.193.109.109.227.204.34.308 54.557 54.204 142.132 54.281 196.807.424a10.01 10.01 0 0 0 1.51-1.508zm-14.854-27.487c-3.905-3.904-10.237-3.904-14.142 0-3.905 3.905-3.905 10.237.001 14.143l6.745 6.744c-18.528 15.691-41.858 25.874-67.444 27.995V306c0-5.522-4.477-10-10-10s-10 4.478-10 10v9.58c-25.586-2.121-48.916-12.303-67.444-27.995l6.764-6.764c3.905-3.905 3.906-10.237.001-14.143-3.905-3.903-10.237-3.904-14.142 0l-6.765 6.765c-15.691-18.528-25.873-41.858-27.994-67.443H146c5.523 0 10-4.478 10-10 0-5.523-4.477-10-10-10h-9.58c2.121-25.587 12.304-48.918 27.997-67.446l6.749 6.754a9.97 9.97 0 0 0 7.074 2.932 9.971 9.971 0 0 0 7.069-2.927c3.906-3.903 3.909-10.235.005-14.142l-6.754-6.759c18.527-15.69 41.855-25.871 67.44-27.992V86c0 5.522 4.477 10 10 10s10-4.478 10-10v-9.584c24.985 2.047 48.392 11.745 67.488 27.964l-6.769 6.768c-3.905 3.905-3.905 10.237 0 14.143 1.953 1.952 4.512 2.929 7.071 2.929s5.119-.977 7.071-2.929l6.766-6.766c16.212 19.1 25.909 42.504 27.956 67.475H366c-5.523 0-10 4.477-10 10 0 5.522 4.477 10 10 10h9.58c-2.121 25.585-12.303 48.915-27.994 67.443z" fill="#ff3221" opacity="1" data-original="#000000"></path><path d="M266 167.72V126c0-5.522-4.477-10-10-10s-10 4.478-10 10v41.72A30.144 30.144 0 0 0 227.72 186H206c-5.523 0-10 4.477-10 10 0 5.522 4.477 10 10 10h21.72c4.128 11.639 15.243 20 28.28 20 16.542 0 30-13.458 30-30 0-13.036-8.361-24.152-20-28.28z" fill="#ff3221" opacity="1" data-original="#000000"></path><path d="M456 416h-40v-50c0-5.522-4.477-10-10-10h-67.597C396.319 326.051 436 265.574 436 196c0-99.252-80.747-180-180-180-99.252 0-180 80.748-180 180 0 69.574 39.681 130.051 97.598 160H106c-5.523 0-10 4.478-10 10v50H56c-5.523 0-10 4.478-10 10v60c0 5.522 4.477 10 10 10h100c5.523 0 10-4.478 10-10v-60c0-5.522-4.477-10-10-10h-40v-40h130v40h-40c-5.523 0-10 4.478-10 10v60c0 5.522 4.477 10 10 10h100c5.523 0 10-4.478 10-10v-60c0-5.522-4.477-10-10-10h-40v-40h130v40h-40c-5.523 0-10 4.478-10 10v60c0 5.522 4.477 10 10 10h100c5.523 0 10-4.478 10-10v-60c0-5.522-4.477-10-10-10zm-160 60h-80v-40h80zM96 196c0-88.225 71.776-160 160-160s160 71.775 160 160-71.776 160-160 160S96 284.225 96 196z" fill="#ff3221" opacity="1" data-original="#000000"></path></g></svg>