<svg xmlns="http://www.w3.org/2000/svg" version="1.1" xmlns:xlink="http://www.w3.org/1999/xlink" width="512" height="512" x="0" y="0" viewBox="0 0 78 78" style="enable-background:new 0 0 512 512" xml:space="preserve" class=""><g><path d="M18.96 47.44a1.009 1.009 0 0 0 1.36-.4c.26-.49.08-1.09-.4-1.36A18.966 18.966 0 0 1 10 29c0-10.48 8.52-19 19-19s19 8.52 19 19c0 1.96-.3 3.9-.89 5.76-.17.53.12 1.09.65 1.26s1.09-.12 1.26-.65c.66-2.05.99-4.19.99-6.36 0-11.58-9.42-21-21-21S8 17.42 8 29c0 7.7 4.2 14.76 10.96 18.44z" fill="#022c60" opacity="1" data-original="#000000"></path><path d="M39.05 39.73c.4.38 1.04.36 1.41-.04 2.71-2.89 4.21-6.69 4.21-10.68 0-8.64-7.03-15.67-15.67-15.67s-15.67 7.03-15.67 15.67c0 6.84 4.57 13.01 11.11 15a1.005 1.005 0 0 0 1.25-.67c.16-.53-.14-1.09-.67-1.25-5.71-1.73-9.69-7.11-9.69-13.08 0-7.54 6.13-13.67 13.67-13.67s13.67 6.13 13.67 13.67c0 3.49-1.3 6.79-3.67 9.32-.38.4-.36 1.04.04 1.41z" fill="#022c60" opacity="1" data-original="#000000"></path><path d="M28.33 23.33H33c.55 0 1-.45 1-1s-.45-1-1-1h-3v-1.67c0-.55-.45-1-1-1s-1 .45-1 1v1.7c-2.23.17-4 2.02-4 4.3 0 2.39 1.94 4.33 4.33 4.33h1.33c1.29 0 2.33 1.05 2.33 2.33s-1.05 2.33-2.33 2.33h-4.67c-.55 0-1 .45-1 1s.45 1 1 1h3v1.67c0 .55.45 1 1 1s1-.45 1-1v-1.7c2.23-.17 4-2.02 4-4.3 0-2.39-1.94-4.33-4.33-4.33h-1.33c-1.29 0-2.33-1.05-2.33-2.33s1.05-2.33 2.33-2.33zM23 64H11c-1.65 0-3 1.35-3 3s1.35 3 3 3h12c1.65 0 3-1.35 3-3s-1.35-3-3-3zm0 4H11c-.55 0-1-.45-1-1s.45-1 1-1h12c.55 0 1 .45 1 1s-.45 1-1 1zM45 56H33c-1.65 0-3 1.35-3 3 0 .77.3 1.47.78 2-.48.53-.78 1.23-.78 2s.3 1.47.78 2c-.48.53-.78 1.23-.78 2 0 1.65 1.35 3 3 3h12c1.65 0 3-1.35 3-3 0-.77-.3-1.47-.78-2 .48-.53.78-1.23.78-2s-.3-1.47-.78-2c.48-.53.78-1.23.78-2 0-1.65-1.35-3-3-3zm-12 2h12c.55 0 1 .45 1 1s-.45 1-1 1H33c-.55 0-1-.45-1-1s.45-1 1-1zm13 5c0 .55-.45 1-1 1H33c-.55 0-1-.45-1-1s.45-1 1-1h12c.55 0 1 .45 1 1zm-1 5H33c-.55 0-1-.45-1-1s.45-1 1-1h12c.55 0 1 .45 1 1s-.45 1-1 1zM67 44H55c-1.65 0-3 1.35-3 3 0 .77.3 1.47.78 2-.48.53-.78 1.23-.78 2s.3 1.47.78 2c-.48.53-.78 1.23-.78 2s.3 1.47.78 2c-.48.53-.78 1.23-.78 2s.3 1.47.78 2c-.48.53-.78 1.23-.78 2s.3 1.47.78 2c-.48.53-.78 1.23-.78 2 0 1.65 1.35 3 3 3h12c1.65 0 3-1.35 3-3 0-.77-.3-1.47-.78-2 .48-.53.78-1.23.78-2s-.3-1.47-.78-2c.48-.53.78-1.23.78-2s-.3-1.47-.78-2c.48-.53.78-1.23.78-2s-.3-1.47-.78-2c.48-.53.78-1.23.78-2s-.3-1.47-.78-2c.48-.53.78-1.23.78-2 0-1.65-1.35-3-3-3zm-12 2h12c.55 0 1 .45 1 1s-.45 1-1 1H55c-.55 0-1-.45-1-1s.45-1 1-1zm13 5c0 .55-.45 1-1 1H55c-.55 0-1-.45-1-1s.45-1 1-1h12c.55 0 1 .45 1 1zm0 4c0 .55-.45 1-1 1H55c-.55 0-1-.45-1-1s.45-1 1-1h12c.55 0 1 .45 1 1zm0 4c0 .55-.45 1-1 1H55c-.55 0-1-.45-1-1s.45-1 1-1h12c.55 0 1 .45 1 1zm0 4c0 .55-.45 1-1 1H55c-.55 0-1-.45-1-1s.45-1 1-1h12c.55 0 1 .45 1 1zm-1 5H55c-.55 0-1-.45-1-1s.45-1 1-1h12c.55 0 1 .45 1 1s-.45 1-1 1zM69 18h-8c-.55 0-1 .45-1 1s.45 1 1 1h5.66L45.58 42H32.01c-.2 0-.39.06-.55.17l-15 10c-.46.31-.58.93-.28 1.39.19.29.51.45.83.45.19 0 .38-.05.55-.17l14.75-9.83h13.7c.27 0 .53-.11.72-.31l21.28-22.2v5.51c0 .55.45 1 1 1s1-.45 1-1v-8c0-.55-.45-1-1-1z" fill="#022c60" opacity="1" data-original="#000000"></path></g></svg>