<svg xmlns="http://www.w3.org/2000/svg" version="1.1" xmlns:xlink="http://www.w3.org/1999/xlink" width="512" height="512" x="0" y="0" viewBox="0 0 32 32" style="enable-background:new 0 0 512 512" xml:space="preserve" class=""><g><path d="M11.733 13.867v7.466h8.534v-7.466zM23.467 2.133A61.163 61.163 0 0 1 16 0a61.163 61.163 0 0 1-7.467 2.133 63.977 63.977 0 0 1-6.4 1.067v10.645A18.39 18.39 0 0 0 12.8 30.528L16 32l3.2-1.472a18.39 18.39 0 0 0 10.667-16.683V3.2a63.957 63.957 0 0 1-6.4-1.067zm-1.067 19.2a2.14 2.14 0 0 1-2.133 2.134h-8.534A2.14 2.14 0 0 1 9.6 21.333v-7.466a2.14 2.14 0 0 1 2.133-2.134v-1.066c0-2.358 1.91-4.267 4.267-4.267s4.267 1.91 4.267 4.267v1.066a2.14 2.14 0 0 1 2.133 2.134zm-10.667-7.466v7.466h8.534v-7.466zm6.4-3.2c0-1.174-.96-2.134-2.133-2.134s-2.133.96-2.133 2.134v1.066h4.266v-1.066z" fill="#ff3221" opacity="1" data-original="#000000" class=""></path></g></svg>