<svg xmlns="http://www.w3.org/2000/svg" version="1.1" xmlns:xlink="http://www.w3.org/1999/xlink" width="512" height="512" x="0" y="0" viewBox="0 0 512 512" style="enable-background:new 0 0 512 512" xml:space="preserve" class=""><g><path d="M438.7 372.98c11.55-9.19 18.97-23.36 18.97-39.24 0-3.44-.35-6.8-1.01-10.05 2.66-7.88 4.87-15.92 6.57-24.02h30.13c3.96 0 7.32-2.9 7.91-6.82 1.81-12.15 2.72-24.54 2.72-36.84s-.92-24.69-2.72-36.86a7.995 7.995 0 0 0-7.91-6.82h-30.14c-5.38-25.74-15.39-49.89-29.82-71.95l21.31-21.33c2.8-2.8 3.12-7.23.77-10.41a249.54 249.54 0 0 0-52.12-52.12 8.002 8.002 0 0 0-10.41.77l-21.32 21.32c-22.05-14.44-46.2-24.46-71.95-29.84V18.63c0-3.96-2.9-7.32-6.82-7.91C280.71 8.91 268.32 8 256.02 8s-24.69.92-36.86 2.72a7.995 7.995 0 0 0-6.82 7.91v30.14c-25.74 5.38-49.89 15.39-71.95 29.82l-21.33-21.3c-2.8-2.8-7.22-3.12-10.41-.77a249.54 249.54 0 0 0-52.12 52.12 7.99 7.99 0 0 0 .77 10.41l21.32 21.33c-14.44 22.05-24.46 46.2-29.84 71.95H18.64c-3.96 0-7.33 2.9-7.91 6.82-1.81 12.17-2.72 24.58-2.72 36.86s.92 24.69 2.72 36.84a7.995 7.995 0 0 0 7.91 6.82h30.15c1.7 8.09 3.92 16.13 6.56 24.01-.66 3.25-1.01 6.62-1.01 10.06 0 15.88 7.42 30.04 18.97 39.24-36.14.71-65.29 27.04-65.29 59.32V496c0 4.42 3.58 7.99 7.99 7.99H496c4.42 0 7.99-3.58 7.99-7.99v-63.7c0-32.28-29.16-58.61-65.29-59.32zm-110.63-22.51c-4.41 0-7.99 3.58-7.99 7.99v43.4c0 .21.02.42.03.63-5.76 8.77-9.07 18.95-9.07 29.81V488H200.97v-55.7c0-10.85-3.31-21.01-9.05-29.77.02-.22.03-.45.03-.67v-43.4c0-4.42-3.58-7.99-7.99-7.99s-7.99 3.58-7.99 7.99v27.59c-11.09-7.93-25.07-12.77-40.3-13.07 11.56-9.19 18.99-23.36 18.99-39.24 0-5.79-1-11.34-2.81-16.52 11.83-21.34 36.63-34.96 64.21-34.96h79.91c27.57 0 52.38 13.62 64.23 34.96a49.958 49.958 0 0 0-2.81 16.52c0 15.88 7.42 30.04 18.97 39.24-15.22.3-29.2 5.14-40.29 13.05v-27.57c0-4.42-3.58-7.99-7.99-7.99zm-201.8-61.91a134.057 134.057 0 0 1-3.99-32.54c0-73.74 60-133.74 133.74-133.74s133.74 59.99 133.74 133.74c0 10.98-1.35 21.9-4 32.53a50.575 50.575 0 0 0-16.66 13c-15.91-21.77-43.26-35.28-73.14-35.28h-6.76c18.87-11.32 31.53-31.99 31.53-55.56 0-35.68-29.03-64.71-64.71-64.71s-64.74 29.03-64.74 64.71c0 23.57 12.67 44.23 31.55 55.56h-6.77c-29.89 0-57.23 13.5-73.12 35.28a50.64 50.64 0 0 0-16.65-13zm129.74-29.08c-26.88 0-48.76-21.87-48.76-48.76s21.87-48.73 48.76-48.73 48.73 21.86 48.73 48.73-21.86 48.76-48.73 48.76zM407.52 367.9c-18.83 0-34.16-15.32-34.16-34.16s15.32-34.19 34.16-34.19 34.16 15.33 34.16 34.19-15.32 34.16-34.16 34.16zM63.25 290.28a7.991 7.991 0 0 0-7.87-6.6H25.64c-1.09-9.17-1.64-18.45-1.64-27.67s.55-18.5 1.64-27.69h29.74c3.88 0 7.2-2.79 7.87-6.6 4.97-28.13 15.81-54.28 32.24-77.73a7.983 7.983 0 0 0-.9-10.24L73.54 112.7a233.523 233.523 0 0 1 39.15-39.15l21.05 21.03a7.995 7.995 0 0 0 10.23.9c23.47-16.41 49.62-27.25 77.74-32.21 3.82-.67 6.6-3.99 6.6-7.87V25.66c18.38-2.18 37.03-2.18 55.36 0V55.4c0 3.88 2.78 7.2 6.6 7.87 28.13 4.97 54.28 15.81 77.73 32.24a7.994 7.994 0 0 0 10.24-.89l21.05-21.05a233.897 233.897 0 0 1 39.15 39.15l-21.03 21.05a7.993 7.993 0 0 0-.9 10.23c16.41 23.47 27.25 49.62 32.21 77.74.67 3.82 3.99 6.6 7.87 6.6h29.74c1.09 9.19 1.64 18.48 1.64 27.69s-.55 18.5-1.64 27.67h-29.74c-3.88 0-7.21 2.79-7.87 6.62-.68 3.91-1.5 7.81-2.43 11.69-9.2-11.24-23.17-18.42-38.79-18.42-1.48 0-2.94.08-4.39.2 1.71-9.14 2.6-18.43 2.6-27.76 0-82.56-67.17-149.73-149.73-149.73s-149.73 67.17-149.73 149.73c0 9.37.88 18.66 2.59 27.76-1.45-.13-2.92-.2-4.4-.2-15.61 0-29.57 7.18-38.78 18.4-.94-3.88-1.75-7.78-2.45-11.69zm41.23 9.28c18.85 0 34.19 15.33 34.19 34.19s-15.34 34.16-34.19 34.16-34.16-15.32-34.16-34.16 15.32-34.19 34.16-34.19zM24 432.3c0-23.91 22.79-43.37 50.8-43.37h59.36c28.03 0 50.83 19.46 50.83 43.37V488h-18.96v-44.5c0-4.42-3.58-7.99-7.99-7.99s-7.99 3.58-7.99 7.99V488h-91.1v-44.5c0-4.42-3.58-7.99-7.99-7.99s-7.99 3.58-7.99 7.99V488H24.01v-55.7zM488 488h-18.94v-44.5c0-4.42-3.58-7.99-7.99-7.99s-7.99 3.58-7.99 7.99V488h-91.11v-44.5c0-4.42-3.58-7.99-7.99-7.99s-7.99 3.58-7.99 7.99V488h-18.96v-55.7c0-23.91 22.8-43.37 50.83-43.37h59.36c28.01 0 50.8 19.46 50.8 43.37V488zM283.46 190.69c3.12 3.12 3.13 8.18 0 11.3l-28.74 28.77a7.985 7.985 0 0 1-5.65 2.34c-2.12 0-4.15-.84-5.65-2.34l-14.88-14.88a7.991 7.991 0 0 1 11.3-11.3l9.23 9.23 23.09-23.11c3.12-3.12 8.18-3.12 11.31 0z" fill="#ff3221" opacity="1" data-original="#000000" class=""></path></g></svg>