<svg version="1.1" id="Capa_1" xmlns="http://www.w3.org/2000/svg" xmlns:xlink="http://www.w3.org/1999/xlink" x="0px" y="0px" viewBox="0 0 512 512" style="enable-background:new 0 0 512 512;" xml:space="preserve">
<g>
	<path style="fill:none;stroke:#000000;stroke-width:15;stroke-linecap:round;stroke-linejoin:round;stroke-miterlimit:10;" d="&#10;&#9;&#9;M236.952,370.536v63.197c0,15.716,12.74,28.456,28.456,28.456h128.693l62.732,39.963c9.88,6.294,22.815-0.803,22.815-12.517&#10;&#9;&#9;V275.962c0-15.716-12.74-28.456-28.456-28.456H345.131"/>
	<path style="fill:none;stroke:#000000;stroke-width:15;stroke-linecap:round;stroke-linejoin:round;stroke-miterlimit:10;" d="&#10;&#9;&#9;M319.017,286.314h-104.44c-15.569,0-28.189-12.621-28.189-28.189s12.621-28.189,28.189-28.189h104.44&#10;&#9;&#9;c15.569,0,28.189,12.621,28.189,28.189C347.206,273.693,334.586,286.314,319.017,286.314z"/>
	<path style="fill:none;stroke:#000000;stroke-width:15;stroke-linecap:round;stroke-linejoin:round;stroke-miterlimit:10;" d="&#10;&#9;&#9;M32.352,345.551v53.257c0,11.714,12.935,18.811,22.815,12.517l64.029-40.789h127.397c15.716,0,28.456-12.74,28.456-28.456v-5.402"/>
	<path style="fill:none;stroke:#000000;stroke-width:15;stroke-linecap:round;stroke-linejoin:round;stroke-miterlimit:10;" d="&#10;&#9;&#9;M179.303,155.852H60.808c-15.716,0-28.456,12.74-28.456,28.456v126.242"/>
	<path style="fill:none;stroke:#000000;stroke-width:15;stroke-linecap:round;stroke-linejoin:round;stroke-miterlimit:10;" d="&#10;&#9;&#9;M214.892,286.314v11.861c0,21.265,17.238,38.503,38.503,38.503h26.803c21.265,0,38.503-17.238,38.503-38.503v-11.861"/>
	<path style="fill:none;stroke:#000000;stroke-width:15;stroke-linecap:round;stroke-linejoin:round;stroke-miterlimit:10;" d="&#10;&#9;&#9;M342.1,41.72c-18.614-21.302-46.119-34.636-76.728-34.21c-54.619,0.761-98.859,45.93-98.539,100.553&#10;&#9;&#9;c0.18,30.807,14.297,58.309,36.364,76.525c8.955,7.393,14.153,18.388,14.153,30.001v15.345"/>
	<path style="fill:none;stroke:#000000;stroke-width:15;stroke-linecap:round;stroke-linejoin:round;stroke-miterlimit:10;" d="&#10;&#9;&#9;M316.244,229.935v-15.344c0-11.654,5.264-22.647,14.242-30.076c22.158-18.335,36.276-46.043,36.276-77.049&#10;&#9;&#9;c0-12.593-2.335-24.638-6.585-35.736"/>
	<path style="fill:none;stroke:#000000;stroke-width:15;stroke-linecap:round;stroke-linejoin:round;stroke-miterlimit:10;" d="&#10;&#9;&#9;M273.385,229.935l16.732-111.487c1.525-10.161-6.345-19.3-16.62-19.3h-13.4c-10.275,0-18.145,9.139-16.62,19.3l16.732,111.487"/>
	
		<line style="fill:none;stroke:#000000;stroke-width:15;stroke-linecap:round;stroke-linejoin:round;stroke-miterlimit:10;" x1="89.132" y1="235.12" x2="198.281" y2="235.12"/>
	
		<line style="fill:none;stroke:#000000;stroke-width:15;stroke-linecap:round;stroke-linejoin:round;stroke-miterlimit:10;" x1="89.132" y1="291.268" x2="214.892" y2="291.268"/>
	
		<line style="fill:none;stroke:#000000;stroke-width:15;stroke-linecap:round;stroke-linejoin:round;stroke-miterlimit:10;" x1="305.979" y1="326.773" x2="422.868" y2="326.773"/>
	
		<line style="fill:none;stroke:#000000;stroke-width:15;stroke-linecap:round;stroke-linejoin:round;stroke-miterlimit:10;" x1="293.733" y1="382.921" x2="422.868" y2="382.921"/>
</g>
<g>
</g>
<g>
</g>
<g>
</g>
<g>
</g>
<g>
</g>
<g>
</g>
<g>
</g>
<g>
</g>
<g>
</g>
<g>
</g>
<g>
</g>
<g>
</g>
<g>
</g>
<g>
</g>
<g>
</g>
</svg>