<svg xmlns="http://www.w3.org/2000/svg" version="1.1" xmlns:xlink="http://www.w3.org/1999/xlink" width="512" height="512" x="0" y="0" viewBox="0 0 510 510" style="enable-background:new 0 0 512 512" xml:space="preserve" fill-rule="evenodd" class=""><g><path d="M377.07 464.431v15.747c0 5.211-4.249 9.461-9.46 9.461H24.46c-5.21 0-9.46-4.25-9.46-9.461V29.822c0-5.211 4.25-9.461 9.46-9.461h277.969c-.014.273-.021.546-.021.821v53.111c0 11.417 9.31 20.731 20.732 20.731h53.11c.275 0 .548-.007.82-.021v101.569c-37.174.005-70.897 15.293-95.204 39.901H163.402c-4.416 0-8 3.585-8 8s3.584 8 8 8H268.34a134.133 134.133 0 0 0-13.377 23.108h-91.561c-4.416 0-8 3.584-8 7.999 0 4.416 3.584 8 8 8h85.527a133.213 133.213 0 0 0-5.788 38.939c0 7.937.696 15.715 2.031 23.278h-81.77c-4.416 0-8 3.585-8 8 0 4.416 3.584 8 8 8h85.632a133.018 133.018 0 0 0 9.585 23.108h-95.217c-4.416 0-8 3.585-8 8s3.584 8 8 8h105.191c24.375 33.601 63.95 55.521 108.477 55.526zM52.912 115.707v61.995a5 5 0 0 0 5 5h61.995a5 5 0 0 0 5-5v-61.995a5 5 0 0 0-5-5H57.912a5 5 0 0 0-5 5zm15.933 38.375a8.003 8.003 0 0 1 0-11.313 8.003 8.003 0 0 1 11.314 0l4.064 4.063 16.827-14.369a8.004 8.004 0 0 1 11.278.888 8.004 8.004 0 0 1-.888 11.279l-22.45 19.171a8 8 0 0 1-10.852-.426zm94.557 20.175h154.011c4.415 0 8-3.584 8-8a8.003 8.003 0 0 0-8-7.999H163.402c-4.416 0-8 3.584-8 7.999 0 4.416 3.584 8 8 8zM52.912 233.03v61.995a5 5 0 0 0 5 5h61.995a5 5 0 0 0 5-5V233.03a5 5 0 0 0-5-5H57.912a5 5 0 0 0-5 5zm15.933 36.948c-3.122-3.123-3.122-8.192 0-11.314s8.192-3.122 11.314 0l4.064 4.063 16.827-14.369a8.003 8.003 0 0 1 11.278.889c2.868 3.357 2.469 8.411-.888 11.279l-22.45 19.171a8 8 0 0 1-10.852-.427zm94.557-134.828h154.011c4.415 0 8-3.585 8-8s-3.585-8-8-8H163.402c-4.416 0-8 3.585-8 8s3.584 8 8 8zM52.912 350.353v61.995a5 5 0 0 0 5 5h61.995a5 5 0 0 0 5-5v-61.995a5 5 0 0 0-5-5H57.912a5 5 0 0 0-5 5zm15.933 36.948c-3.122-3.123-3.122-8.192 0-11.314s8.192-3.122 11.314 0l4.064 4.063 16.827-14.369a8.003 8.003 0 0 1 11.278.889c2.868 3.357 2.469 8.411-.888 11.279L88.99 397.02a8 8 0 0 1-10.852-.427zM318.408 21.182a9.483 9.483 0 0 1 2.772 1.951l53.12 53.12a9.443 9.443 0 0 1 1.95 2.771h-53.11a4.74 4.74 0 0 1-4.732-4.731zm58.68 427.249c-64.955 0-117.947-52.956-117.947-117.912 0-64.955 52.992-117.947 117.947-117.947S495 265.564 495 330.519c0 64.956-52.957 117.912-117.912 117.912zM361.606 340.9l-26.355-26.356c-6.827-6.826-17.911-6.826-24.737 0-6.826 6.862-6.826 17.911 0 24.737l38.741 38.776c6.826 6.826 17.91 6.826 24.737 0 23.364-23.364 46.447-46.975 69.705-70.444 6.791-6.862 6.756-17.911-.07-24.702s-17.91-6.756-24.702.071z" fill="#ff4a17" opacity="1" data-original="#000000" class=""></path></g></svg>